<svg width="44" height="40" viewBox="0 0 44 40" fill="none" xmlns="http://www.w3.org/2000/svg">
<path d="M27.136 0.895949C24.208 2.86395 23.248 4.99995 24.472 6.79995C25.072 7.73595 25.624 8.02395 25.432 7.32795C25.384 7.08795 25.432 6.51195 25.552 6.05595C25.792 5.26395 25.792 5.26395 25.816 6.48795L25.84 7.75995H26.68C27.28 7.75995 27.736 7.56795 28.12 7.15995C28.624 6.65595 28.72 6.36795 28.696 5.07195C28.696 4.23195 28.6 3.07995 28.504 2.47995C28.408 1.87995 28.408 1.08795 28.504 0.727949C28.6 0.367949 28.6 0.0799484 28.528 0.0799484C28.432 0.0799484 27.808 0.439949 27.136 0.895949Z" fill="#0C9442"/>
<path d="M18.2081 6.79995C17.4881 7.06395 16.5521 7.49595 16.0721 7.78395L15.2321 8.31195L16.0961 8.74395C16.5761 8.95995 17.6321 9.67995 18.4481 10.352C20.4161 11.888 20.8001 12.08 22.0001 12.08C22.7921 12.08 23.1521 11.936 23.7041 11.384C24.0881 11 24.4001 10.568 24.4001 10.424C24.4001 10.112 23.0321 9.07995 22.1201 8.74395L21.4001 8.47995L22.1201 8.62395C22.5281 8.69595 23.2961 8.98395 23.8721 9.27195C24.9041 9.77595 24.9041 9.79995 24.7841 10.76C24.7121 11.288 24.5921 12.272 24.5201 12.968C24.3761 14.048 24.2801 14.24 23.6321 14.504C23.2241 14.672 22.5521 15.176 22.0961 15.632C21.4001 16.352 21.1601 16.448 19.8641 16.472C18.8321 16.52 18.2561 16.664 17.7521 17.024C16.6961 17.792 16.0001 18.992 16.0001 20.024C16.0001 20.912 16.0241 20.936 18.1121 22.064C21.7121 24.032 22.3601 24.296 24.1121 24.584C26.2961 24.944 29.4401 24.584 31.2641 23.744C32.9921 22.952 36.8801 20.432 36.8801 20.096C36.8801 19.64 35.2241 18.32 34.6481 18.32C34.3121 18.32 33.9761 18.056 33.7121 17.624C33.1361 16.568 31.9841 16.064 30.6161 16.232C29.5841 16.352 29.4401 16.304 29.0801 15.776C28.8641 15.44 28.2161 14.936 27.6161 14.648L26.5361 14.144L26.6081 12.344L26.6801 10.568L27.7601 10.016C28.3601 9.70395 29.0081 9.46395 29.2001 9.46395C29.3921 9.46395 29.1281 9.67995 28.6001 9.94395C27.2801 10.592 26.9681 10.952 27.1601 11.6C27.3521 12.224 28.6241 13.04 29.3921 13.04C30.2321 13.04 31.3121 12.464 32.8001 11.216C33.5201 10.616 34.5281 9.91995 35.0321 9.70395C36.1121 9.19995 35.9921 9.05595 33.8561 8.09595C32.4161 7.44795 29.9681 7.08795 28.8881 7.35195C28.0961 7.56795 27.0881 8.62395 26.8241 9.53595C26.6321 10.208 26.6081 10.232 26.5841 9.67995C26.5121 7.90395 25.6241 7.35195 25.1201 8.76795L24.8561 9.55995L24.5201 8.59995C24.3281 8.07195 23.8481 7.35195 23.4401 6.96795C22.7921 6.39195 22.5281 6.31995 21.0881 6.34395C20.1761 6.34395 18.9281 6.53595 18.2081 6.79995Z" fill="#0C9442"/>
<path d="M39.52 20.264C38.32 20.792 32.824 24.128 32.824 24.32C32.8 24.392 33.136 24.632 33.52 24.848C34.456 25.376 35.056 26.744 34.84 27.848C34.36 30.44 30.688 31.952 24.88 32C23.752 32 22.096 32.168 21.16 32.36C19.072 32.816 18.88 32.816 18.88 32.36C18.88 31.568 20.896 31.136 26.08 30.8C30.376 30.536 31.216 30.344 32.608 29.288C34.864 27.584 33.736 25.016 30.904 25.352C30.304 25.448 28.984 25.616 28 25.736C25.984 26 23.464 25.76 21.76 25.16C21.16 24.944 19.768 24.248 18.64 23.6C17.512 22.976 15.736 22.136 14.68 21.8C13.024 21.224 12.472 21.152 10.6 21.248C7.55202 21.392 6.06402 22.136 2.84802 25.16C0.520024 27.368 0.400024 27.536 0.400024 28.448C0.400024 29.744 1.57602 37.952 1.84002 38.648C2.20002 39.536 2.96802 39.296 4.52802 37.88C5.34402 37.16 6.44802 36.344 7.00002 36.08C8.92002 35.144 10 35.384 16.6 38.096C20.464 39.68 22.336 40.064 24.904 39.728C29.32 39.176 32.896 37.328 36.832 33.56C40.888 29.672 43.6 25.088 43.6 22.088C43.6 21.056 43.48 20.696 43.048 20.288C42.328 19.616 40.96 19.592 39.52 20.264Z" fill="#0C9442"/>
</svg>
