<svg width="16" height="22" viewBox="0 0 16 22" fill="none" xmlns="http://www.w3.org/2000/svg">
<path d="M4.6875 0H1.5625C0.699707 0 0 0.699707 0 1.5625V4.6875C0 5.55029 0.699707 6.25 1.5625 6.25H4.6875C5.55029 6.25 6.25 5.55029 6.25 4.6875V1.5625C6.25 0.699707 5.55029 0 4.6875 0ZM4.6875 7.8125H1.5625C0.699707 7.8125 0 8.51221 0 9.375V12.5C0 13.3628 0.699707 14.0625 1.5625 14.0625H4.6875C5.55029 14.0625 6.25 13.3628 6.25 12.5V9.375C6.25 8.51221 5.55029 7.8125 4.6875 7.8125ZM4.6875 15.625H1.5625C0.699707 15.625 0 16.3247 0 17.1875V20.3125C0 21.1753 0.699707 21.875 1.5625 21.875H4.6875C5.55029 21.875 6.25 21.1753 6.25 20.3125V17.1875C6.25 16.3247 5.55029 15.625 4.6875 15.625ZM14.0625 0H10.9375C10.0747 0 9.375 0.699707 9.375 1.5625V4.6875C9.375 5.55029 10.0747 6.25 10.9375 6.25H14.0625C14.9253 6.25 15.625 5.55029 15.625 4.6875V1.5625C15.625 0.699707 14.9253 0 14.0625 0ZM14.0625 7.8125H10.9375C10.0747 7.8125 9.375 8.51221 9.375 9.375V12.5C9.375 13.3628 10.0747 14.0625 10.9375 14.0625H14.0625C14.9253 14.0625 15.625 13.3628 15.625 12.5V9.375C15.625 8.51221 14.9253 7.8125 14.0625 7.8125ZM14.0625 15.625H10.9375C10.0747 15.625 9.375 16.3247 9.375 17.1875V20.3125C9.375 21.1753 10.0747 21.875 10.9375 21.875H14.0625C14.9253 21.875 15.625 21.1753 15.625 20.3125V17.1875C15.625 16.3247 14.9253 15.625 14.0625 15.625Z" fill="#1D4A0C"/>
</svg>
