<svg width="25" height="21" viewBox="0 0 25 21" fill="none" xmlns="http://www.w3.org/2000/svg">
<path d="M2.34375 0C1.8802 0 1.42706 0.137459 1.04163 0.394993C0.656206 0.652528 0.355801 1.01857 0.178408 1.44684C0.00101551 1.8751 -0.0453986 2.34635 0.0450356 2.80099C0.13547 3.25564 0.35869 3.67325 0.68647 4.00103C1.01425 4.32881 1.43187 4.55203 1.88651 4.64247C2.34115 4.7329 2.8124 4.68649 3.24067 4.50909C3.66893 4.3317 4.03497 4.0313 4.29251 3.64587C4.55004 3.26044 4.6875 2.8073 4.6875 2.34375C4.6875 1.72215 4.44057 1.12601 4.00103 0.686469C3.56149 0.24693 2.96535 0 2.34375 0ZM2.34375 7.8125C1.8802 7.8125 1.42706 7.94996 1.04163 8.20749C0.656206 8.46503 0.355801 8.83107 0.178408 9.25934C0.00101551 9.6876 -0.0453986 10.1589 0.0450356 10.6135C0.13547 11.0681 0.35869 11.4858 0.68647 11.8135C1.01425 12.1413 1.43187 12.3645 1.88651 12.455C2.34115 12.5454 2.8124 12.499 3.24067 12.3216C3.66893 12.1442 4.03497 11.8438 4.29251 11.4584C4.55004 11.0729 4.6875 10.6198 4.6875 10.1562C4.6875 9.53465 4.44057 8.93851 4.00103 8.49897C3.56149 8.05943 2.96535 7.8125 2.34375 7.8125ZM2.34375 15.625C1.8802 15.625 1.42706 15.7625 1.04163 16.02C0.656206 16.2775 0.355801 16.6436 0.178408 17.0718C0.00101551 17.5001 -0.0453986 17.9713 0.0450356 18.426C0.13547 18.8806 0.35869 19.2983 0.68647 19.626C1.01425 19.9538 1.43187 20.177 1.88651 20.2675C2.34115 20.3579 2.8124 20.3115 3.24067 20.1341C3.66893 19.9567 4.03497 19.6563 4.29251 19.2709C4.55004 18.8854 4.6875 18.4323 4.6875 17.9688C4.6875 17.3471 4.44057 16.751 4.00103 16.3115C3.56149 15.8719 2.96535 15.625 2.34375 15.625ZM24.2188 16.4062H8.59375C8.38655 16.4062 8.18784 16.4886 8.04132 16.6351C7.89481 16.7816 7.8125 16.9803 7.8125 17.1875V18.75C7.8125 18.9572 7.89481 19.1559 8.04132 19.3024C8.18784 19.4489 8.38655 19.5312 8.59375 19.5312H24.2188C24.426 19.5312 24.6247 19.4489 24.7712 19.3024C24.9177 19.1559 25 18.9572 25 18.75V17.1875C25 16.9803 24.9177 16.7816 24.7712 16.6351C24.6247 16.4886 24.426 16.4062 24.2188 16.4062ZM24.2188 0.78125H8.59375C8.38655 0.78125 8.18784 0.86356 8.04132 1.01007C7.89481 1.15659 7.8125 1.3553 7.8125 1.5625V3.125C7.8125 3.3322 7.89481 3.53091 8.04132 3.67743C8.18784 3.82394 8.38655 3.90625 8.59375 3.90625H24.2188C24.426 3.90625 24.6247 3.82394 24.7712 3.67743C24.9177 3.53091 25 3.3322 25 3.125V1.5625C25 1.3553 24.9177 1.15659 24.7712 1.01007C24.6247 0.86356 24.426 0.78125 24.2188 0.78125ZM24.2188 8.59375H8.59375C8.38655 8.59375 8.18784 8.67606 8.04132 8.82257C7.89481 8.96909 7.8125 9.1678 7.8125 9.375V10.9375C7.8125 11.1447 7.89481 11.3434 8.04132 11.4899C8.18784 11.6364 8.38655 11.7188 8.59375 11.7188H24.2188C24.426 11.7188 24.6247 11.6364 24.7712 11.4899C24.9177 11.3434 25 11.1447 25 10.9375V9.375C25 9.1678 24.9177 8.96909 24.7712 8.82257C24.6247 8.67606 24.426 8.59375 24.2188 8.59375Z" fill="#1D4A0C"/>
</svg>
