<svg width="25" height="26" viewBox="0 0 25 26" fill="none" xmlns="http://www.w3.org/2000/svg">
<g id="clipping path">
<path id="Vector" d="M16.7922 12.6956C16.7404 12.5281 16.6476 12.3825 16.5218 12.2715C16.396 12.1605 16.241 12.0874 16.0703 12.0587L11.2456 11.2463L10.9983 11.5465L13.6167 13.7341C13.7231 13.6634 13.8412 13.6115 13.968 13.5898C14.4223 13.512 14.7972 13.8252 14.8053 14.2893C14.8134 14.7534 14.4516 15.1926 13.9973 15.2703C13.543 15.3481 13.1681 15.0349 13.16 14.5708C13.1578 14.4413 13.1867 14.3148 13.236 14.1965L10.6176 12.0089L10.3703 12.3091L12.0546 16.9348C12.1142 17.0984 12.2141 17.2384 12.3457 17.3424C12.4773 17.4464 12.6365 17.5114 12.8095 17.5316L15.4172 17.8367L17.5718 15.2205L16.7922 12.6956ZM18.01 18.8317L19.0218 17.6031C19.3374 17.2199 19.3281 16.6876 19.0011 16.4143L18.0146 15.5902L15.8598 18.2068L16.8462 19.0309C17.1733 19.3041 17.6943 19.215 18.01 18.8317Z" fill="#586582"/>
<path id="Vector_2" d="M9.53173 16.9236L7.6217 19.3386L9.69453 20.978L11.6046 18.563L9.53173 16.9236Z" fill="#242F46"/>
<path id="Vector_3" d="M17.5077 6.83916L15.5977 9.25415L17.6705 10.8936L19.5805 8.47857L17.5077 6.83916Z" fill="#242F46"/>
<path id="Vector_4" d="M18.7736 9.15382L18.3074 9.68452C18.267 9.65261 14.4487 6.27287 10.9413 6.87249C9.55496 7.11168 8.38958 7.95935 7.45625 9.37744C6.40147 11.0026 6.03453 12.5951 6.36172 14.123C7.05363 17.2035 10.3824 19.028 10.4124 19.0517L10.0651 19.6592C9.91818 19.5776 6.45647 17.6751 5.71751 14.301C5.34735 12.5814 5.74124 10.8131 6.90411 9.02454C7.94951 7.41661 9.28224 6.46966 10.8688 6.19662C14.6866 5.5468 18.6006 9.01694 18.7736 9.15382Z" fill="#242F46"/>
<path id="Vector_5" d="M7.31053 6.46766L5.11633 9.24194L7.49755 11.1253L9.69174 8.35097L7.31053 6.46766Z" fill="#242F46"/>
<path id="Vector_6" d="M12.3297 2.16476L1.93188 15.3115L2.40162 15.683L12.7995 2.53628L12.3297 2.16476Z" fill="#242F46"/>
<path id="Vector_7" d="M3.73091 13.3952C3.91667 13.5422 4.04751 13.7499 4.10691 13.9923C4.1663 14.2347 4.15159 14.5008 4.06462 14.757C3.97765 15.0131 3.82233 15.2479 3.61829 15.4316C3.41425 15.6153 3.17065 15.7397 2.91828 15.789C2.66591 15.8383 2.41609 15.8104 2.20039 15.7087C1.9847 15.6071 1.81282 15.4362 1.70647 15.2178C1.60012 14.9994 1.56407 14.7433 1.60289 14.4817C1.64171 14.2201 1.75364 13.9649 1.92455 13.7483C2.03804 13.6041 2.17486 13.4805 2.32718 13.3847C2.4795 13.2889 2.6443 13.2226 2.81213 13.1898C2.97997 13.157 3.14753 13.1583 3.3052 13.1935C3.46287 13.2288 3.60754 13.2973 3.73091 13.3952Z" fill="white"/>
<path id="Vector_8" d="M3.73091 13.3952C3.91667 13.5422 4.04751 13.7499 4.10691 13.9923C4.1663 14.2347 4.15159 14.5008 4.06462 14.757C3.97765 15.0131 3.82233 15.2479 3.61829 15.4316C3.41425 15.6153 3.17065 15.7397 2.91828 15.789C2.66591 15.8383 2.41609 15.8104 2.20039 15.7087C1.9847 15.6071 1.81282 15.4362 1.70647 15.2178C1.60012 14.9994 1.56407 14.7433 1.60289 14.4817C1.64171 14.2201 1.75364 13.9649 1.92455 13.7483C2.03804 13.6041 2.17486 13.4805 2.32718 13.3847C2.4795 13.2889 2.6443 13.2226 2.81213 13.1898C2.97997 13.157 3.14753 13.1583 3.3052 13.1935C3.46287 13.2288 3.60754 13.2973 3.73091 13.3952V13.3952Z" stroke="#242F46" stroke-width="2" stroke-miterlimit="10"/>
<path id="Vector_9" d="M12.763 1.97507C12.9488 2.12203 13.0797 2.32988 13.1391 2.57234C13.1984 2.81481 13.1836 3.08099 13.0966 3.33723C13.0095 3.59347 12.854 3.82826 12.6499 4.01192C12.4457 4.19557 12.202 4.31983 11.9495 4.36899C11.697 4.41815 11.4472 4.39 11.2316 4.2881C11.0159 4.1862 10.8442 4.01513 10.738 3.79651C10.6319 3.57789 10.5961 3.32156 10.6352 3.05991C10.6744 2.79827 10.7866 2.54307 10.9579 2.32659C11.1874 2.03629 11.5066 1.83618 11.8451 1.77025C12.1837 1.70433 12.5138 1.77801 12.763 1.97507Z" fill="white"/>
<path id="Vector_10" d="M12.6191 2.1572C12.8049 2.30416 12.9358 2.51201 12.9951 2.75447C13.0545 2.99693 13.0397 3.26312 12.9526 3.51936C12.8656 3.7756 12.7101 4.01039 12.5059 4.19405C12.3018 4.3777 12.058 4.50196 11.8056 4.55112C11.5531 4.60028 11.3033 4.57213 11.0876 4.47023C10.872 4.36833 10.7002 4.19726 10.5941 3.97864C10.4879 3.76002 10.4522 3.50369 10.4913 3.24204C10.5304 2.9804 10.6427 2.7252 10.8139 2.50872C11.0435 2.21842 11.3627 2.0183 11.7012 1.95238C12.0398 1.88646 12.3699 1.96013 12.6191 2.1572V2.1572Z" stroke="#242F46" stroke-width="2" stroke-miterlimit="10"/>
</g>
</svg>
