<svg width="12" height="14" viewBox="0 0 12 14" fill="none" xmlns="http://www.w3.org/2000/svg">
<g id="color-correction">
<path id="Vector" d="M11.245 1.34352C11.2449 1.07784 11.1661 0.81815 11.0185 0.597257C10.8708 0.376363 10.6611 0.204175 10.4156 0.102442C10.1702 0.000708739 9.90012 -0.0260057 9.63952 0.0256732C9.37891 0.0773521 9.13947 0.205106 8.95143 0.392797L7.24013 2.09221L6.33695 1.18903C6.13009 0.983361 5.85024 0.867919 5.55854 0.867919C5.26684 0.867919 4.987 0.983361 4.78014 1.18903L3.02131 2.93598C2.95841 3.00386 2.92347 3.093 2.92347 3.18554C2.92347 3.27809 2.95841 3.36722 3.02131 3.43511L0.0978366 6.35857C0.0349424 6.42646 0 6.51559 0 6.60814C0 6.70068 0.0349424 6.78981 0.0978366 6.8577L1.7616 8.52146V9.12755C1.7616 9.59103 1.84479 9.92378 2.02305 10.1852C2.11374 10.3181 2.23161 10.4303 2.36887 10.5143C2.50612 10.5983 2.65964 10.6522 2.81928 10.6725C2.78093 10.9373 2.72536 11.1993 2.6529 11.4568C2.48652 12.1461 2.30826 12.8472 2.74797 13.4296C3.03319 13.7861 3.4729 13.9762 4.0671 13.9762C4.26431 13.9857 4.46109 13.95 4.64235 13.8717C4.82362 13.7934 4.98457 13.6747 5.11289 13.5246C5.50506 13.0255 5.37434 12.4075 5.26738 11.9084C5.25676 11.882 5.25268 11.8535 5.2555 11.8252C5.33403 11.839 5.41347 11.847 5.49318 11.849C5.74079 11.847 5.98166 11.7681 6.18245 11.6232C6.33463 11.5227 6.46047 11.3871 6.54939 11.2279C6.63831 11.0687 6.68772 10.8904 6.69347 10.7081C6.70322 10.4925 6.68322 10.2766 6.63405 10.0664C6.58486 9.85219 6.56487 9.63232 6.57463 9.41277L7.7868 8.2006C7.85435 8.26083 7.94228 8.29312 8.03277 8.29092C8.12325 8.28871 8.2095 8.25217 8.27404 8.18871L10.0329 6.44176C10.2385 6.2349 10.354 5.95506 10.354 5.66336C10.354 5.37166 10.2385 5.09181 10.0329 4.88496L9.12969 3.98177L10.8291 2.28236C10.9596 2.16315 11.064 2.01817 11.1356 1.85657C11.2071 1.69497 11.2444 1.52027 11.245 1.34352Z" fill="#242F46"/>
<path id="Vector_2" d="M5.73101 8.87799C5.68072 8.93023 5.64755 8.99656 5.63593 9.06814C5.57638 9.4632 5.58846 9.86576 5.67159 10.2565C5.74289 10.6368 5.73101 10.7438 5.63593 10.8032C5.59775 10.8311 5.55241 10.8476 5.50521 10.8507C5.38637 10.8507 5.27941 10.6487 5.25565 10.5774C5.23855 10.5352 5.21329 10.4968 5.18132 10.4644C5.14935 10.432 5.11129 10.4062 5.06934 10.3886C5.02738 10.3709 4.98235 10.3617 4.93682 10.3615C4.8913 10.3612 4.84618 10.37 4.80405 10.3873C4.00782 10.6962 4.18608 11.5162 4.31681 12.1104C4.38811 12.4194 4.45942 12.7641 4.36435 12.8948C4.28587 12.9538 4.18908 12.9833 4.09101 12.978C3.81768 12.978 3.63942 12.9186 3.55623 12.8235C3.40174 12.6215 3.5087 12.1818 3.63942 11.7064C3.77014 11.231 3.88898 10.72 3.84145 10.209C3.8058 9.8406 3.63942 9.65046 3.34232 9.65046C3.2829 9.65046 3.2116 9.66234 3.15218 9.66234C3.10137 9.67267 3.04947 9.67666 2.99768 9.67422C2.9725 9.67771 2.94685 9.67397 2.92371 9.66345C2.90057 9.65294 2.88089 9.63606 2.86696 9.6148C2.83131 9.55538 2.78377 9.42466 2.78377 9.11567V8.23626C2.78561 8.14389 2.75153 8.05442 2.6887 7.98669L1.25073 6.60815L3.53246 4.32642L4.4713 5.26525L3.34232 6.57249C3.33087 6.58568 3.32456 6.60256 3.32456 6.62003C3.32456 6.6375 3.33087 6.65438 3.34232 6.66757C3.34785 6.67495 3.35503 6.68094 3.36328 6.68506C3.37153 6.68919 3.38063 6.69134 3.38986 6.69134C3.39908 6.69134 3.40818 6.68919 3.41643 6.68506C3.42468 6.68094 3.43186 6.67495 3.43739 6.66757L4.74463 5.53859L5.93304 6.72699L5.17246 7.60641C5.16632 7.61313 5.16171 7.62111 5.15895 7.62979C5.15619 7.63847 5.15535 7.64764 5.15648 7.65668C5.15761 7.66572 5.16068 7.6744 5.16549 7.68214C5.1703 7.68987 5.17674 7.69647 5.18434 7.70148C5.19623 7.71336 5.21999 7.72524 5.23188 7.71336C5.24376 7.70148 5.26753 7.70148 5.27941 7.70148L6.15883 6.9409L6.91941 7.70148L5.73101 8.87799Z" fill="white"/>
</g>
</svg>
