<svg width="18" height="18" viewBox="0 0 18 18" fill="none" xmlns="http://www.w3.org/2000/svg">
<path d="M17.916 3.03806C17.8497 2.9497 17.7392 2.90552 17.6288 2.90552H3.51251C3.2916 2.90552 3.11487 3.08225 3.11487 3.30316C3.11487 3.32525 3.11487 3.34734 3.11487 3.36943L4.68334 11.2118C4.72752 11.3885 4.88216 11.5211 5.05889 11.5211H5.10307L16.8556 9.9526C17.0323 9.93051 17.1649 9.79796 17.1869 9.62123L17.9822 3.34734C18.0264 3.23689 17.9822 3.12643 17.916 3.03806Z" fill="#242F46"/>
<path d="M14.4917 17.795C15.5776 17.795 16.4579 16.9148 16.4579 15.8289C16.4579 14.7431 15.5776 13.8628 14.4917 13.8628C13.4059 13.8628 12.5256 14.7431 12.5256 15.8289C12.5256 16.9148 13.4059 17.795 14.4917 17.795Z" fill="#78797A"/>
<path d="M6.64946 17.795C7.73532 17.795 8.61558 16.9148 8.61558 15.8289C8.61558 14.7431 7.73532 13.8628 6.64946 13.8628C5.56361 13.8628 4.68335 14.7431 4.68335 15.8289C4.68335 16.9148 5.56361 17.795 6.64946 17.795Z" fill="#78797A"/>
<path d="M16.0603 13.0897H7.02499C5.72161 13.0897 4.59496 12.1618 4.32987 10.8805L2.40794 1.33716H0.397641C0.176729 1.33716 0 1.16043 0 0.939515C0 0.718603 0.176729 0.563965 0.397641 0.563965H2.73931C2.91603 0.563965 3.09276 0.696512 3.11485 0.873241L5.08097 10.7259C5.2577 11.6316 6.07507 12.2944 7.0029 12.2944H16.0382C16.2591 12.2944 16.4358 12.4711 16.4358 12.692C16.4358 12.9129 16.2812 13.0897 16.0603 13.0897Z" fill="#78797A"/>
<path d="M12.3932 9.31217L6.64954 10.0854L8.94702 5.7334L12.3932 9.31217Z" fill="white"/>
<path d="M14.8675 9.00287L10.626 9.55515L12.327 6.37402L14.8675 9.00287Z" fill="white"/>
<path d="M14.05 4.51834C14.1162 4.98225 13.7849 5.40198 13.343 5.44617C12.8791 5.51244 12.4594 5.18107 12.4152 4.73925C12.371 4.29743 12.6803 3.8556 13.1221 3.81142C13.1221 3.81142 13.1221 3.81142 13.1442 3.81142C13.586 3.74515 14.0058 4.05442 14.05 4.51834C14.05 4.49625 14.05 4.49625 14.05 4.51834Z" fill="white"/>
</svg>
