<svg width="14" height="14" viewBox="0 0 14 14" fill="none" xmlns="http://www.w3.org/2000/svg">
<path d="M1.97919 7.64635C0.8736 8.84824 0.914185 10.7086 2.07114 11.8612V11.8612C3.25823 13.0437 5.17809 13.0437 6.36518 11.8612L11.9478 6.29984C12.0952 6.15305 12.178 5.95361 12.178 5.74561V2.42688C12.6872 2.15698 13.7616 1.4022 13.9858 0.542239C14.0372 0.314221 13.9774 -0.108312 13.3271 0.025707C12.9815 0.062934 12.1332 0.346793 11.5053 1.18441C11.5427 1.20768 11.6735 1.2598 11.8977 1.28214C12.3217 0.951741 13.2487 0.324456 13.5654 0.458476C13.4533 0.816791 12.9824 1.65069 11.9958 2.11976V2.11976C11.6608 1.5724 10.8588 1.57447 10.2175 1.59936L8.68391 1.65888C8.20184 1.67759 7.69497 1.68397 7.28168 1.93282C7.19206 1.98678 7.11454 2.04911 7.06296 2.11976L1.97919 7.64635Z" fill="#242F46"/>
<path d="M2.87376 10.1027C2.86124 10.0913 2.8539 10.0776 2.85176 10.0615C2.85006 10.045 2.85425 10.0312 2.86432 10.0201L3.39789 9.43354C3.40928 9.42102 3.42192 9.41535 3.4358 9.41654C3.44964 9.41681 3.46234 9.4222 3.47389 9.43271L3.55264 9.50434C3.56372 9.51441 3.57028 9.52654 3.57234 9.54073C3.57435 9.554 3.56966 9.5669 3.55827 9.57942L3.15283 10.0252L3.51188 10.3517L3.83846 9.99269C3.84985 9.98017 3.86248 9.9745 3.87636 9.97569C3.89068 9.97639 3.90338 9.98178 3.91446 9.99186L3.99248 10.0628C4.00356 10.0729 4.01012 10.085 4.01218 10.0992C4.01419 10.1125 4.0095 10.1254 3.99811 10.1379L3.67087 10.4977L4.05303 10.8453C4.06555 10.8567 4.07267 10.8706 4.07437 10.8871C4.07651 10.9032 4.07254 10.9167 4.06247 10.9278L3.97113 11.0282C3.96106 11.0393 3.94794 11.0445 3.93178 11.0439C3.91562 11.0433 3.90128 11.0373 3.88876 11.0259L2.87376 10.1027ZM3.99095 9.47382C3.95627 9.44228 3.95273 9.41134 3.98033 9.381L4.01582 9.34199C4.03991 9.3155 4.06855 9.30723 4.10175 9.31718C4.14991 9.33195 4.2069 9.36267 4.27271 9.40933C4.27368 9.4102 4.27438 9.4104 4.27482 9.40992C4.27569 9.40895 4.26904 9.39982 4.25485 9.38252C4.24067 9.36522 4.22703 9.34005 4.21395 9.30703C4.20038 9.27357 4.19308 9.24096 4.19203 9.20921C4.19087 9.14566 4.21285 9.08909 4.25797 9.03948C4.30835 8.9841 4.35254 8.95389 4.39056 8.94887C4.40794 8.9462 4.42299 8.9524 4.43568 8.96747L4.51619 9.06182C4.53813 9.08705 4.53902 9.11075 4.51887 9.1329C4.50923 9.1435 4.49523 9.15453 4.47688 9.166C4.44201 9.18885 4.4167 9.20894 4.40093 9.22628C4.38516 9.24362 4.37621 9.26893 4.3741 9.30221C4.37151 9.33506 4.37518 9.36876 4.38511 9.40331C4.40646 9.47466 4.44387 9.53464 4.49733 9.58327L4.88093 9.93219C4.89442 9.94446 4.90223 9.95861 4.90437 9.97464C4.90651 9.99066 4.90101 10.0059 4.88787 10.0204L4.81165 10.1042C4.79763 10.1196 4.78232 10.1272 4.76572 10.1271C4.74956 10.1264 4.73474 10.12 4.72126 10.1077L4.22351 9.655C4.13875 9.5779 4.08025 9.52997 4.04802 9.51122C4.01575 9.49154 3.99673 9.47908 3.99095 9.47382ZM5.16157 8.98072L5.17464 8.99393C5.24062 9.05394 5.31266 9.08118 5.39074 9.07564C5.47299 9.07036 5.54828 9.03016 5.61662 8.95503C5.67883 8.88664 5.71618 8.80445 5.72869 8.70845C5.73106 8.69037 5.73619 8.67699 5.74407 8.66832C5.76028 8.6505 5.78146 8.64512 5.8076 8.65218L5.8658 8.66947C5.87937 8.6739 5.8917 8.68115 5.90277 8.69123C5.91385 8.7013 5.92081 8.71687 5.92365 8.73794C5.92645 8.75808 5.92544 8.78048 5.92061 8.80514C5.91579 8.82979 5.90735 8.856 5.8953 8.88376C5.88369 8.91104 5.87021 8.93795 5.85488 8.96449C5.82421 9.01756 5.78697 9.06817 5.74316 9.11633C5.69935 9.16449 5.64596 9.20481 5.58297 9.23729C5.52043 9.26929 5.45537 9.28712 5.38779 9.29078C5.24349 9.29945 5.10777 9.24596 4.98062 9.13031C4.75763 8.92749 4.69033 8.72282 4.77872 8.51631C4.80655 8.45186 4.8439 8.39386 4.89077 8.34233C4.93808 8.29031 4.98371 8.25128 5.02764 8.22524C5.07201 8.19871 5.11708 8.18206 5.16284 8.17529C5.25941 8.16104 5.34864 8.19115 5.43051 8.26562C5.51094 8.33878 5.54256 8.42738 5.52536 8.53143C5.51031 8.62247 5.46008 8.71495 5.37465 8.80886C5.32209 8.86666 5.25106 8.92394 5.16157 8.98072ZM5.27392 8.43341C5.20505 8.37077 5.12856 8.38568 5.04445 8.47815C4.96429 8.56629 4.94048 8.65729 4.97304 8.75114C4.98428 8.78426 5.00477 8.81785 5.0345 8.85193C5.09288 8.82935 5.1512 8.78603 5.20947 8.72198C5.32468 8.59531 5.34616 8.49913 5.27392 8.43341ZM6.03494 8.02054L6.04801 8.03375C6.11399 8.09376 6.18603 8.121 6.26411 8.11546C6.34636 8.11018 6.42165 8.06998 6.48999 7.99485C6.5522 7.92646 6.58955 7.84427 6.60206 7.74827C6.60443 7.73019 6.60956 7.71681 6.61744 7.70814C6.63365 7.69032 6.65483 7.68494 6.68097 7.692L6.73917 7.70929C6.75274 7.71372 6.76507 7.72097 6.77615 7.73105C6.78722 7.74112 6.79418 7.75669 6.79702 7.77776C6.79982 7.7979 6.79881 7.8203 6.79398 7.84496C6.78916 7.86961 6.78072 7.89582 6.76867 7.92358C6.75706 7.95086 6.74358 7.97777 6.72825 8.00431C6.69758 8.05738 6.66034 8.10799 6.61653 8.15615C6.57273 8.20431 6.51933 8.24463 6.45635 8.27711C6.3938 8.30911 6.32874 8.32693 6.26116 8.33059C6.11686 8.33927 5.98114 8.28578 5.85399 8.17013C5.631 7.96731 5.56371 7.76264 5.65209 7.55613C5.67992 7.49168 5.71727 7.43368 5.76414 7.38215C5.81146 7.33013 5.85708 7.2911 5.90101 7.26506C5.94538 7.23853 5.99045 7.22188 6.03621 7.21511C6.13278 7.20085 6.22201 7.23097 6.30388 7.30544C6.38431 7.3786 6.41593 7.4672 6.39873 7.57125C6.38368 7.66229 6.33345 7.75477 6.24803 7.84868C6.19546 7.90648 6.12443 7.96376 6.03494 8.02054ZM6.14729 7.47323C6.07842 7.41059 6.00193 7.4255 5.91782 7.51797C5.83766 7.60611 5.81385 7.6971 5.84641 7.79096C5.85765 7.82407 5.87814 7.85767 5.90787 7.89175C5.96625 7.86917 6.02457 7.82585 6.08284 7.7618C6.19805 7.63513 6.21953 7.53894 6.14729 7.47323ZM7.28727 5.96597C7.31424 5.9905 7.31392 6.01794 7.28633 6.04828L7.10102 6.252L7.5547 6.66466C7.60383 6.70934 7.65051 6.70736 7.69476 6.65872C7.72279 6.6279 7.74396 6.57367 7.75826 6.49602C7.76076 6.4807 7.76705 6.46749 7.77712 6.45642C7.78763 6.44486 7.8039 6.44294 7.82593 6.45065L7.87861 6.4682C7.89875 6.47508 7.91388 6.48312 7.924 6.49232C7.93411 6.50152 7.9389 6.51996 7.93837 6.54764C7.93779 6.5744 7.93207 6.60439 7.9212 6.63763C7.89665 6.71299 7.86467 6.77235 7.82524 6.81569C7.78581 6.85904 7.75016 6.88953 7.71827 6.90717C7.68634 6.92389 7.65336 6.93306 7.61933 6.93467C7.54672 6.93903 7.47502 6.90901 7.40422 6.84461L6.94332 6.42538L6.88812 6.48606C6.86052 6.5164 6.833 6.51909 6.80555 6.49412L6.76437 6.45667C6.75329 6.44659 6.74725 6.43582 6.74625 6.42434C6.74524 6.41287 6.75072 6.39717 6.76268 6.37725L6.80744 6.28595L6.66264 6.10408C6.63568 6.06987 6.63161 6.04241 6.65045 6.0217L6.70499 5.96174C6.71506 5.95066 6.72796 5.94567 6.74368 5.94677C6.75892 5.94743 6.77353 5.95411 6.78749 5.96682L6.95076 6.11532L7.13606 5.9116C7.16366 5.88126 7.1907 5.87813 7.21719 5.90223L7.28727 5.96597ZM7.45888 5.66119C7.42421 5.62965 7.42067 5.59871 7.44827 5.56837L7.48375 5.52935C7.50784 5.50287 7.53649 5.4946 7.56968 5.50455C7.61785 5.51932 7.67484 5.55003 7.74065 5.59669C7.74161 5.59757 7.74231 5.59777 7.74275 5.59728C7.74363 5.59632 7.73697 5.58719 7.72279 5.56989C7.7086 5.55258 7.69497 5.52742 7.68188 5.4944C7.66832 5.46093 7.66101 5.42833 7.65997 5.39658C7.6588 5.33303 7.68078 5.27646 7.7259 5.22685C7.77628 5.17146 7.82048 5.14126 7.85849 5.13623C7.87588 5.13357 7.89092 5.13977 7.90362 5.15484L7.98413 5.24919C8.00606 5.27442 8.00695 5.29811 7.9868 5.32027C7.97716 5.33086 7.96317 5.34189 7.94482 5.35336C7.90995 5.37621 7.88463 5.39631 7.86886 5.41365C7.85309 5.43099 7.84415 5.4563 7.84204 5.48958C7.83945 5.52242 7.84311 5.55612 7.85305 5.59068C7.8744 5.66203 7.9118 5.72201 7.96526 5.77064L8.34887 6.11956C8.36235 6.13183 8.37016 6.14597 8.37231 6.162C8.37445 6.17803 8.36895 6.19327 8.35581 6.20772L8.27958 6.29152C8.26556 6.30693 8.25026 6.31457 8.23366 6.31443C8.2175 6.31381 8.20268 6.30737 8.18919 6.29511L7.69144 5.84236C7.60668 5.76526 7.54818 5.71734 7.51596 5.69858C7.48369 5.67891 7.46466 5.66645 7.45888 5.66119ZM8.01268 4.66775C7.98289 4.7005 7.94616 4.71814 7.9025 4.72066C7.85932 4.72363 7.82087 4.70978 7.78716 4.67912C7.75441 4.64933 7.73699 4.61236 7.7349 4.56822C7.7329 4.52591 7.74723 4.4879 7.77789 4.45419C7.82476 4.40266 7.88122 4.388 7.94725 4.41022C7.96692 4.41667 7.98517 4.42755 8.00203 4.44289C8.03574 4.47355 8.05316 4.51052 8.05429 4.55379C8.0559 4.59749 8.04203 4.63548 8.01268 4.66775ZM8.84521 5.27056C8.8794 5.30166 8.90679 5.30589 8.92738 5.28326C8.93439 5.27555 8.94011 5.26491 8.94454 5.25134C8.95343 5.22511 8.96095 5.20862 8.96708 5.20188C8.97628 5.19176 8.99071 5.18993 9.01037 5.19637L9.08131 5.21997C9.09301 5.22357 9.10246 5.22865 9.10969 5.23522C9.1304 5.25406 9.13345 5.2894 9.11886 5.34125C9.10553 5.39073 9.08375 5.43209 9.05353 5.46532C9.02374 5.49807 8.99625 5.52103 8.97106 5.53421C8.94588 5.54738 8.91851 5.55329 8.88895 5.55192C8.82886 5.54831 8.75981 5.51103 8.68179 5.44006L8.1183 4.92752C8.10482 4.91525 8.097 4.9011 8.09486 4.88508C8.09272 4.86905 8.09647 4.85573 8.10611 4.84514L8.19416 4.74833C8.20423 4.73726 8.21713 4.73227 8.23285 4.73337C8.24858 4.73447 8.26318 4.74115 8.27666 4.75341L8.84521 5.27056ZM9.38543 4.67664C9.41962 4.70774 9.44767 4.71126 9.46957 4.68717C9.47658 4.67947 9.4834 4.66762 9.49001 4.65164C9.50198 4.62204 9.51015 4.60483 9.51453 4.60002C9.52461 4.58894 9.53947 4.58662 9.55914 4.59306L9.6308 4.61732C9.64065 4.62101 9.64871 4.62569 9.65497 4.63139C9.66605 4.64146 9.67121 4.66288 9.67045 4.69564C9.6675 4.75984 9.63909 4.82156 9.5852 4.8808C9.48707 4.98868 9.36601 4.97713 9.22201 4.84614L8.19184 3.90911C8.17884 3.89729 8.17126 3.88336 8.16912 3.86733C8.16698 3.8513 8.17073 3.83799 8.18037 3.82739L8.26842 3.73059C8.27849 3.71951 8.29139 3.71452 8.30711 3.71562C8.32284 3.71672 8.3372 3.72318 8.3502 3.73501L9.38543 4.67664ZM9.70337 3.98748L9.71644 4.00069C9.78242 4.0607 9.85446 4.08794 9.93254 4.0824C10.0148 4.07712 10.0901 4.03692 10.1584 3.96179C10.2206 3.8934 10.258 3.81121 10.2705 3.71522C10.2729 3.69713 10.278 3.68375 10.2859 3.67508C10.3021 3.65726 10.3233 3.65188 10.3494 3.65894L10.4076 3.67623C10.4212 3.68066 10.4335 3.68791 10.4446 3.69799C10.4557 3.70806 10.4626 3.72363 10.4655 3.7447C10.4682 3.76485 10.4672 3.78725 10.4624 3.8119C10.4576 3.83655 10.4492 3.86276 10.4371 3.89052C10.4255 3.91781 10.412 3.94471 10.3967 3.97125C10.366 4.02432 10.3288 4.07493 10.285 4.12309C10.2412 4.17126 10.1878 4.21157 10.1248 4.24405C10.0622 4.27605 9.99717 4.29388 9.92959 4.29754C9.78529 4.30621 9.64957 4.25273 9.52242 4.13707C9.29943 3.93425 9.23214 3.72958 9.32052 3.52307C9.34835 3.45862 9.3857 3.40062 9.43257 3.34909C9.47989 3.29708 9.52551 3.25805 9.56944 3.232C9.61381 3.20547 9.65888 3.18882 9.70465 3.18205C9.80121 3.1678 9.89044 3.19791 9.97231 3.27238C10.0527 3.34554 10.0844 3.43414 10.0672 3.53819C10.0521 3.62923 10.0019 3.72171 9.91646 3.81563C9.86389 3.87342 9.79286 3.9307 9.70337 3.98748ZM9.81572 3.44018C9.74685 3.37753 9.67036 3.39245 9.58625 3.48491C9.50609 3.57305 9.48228 3.66405 9.51484 3.75791C9.52608 3.79102 9.54657 3.82461 9.5763 3.85869C9.63468 3.83611 9.693 3.79279 9.75127 3.72874C9.86648 3.60207 9.88797 3.50589 9.81572 3.44018Z" fill="white"/>
</svg>
