<svg width="13" height="19" viewBox="0 0 13 19" fill="none" xmlns="http://www.w3.org/2000/svg">
<path d="M7.20412 8.99845C7.47793 8.67589 7.74986 8.35332 8.00866 8.06076C8.03141 8.04294 8.05798 8.03062 8.08628 8.02477C8.11459 8.01891 8.14386 8.01968 8.17182 8.027C9.36534 8.3846 10.3954 9.14988 11.0824 10.1893C11.8404 11.3235 12.1171 12.7122 11.8516 14.0503C11.5861 15.3884 10.8001 16.5663 9.66649 17.3251C9.55022 17.402 9.43207 17.4752 9.3083 17.5446C8.30004 18.1313 7.13511 18.3922 5.97291 18.2915C4.81072 18.1907 3.70803 17.7334 2.81573 16.9819C2.2885 16.5533 1.85619 16.0196 1.54625 15.4149C1.23631 14.8102 1.05552 14.1477 1.01536 13.4694C0.872835 11.4102 1.72613 9.81424 3.40085 8.65901C3.91489 8.31151 4.48629 8.05755 5.08869 7.90885C5.18434 7.89385 5.23122 7.89385 5.29686 7.97262C5.55379 8.29331 5.81259 8.60275 6.06952 8.91031C5.68964 8.98605 5.31404 9.08183 4.94429 9.19724C3.53025 9.75235 2.5663 10.7519 2.24936 12.2616C1.93805 13.8576 2.48941 15.1853 3.76092 16.1905C4.60484 16.8419 5.6555 17.1668 6.71979 17.1054C7.78407 17.0441 8.79046 16.6007 9.55397 15.8567C9.99216 15.4348 10.3271 14.9175 10.5327 14.345C10.7383 13.7725 10.809 13.1603 10.7393 12.556C10.6696 11.9517 10.4614 11.3717 10.1309 10.861C9.80042 10.3503 9.35654 9.9228 8.83383 9.6117C8.36472 9.31934 7.844 9.11946 7.29976 9.02283C7.28476 9.03783 7.26976 9.02283 7.20412 9.00783" fill="#242F46"/>
<path d="M5.64572 5.57227H7.63925C7.31668 6.68437 7.00162 7.76459 6.67343 8.84105H6.63967C6.3171 7.75146 5.97954 6.66749 5.64197 5.57227" fill="#586582"/>
<path d="M6.86467 8.71347C7.17036 7.69889 7.46104 6.68806 7.76298 5.68473C7.77985 5.63785 7.8605 5.55721 7.90926 5.55721C8.45687 5.5422 8.9876 5.55721 9.56709 5.55721C8.66878 6.62617 7.77985 7.68014 6.8928 8.7266C6.88108 8.72481 6.87041 8.71881 6.86279 8.70972" fill="#586582"/>
<path d="M3.79468 5.55534H5.50127C5.82196 6.58493 6.14453 7.63139 6.46522 8.66097L6.45022 8.67598C5.56316 7.64639 4.69486 6.61306 3.79655 5.55347" fill="#586582"/>
<path d="M5.64563 5.39598L6.66021 4.18823C6.9809 4.58956 7.31472 4.97027 7.62416 5.39598H5.64563Z" fill="#586582"/>
<path d="M5.45256 5.42207H3.81348C4.23169 5.03574 4.61801 4.67192 5.00622 4.31372C5.14875 4.63441 5.31003 5.02074 5.45631 5.42207" fill="#586582"/>
<path d="M8.39501 4.20508L9.539 5.39782H7.91492C8.07432 5.00962 8.2206 4.62329 8.39501 4.20508Z" fill="#586582"/>
<path d="M6.81409 4.1731H8.26188C8.10247 4.5763 7.94119 4.96263 7.77803 5.36396C7.44046 4.96076 7.13478 4.5763 6.81409 4.1731Z" fill="#586582"/>
<path d="M5.56322 5.29832C5.42069 4.91387 5.27441 4.54817 5.13 4.1731H6.51404C6.19147 4.54817 5.88578 4.91387 5.56322 5.29832Z" fill="#586582"/>
<path d="M9.21069 7.59935C9.53701 7.31992 10.0377 7.11551 10.214 6.69917C10.3641 6.3466 10.1596 5.84212 10.1315 5.41454L10.1821 5.29639C10.4616 5.62458 10.7147 6.00903 10.9942 6.33535C11.0279 6.41786 11.0861 6.44224 11.2192 6.43474C11.6468 6.40661 12.1007 6.32222 12.532 6.29409C12.4242 6.47583 12.2685 6.6244 12.0819 6.72355C11.5193 7.04799 11.3524 7.46058 11.5324 8.02131C11.5873 8.20685 11.5995 8.4024 11.568 8.59331C11.343 8.29137 11.0692 7.96505 10.8498 7.65562C10.8078 7.60309 10.7534 7.56174 10.6916 7.53525C10.6298 7.50875 10.5623 7.49792 10.4953 7.50371C10.0751 7.60482 9.64059 7.63336 9.21069 7.5881V7.59935Z" fill="#586582"/>
<path d="M0 6.30297C0.326316 6.02354 0.827043 5.81912 1.00333 5.40278C1.15336 5.05021 0.948943 4.54574 0.920812 4.11815L0.971447 4C1.25088 4.32819 1.50406 4.71264 1.78349 5.03896C1.81724 5.12148 1.87538 5.14586 2.00853 5.13836C2.43612 5.11023 2.88996 5.02583 3.3213 4.9977C3.21351 5.17944 3.0578 5.32802 2.87121 5.42716C2.30859 5.75161 2.14168 6.16419 2.32172 6.72493C2.37658 6.91046 2.38876 7.10601 2.35735 7.29692C2.13231 6.99498 1.8585 6.66867 1.63908 6.35923C1.59706 6.3067 1.54272 6.26536 1.48089 6.23886C1.41907 6.21236 1.35165 6.20153 1.28464 6.20732C0.864359 6.30843 0.429893 6.33697 0 6.29172V6.30297Z" fill="#586582"/>
<path d="M5 1.40023C5.19584 1.23033 5.49747 1.10604 5.60214 0.852908C5.69218 0.63854 5.5695 0.331813 5.55262 0.0706955L5.58301 0C5.7507 0.198404 5.90264 0.432155 6.07034 0.631699C6.0906 0.68187 6.12549 0.697833 6.21216 0.692132C6.46877 0.675029 6.74114 0.622577 7 0.605473C6.93601 0.717112 6.84244 0.808359 6.72988 0.868871C6.39786 1.06385 6.29207 1.31585 6.40011 1.65792C6.4307 1.76925 6.43684 1.88601 6.41812 2C6.28306 1.81756 6.11874 1.61688 5.98706 1.42987C5.9616 1.39835 5.92888 1.37365 5.89179 1.35795C5.8547 1.34224 5.81437 1.336 5.77434 1.33979C5.52303 1.4073 5.26105 1.42396 5.00338 1.38883L5 1.40023Z" fill="#586582"/>
</svg>
