<svg width="83" height="100" viewBox="0 0 83 100" fill="none" xmlns="http://www.w3.org/2000/svg">
<path fill-rule="evenodd" clip-rule="evenodd" d="M77.1432 88.029C77.2305 88.2178 77.3318 88.4661 77.4349 88.7592C77.3462 88.5144 77.2488 88.271 77.1432 88.029ZM77.4349 88.7592C77.7254 89.561 77.9228 90.3768 78.0131 91.2011C77.8996 90.2738 77.6628 89.4071 77.4349 88.7592ZM78.0131 91.2011C78.1017 91.9253 78.1152 92.6864 77.9906 93.4091C78.0888 92.669 78.093 91.9318 78.0131 91.2011Z" fill="#D9D9D9"/>
<path d="M60.035 82.6914L68.3836 78.8128C66.9017 77.8851 65.3429 77.0781 63.7784 76.4201L54.9395 79.65L60.035 82.6914Z" fill="#277B48"/>
<path d="M64.4835 85.3467L73.6587 83.0236C72.1403 81.4551 70.3282 80.0301 68.3836 78.8128L60.035 82.6914L64.4835 85.3467Z" fill="#0C9442"/>
<path d="M70.2261 88.7744L77.1432 88.029C76.3716 86.2617 75.1584 84.5727 73.6587 83.0236L64.4835 85.3467L70.2261 88.7744Z" fill="#3AB54A"/>
<path d="M70.2261 88.7744L77.9906 93.4091C78.0888 92.669 78.093 91.9318 78.0131 91.2011C77.8996 90.2738 77.6628 89.4071 77.4349 88.7592C77.3462 88.5144 77.2488 88.271 77.1432 88.029L70.2261 88.7744Z" fill="#D8DF20"/>
<path d="M77.9906 93.4091L70.2261 88.7744L73.0493 94.8876C74.8571 94.7734 76.5396 94.3076 77.9906 93.4091Z" fill="#8CC63E"/>
<path d="M73.0493 94.8876L70.2261 88.7744L64.4835 85.3467L67.0096 94.1631C69.0793 94.7349 71.1346 95.0085 73.0493 94.8876Z" fill="#379F45"/>
<path d="M67.0096 94.1631L64.4835 85.3467L60.035 82.6914L60.7616 91.5822C62.7699 92.6851 64.8972 93.5794 67.0096 94.1631Z" fill="#088238"/>
<path d="M60.7616 91.5822L60.035 82.6914L54.9395 79.65L56.4274 88.7355C57.7628 89.7757 59.2274 90.7398 60.7616 91.5822Z" fill="#23643C"/>
<path d="M49.844 76.6085L54.9395 79.65L63.7784 76.4201C58.0309 74.0025 52.2074 73.596 49.844 76.6085Z" fill="#22663D"/>
<path d="M54.9395 79.65L49.844 76.6085C48.4515 80.2054 51.592 84.9691 56.4274 88.7355L54.9395 79.65Z" fill="#073C1C"/>
<path fill-rule="evenodd" clip-rule="evenodd" d="M74.106 48.3574C74.3136 48.3696 74.5804 48.3975 74.8874 48.445C74.6298 48.4076 74.3692 48.3785 74.106 48.3574ZM74.8874 48.445C75.7314 48.5673 76.5438 48.7784 77.3131 49.088C76.442 48.7503 75.5661 48.5498 74.8874 48.445ZM77.3131 49.088C77.9933 49.3517 78.6706 49.6991 79.2489 50.15C78.6429 49.7141 77.9949 49.3624 77.3131 49.088Z" fill="#D9D9D9"/>
<path d="M61.3247 60.9199L61.8463 51.7292C60.329 52.5977 58.8817 53.5909 57.563 54.6595L56.2381 63.9763L61.3247 60.9199Z" fill="#277B48"/>
<path d="M65.7654 58.2517L68.0485 49.0665C65.949 49.6647 63.8374 50.5895 61.8463 51.7292L61.3247 60.9199L65.7654 58.2517Z" fill="#0C9442"/>
<path d="M71.4979 54.8073L74.106 48.3574C72.1838 48.2034 70.122 48.4756 68.0485 49.0665L65.7654 58.2517L71.4979 54.8073Z" fill="#3AB54A"/>
<path d="M71.4979 54.8073L79.2489 50.15C78.6429 49.7141 77.9949 49.3624 77.3131 49.088C76.442 48.7503 75.5661 48.5498 74.8874 48.445C74.6298 48.4076 74.3692 48.3785 74.106 48.3574L71.4979 54.8073Z" fill="#D8DF20"/>
<path d="M79.2489 50.15L71.4979 54.8073L78.2198 55.2041C78.9725 53.5564 79.3561 51.8533 79.2489 50.15Z" fill="#8CC63E"/>
<path d="M78.2198 55.2041L71.4979 54.8073L65.7654 58.2517L74.7301 60.1865C76.2112 58.6319 77.4226 56.9491 78.2198 55.2041Z" fill="#379F45"/>
<path d="M74.7301 60.1865L65.7654 58.2517L61.3247 60.9199L69.5055 64.4763C71.4258 63.2265 73.2184 61.7732 74.7301 60.1865Z" fill="#088238"/>
<path d="M69.5055 64.4763L61.3247 60.9199L56.2381 63.9763L64.95 66.9534C66.4973 66.2672 68.0386 65.4311 69.5055 64.4763Z" fill="#23643C"/>
<path d="M51.1515 67.0326L56.2381 63.9763L57.563 54.6595C52.7187 58.5851 49.6113 63.5271 51.1515 67.0326Z" fill="#22663D"/>
<path d="M56.2381 63.9763L51.1515 67.0326C53.6651 69.9581 59.3471 69.4383 64.95 66.9534L56.2381 63.9763Z" fill="#073C1C"/>
<path d="M40.387 74.4324L51.6762 67.4363L51.1992 67.1183L50.8812 66.3232L40.387 73.1604V74.4324Z" fill="#4D4D4D"/>
<path d="M40.705 70.2986V69.0265L45.4751 72.5246L50.4043 76.0227L49.7682 76.4997L49.6092 77.1357L40.705 70.2986Z" fill="#4D4D4D"/>
<path d="M1.13315 37.5517C1.47161 37.8192 0.739431 38.4191 0.609177 38.7122C0.404916 39.1592 0.668383 39.6328 1.05224 39.8766C1.62654 40.2427 2.36562 40.1469 3.01887 40.1223C3.04748 40.1844 3.08004 40.2456 3.11557 40.3068C2.72876 40.5456 2.33109 40.7824 2.1515 41.2245C1.89494 41.8718 2.02519 42.5152 2.59949 42.9395C3.15504 43.352 3.90498 43.4072 4.57401 43.3974C4.6273 43.3954 4.67861 43.3895 4.73189 43.3776C4.57401 43.6283 4.48224 43.9253 4.46349 44.3239C4.43685 44.8568 4.61842 45.664 5.27659 45.7468C5.66636 45.7932 6.12324 45.6738 6.51597 45.4607C6.50117 45.5584 6.49525 45.6501 6.50117 45.7222C6.52584 46.0143 6.63241 46.2323 6.79621 46.4267C6.33342 46.5481 5.93674 46.7958 5.90417 47.2477C5.88937 47.4865 5.93871 47.7006 6.08673 47.8921C6.31566 48.1911 6.40447 48.2187 6.25744 48.5818C6.05811 49.0634 6.4469 49.2943 6.88996 49.3347C7.07646 49.3505 7.25605 49.2736 7.409 49.1719C7.41985 49.165 7.43367 49.1522 7.44649 49.1443C7.47511 49.164 7.50669 49.1808 7.53728 49.1986C7.52149 49.2213 7.5057 49.242 7.49583 49.2538C7.22151 49.54 7.02514 49.8814 7.35374 50.21C7.72279 50.58 8.52207 50.5573 9.11216 50.3324C9.11117 50.6422 9.13485 50.9382 9.57199 50.9826C9.79401 51.0034 10.0604 50.959 10.2529 50.8346C10.464 50.9274 10.6959 50.9807 10.8943 50.9905C11.1548 51.0043 11.4321 50.9521 11.6186 50.7547C11.7212 50.6452 11.7962 50.5238 11.88 50.4014C12.0073 50.2189 11.9156 50.1972 12.0912 50.3185C12.1672 50.3699 12.2945 50.3975 12.3922 50.3639C12.3744 50.4814 12.3478 50.6975 12.3458 50.6906C12.3507 50.8909 12.3724 51.0675 12.5017 51.2244C12.5372 51.2698 12.6724 51.4069 12.7997 51.5125C12.6852 51.929 12.8116 52.4065 13.2339 52.6305C13.2536 52.6414 13.2743 52.6503 13.2951 52.6601C13.2941 52.6601 13.2941 52.6601 13.2931 52.6601C13.303 52.6651 13.3138 52.669 13.3247 52.674C13.3582 52.6907 13.3918 52.7055 13.4253 52.7184C13.446 52.7263 13.4678 52.7322 13.4885 52.7381C13.5181 52.747 13.5497 52.7569 13.5793 52.7628C13.6118 52.7687 13.6464 52.7677 13.6809 52.7687C13.7016 52.7687 13.7204 52.7726 13.7401 52.7707C13.7963 52.7657 13.8526 52.7529 13.9118 52.7292C14.0194 52.6848 14.0904 52.6049 14.1871 52.5407C14.1999 52.5329 14.2118 52.5279 14.2256 52.521C14.4525 52.9828 15.089 53.2927 15.5814 53.0598C15.7857 52.9631 15.8883 52.8437 15.9761 52.6384C16.0294 52.524 15.9603 52.1569 16.1528 52.3049C16.3471 52.4549 16.5909 52.6187 16.8494 52.6325C16.883 52.6848 16.8987 52.7371 16.8573 52.7934C16.7586 52.9384 16.6797 53.0716 16.6442 53.2453C16.4448 54.1521 17.6013 54.5834 18.4026 54.5311C18.4865 54.5636 18.5782 54.5824 18.6641 54.5774C18.7381 54.6278 18.819 54.6712 18.9039 54.7107C19.0992 55.0264 19.5344 55.2218 19.9005 55.2178C19.9025 55.2178 19.9044 55.2178 19.9064 55.2178C20.1847 55.3826 20.6781 55.4063 20.8843 55.3846C21.2958 55.3392 21.3826 54.984 21.579 54.687C21.7645 54.8754 21.8957 55.1438 22.1326 55.2741C22.1829 55.3007 22.2362 55.3224 22.2895 55.3372C22.3378 55.4488 22.3921 55.5553 22.4572 55.6589C22.4592 55.656 22.4631 55.653 22.4641 55.6501C22.4848 55.6806 22.4967 55.7162 22.5184 55.7458C22.6062 55.8632 22.7611 55.9747 22.9092 55.9875C23.0059 55.9935 23.0897 55.9856 23.1815 55.9717C23.4321 55.9333 23.5742 56.0467 23.7144 56.2401C23.9285 56.5391 23.7153 56.8115 24.1831 56.8628C24.6913 56.9171 25.0445 56.3743 25.235 55.9875C25.3317 55.7912 25.5645 55.8612 25.7639 55.876C25.9879 55.8898 26.2109 55.9224 26.4319 55.9234C26.7852 55.9283 27.0595 55.7843 27.2421 55.4803C27.3309 55.3343 27.3743 55.1734 27.4059 55.0096C27.6101 55.0531 27.8104 55.0698 27.9871 55.0353C28.0838 55.0165 28.1647 54.986 28.2357 54.9475C28.2643 54.9327 28.2851 54.911 28.3097 54.8922C28.3462 54.8656 28.3847 54.8389 28.4133 54.8074C28.436 54.7817 28.4518 54.7521 28.4706 54.7235C28.4913 54.6909 28.513 54.6584 28.5298 54.6218C28.5446 54.5893 28.5535 54.5538 28.5643 54.5182C28.5752 54.4807 28.586 54.4432 28.5939 54.4038C28.6008 54.3653 28.6048 54.3258 28.6087 54.2854C28.6127 54.2439 28.6156 54.2035 28.6156 54.162C28.6156 54.1196 28.6156 54.0762 28.6137 54.0318C28.6117 53.9903 28.6097 53.9508 28.6058 53.9094C28.6008 53.861 28.5969 53.8137 28.59 53.7653C28.585 53.7308 28.5811 53.6963 28.5752 53.6627C28.5663 53.6025 28.5564 53.5443 28.5456 53.4851C28.5456 53.4841 28.5456 53.4821 28.5446 53.4801C28.5347 53.4259 28.5239 53.3716 28.514 53.3193C28.7725 53.3381 29.0301 53.3805 29.2965 53.3193C29.3064 53.3173 29.3103 53.3104 29.3202 53.3084C29.3863 53.3825 29.4603 53.4496 29.5639 53.4871C29.7514 53.5522 29.9458 53.4535 30.1402 53.5246C30.3208 53.5887 30.3918 53.7407 30.5063 53.8749C30.6908 54.1008 30.9533 54.0801 31.1931 53.9775C31.3273 54.1788 31.4625 54.387 31.6046 54.5784C32.0772 55.2208 32.4206 55.7655 32.688 56.2934C33.358 57.6088 33.8297 58.9577 34.0912 60.3046C34.3784 61.7789 34.5047 63.1998 34.4741 64.5201C34.4593 64.979 34.4287 65.4566 34.3981 65.9164C34.3409 66.7581 34.2817 67.6255 34.3389 68.4662C34.184 68.928 34.0616 80.7742 33.9491 81.3998C33.9392 81.456 33.9274 81.5113 33.9175 81.5675L33.9037 81.6672L33.8623 81.7432C33.7222 82.0234 33.5889 82.2898 33.4676 82.5523C33.1123 83.319 32.8222 84.1252 32.542 84.9038C32.3338 85.483 32.1196 86.083 31.8739 86.6652C31.5513 87.4378 31.122 88.1532 30.7046 88.842C30.5171 89.1568 30.3208 89.4824 30.1353 89.811C29.9754 90.0962 29.8205 90.3794 29.7011 90.5984C29.2077 90.6734 28.738 90.7987 28.2653 90.9803C27.8025 91.1619 27.3634 91.2428 26.8375 91.2428C26.5138 91.2428 26.1862 91.2122 25.907 91.1806L25.8191 91.1707C25.532 91.1402 25.2577 91.1086 24.9893 91.1086C24.5699 91.1086 24.2255 91.1865 23.9058 91.3543C23.5782 91.3257 23.291 91.3385 23.0068 91.3977C22.6033 91.4796 22.2441 91.678 21.9658 91.973C21.7043 92.2453 21.5987 92.5641 21.4931 92.9015C21.4675 92.9765 21.4428 93.0535 21.4152 93.1305C21.3994 93.1749 21.4063 93.2203 21.432 93.2578C21.4596 93.2963 21.507 93.3199 21.5514 93.3199C21.6056 93.3199 21.649 93.2903 21.6727 93.239C21.9303 92.6548 22.4177 92.3578 23.1253 92.3578C23.4923 92.3578 23.9275 92.4427 24.3725 92.6016C24.4544 92.6312 24.5314 92.6608 24.6103 92.6884C24.9419 92.8088 25.2853 92.9341 25.6336 93.017C25.9504 93.1936 26.3352 93.2736 26.6835 93.3416C26.9825 93.4275 27.2865 93.4808 27.5963 93.4887C27.7907 93.5094 27.9811 93.5272 28.1637 93.5331C27.3693 93.9347 26.8168 94.5445 26.4813 95.3961C26.4487 95.4494 26.4151 95.5007 26.3855 95.5609C26.348 95.623 26.3559 95.6763 26.3688 95.7089L26.3628 95.7286C26.3411 95.8036 26.3559 95.8865 26.4053 95.9546C26.4536 96.0168 26.5247 96.0572 26.5908 96.0572C26.6381 96.0572 26.7052 96.0405 26.7605 95.9605C26.9687 95.6615 27.2124 95.3981 27.4799 95.18C27.8262 94.9738 28.1627 94.8632 28.51 94.8366C28.5189 94.8366 28.5288 94.8366 28.5367 94.8356C28.7252 94.8415 28.9057 94.8514 29.0577 94.8544C29.1218 94.8553 29.188 94.8455 29.2531 94.8455C29.3932 94.8524 29.5343 94.8553 29.6725 94.8652C29.8451 94.879 30.0247 94.8919 30.2024 94.8988C30.3731 94.9067 30.5201 94.884 30.6829 94.882C30.8329 94.9442 31.0224 94.9382 31.1783 94.8701C31.2158 94.8682 31.2483 94.8642 31.2848 94.8613C31.2996 94.8603 31.3164 94.8613 31.3312 94.8603C31.3184 94.8701 31.3095 94.88 31.2967 94.8889C31.2444 94.9254 31.2799 94.9974 31.3332 94.9994C31.3431 95.0182 31.3569 95.031 31.3835 95.0349C31.7121 95.0912 32.0062 94.9343 32.1907 94.6935C32.1976 94.6915 32.2065 94.6896 32.2134 94.6876C32.2292 94.7123 32.2558 94.7281 32.2904 94.7113C32.3259 94.6955 32.3525 94.6718 32.3831 94.6501C32.4482 94.6313 32.5193 94.6274 32.5834 94.6057C32.8489 94.6846 33.1153 94.7211 33.3768 94.729C33.3768 94.7429 33.3728 94.7577 33.3886 94.7695C33.4853 94.8257 33.5998 94.8317 33.7113 94.804C33.7202 94.8149 33.732 94.8238 33.7458 94.8277C33.9511 94.8869 34.1396 94.806 34.2856 94.6767C34.4287 94.6461 34.5431 94.5978 34.629 94.5366C34.8629 94.5267 35.0977 94.437 35.297 94.2929C35.3227 94.3136 35.3562 94.3235 35.3928 94.3106C35.4924 94.2731 35.595 94.2356 35.6947 94.1873C35.7658 94.1656 35.8269 94.133 35.8822 94.0906C35.9759 94.0383 36.0608 93.9791 36.1437 93.913C36.3183 93.9248 36.4368 93.8666 36.5256 93.7738C36.9884 93.6505 37.4531 93.4709 37.909 93.2341C37.9741 93.1995 38.0255 93.169 38.0866 93.1344C38.1922 93.1068 38.2968 93.0752 38.4034 93.0752C38.5159 93.0752 38.6195 93.0969 38.7241 93.1196C38.9412 93.2242 39.1642 93.3199 39.4099 93.3979C40.1273 93.6258 40.8743 93.6623 41.5985 93.6939C42.008 93.7127 42.4324 93.7285 42.8468 93.7867C43.4349 93.8646 43.9224 93.9445 44.398 94.2258C44.6921 94.4014 45.0493 94.6027 45.44 94.7596C45.5249 94.7942 45.6403 94.7419 45.6788 94.655C45.6986 94.6106 45.6798 94.5662 45.6551 94.5258C45.7736 94.6017 45.8989 94.6698 46.04 94.7113C46.0706 94.7192 46.0913 94.6767 46.0607 94.66C45.9068 94.5731 45.7726 94.4735 45.6463 94.3639C45.9068 94.4606 46.1732 94.5415 46.4495 94.586C46.5087 94.5988 46.5205 94.5139 46.4623 94.4971C46.1692 94.4241 45.9008 94.3156 45.6463 94.1873C45.667 94.137 45.6591 94.0719 45.6186 94.0324C45.3917 93.8183 45.066 93.5054 44.694 93.1877C44.6881 93.1759 44.6812 93.165 44.6753 93.1522C44.6703 93.1413 44.6644 93.1315 44.6595 93.1216C44.6812 93.092 44.6901 93.0535 44.6644 93.013C44.6417 92.9765 44.6062 92.9509 44.5806 92.9173C44.695 92.9371 44.8095 92.9558 44.9249 92.9726C45.3848 93.0427 45.8574 93.1166 46.3163 93.2163C46.7593 93.311 47.1836 93.461 47.5932 93.6071C47.8566 93.6998 48.127 93.7936 48.4013 93.8765C48.8286 94.0038 49.2924 94.1212 49.7828 94.1212C49.8815 94.1212 49.9811 94.1172 50.0778 94.1054C50.3828 94.0768 50.6886 94.0166 50.9807 93.9584C51.112 93.9347 51.2452 93.909 51.3764 93.8844C51.7376 93.9682 52.077 94.1281 52.4076 94.283C52.7224 94.4271 53.048 94.582 53.3944 94.6708C53.4309 94.6787 53.4684 94.66 53.4792 94.6244C53.493 94.5899 53.4861 94.5524 53.4585 94.5307L53.4565 94.5287C53.4565 94.4971 53.4437 94.4695 53.4131 94.4518C53.2276 94.3284 53.0677 94.1764 52.9138 94.0196C52.7766 93.8459 52.6365 93.6722 52.4826 93.5163C52.2981 93.2962 52.0997 93.0959 51.8659 92.9558C51.7287 92.8443 51.5777 92.7516 51.3971 92.7012C51.1465 92.6322 50.7844 92.5779 50.4933 92.6302C50.29 92.5631 50.069 92.5276 49.8479 92.5108C49.7552 92.4891 49.6654 92.4545 49.5756 92.4259C49.4483 92.0174 48.9046 91.603 48.6381 91.4135C48.6263 91.4046 48.6135 91.3967 48.6006 91.3898C48.5661 91.3464 48.5316 91.305 48.496 91.2606C48.501 91.228 48.4961 91.1925 48.4645 91.1609C48.4507 91.1481 48.4339 91.1372 48.4211 91.1214C48.3017 90.9418 48.1161 90.7741 47.9148 90.626C47.8882 90.6004 47.8606 90.5767 47.8349 90.5511C47.8329 90.5264 47.828 90.5007 47.8073 90.4771C47.6208 90.2491 47.3701 90.0705 47.0919 89.9363C46.933 89.8386 46.7603 89.7488 46.5679 89.6866C46.5304 89.6748 46.487 89.6659 46.4475 89.6561C46.3518 89.5722 46.2581 89.4893 46.1574 89.4104C46.0834 89.3413 46.0045 89.2821 45.9226 89.2298C45.9078 89.2189 45.893 89.2071 45.8791 89.1962C45.6847 88.8913 45.4223 88.6269 45.1489 88.3979C44.5421 87.7082 43.9589 87.0036 43.4951 86.1797C42.9494 85.2048 42.5675 84.2032 42.2676 83.1562C41.8906 80.8985 41.7791 68.8323 41.789 67.285C41.7919 66.3979 41.8225 65.5089 41.8373 64.6208C41.8472 63.9942 41.8936 63.3084 41.7762 62.6857C41.8729 61.5065 41.8383 60.3115 41.7426 59.1284C41.6597 58.1525 41.5571 57.1786 41.3005 56.2303C41.2709 56.1267 41.2423 56.0191 41.2147 55.9116C41.0242 54.6238 40.9048 53.3134 41.5235 52.2635C41.5916 52.3592 41.6479 52.4727 41.7021 52.5625C41.8137 52.742 41.9686 52.8536 42.1906 52.8388C42.5922 52.8151 42.754 52.5121 43.0195 52.2714C43.1083 52.1904 43.2129 52.1608 43.3224 52.15C43.1172 52.1944 42.9692 52.3365 42.8498 52.5033C42.7698 52.6138 42.7402 52.7578 42.7067 52.8881C42.6692 53.0282 42.4847 53.1289 42.387 53.2266C42.0505 53.5709 42.1728 54.013 42.5942 54.1916C42.8715 54.3071 43.202 54.3268 43.5168 54.315C43.3649 54.4995 43.1586 54.6643 43.2563 54.9455C43.3619 55.2474 43.7211 55.3057 44.023 55.3195C44.0882 55.5711 44.2391 55.8158 44.5519 55.7635C44.7828 55.7221 44.9733 55.6047 45.1766 55.5011C45.1854 55.5455 45.1963 55.5928 45.2062 55.6392L45.2052 55.6402C45.2101 55.6629 45.217 55.6866 45.2219 55.7093C45.2239 55.7181 45.2259 55.728 45.2289 55.7369C45.2427 55.7971 45.2585 55.8553 45.2752 55.9135C45.2812 55.9352 45.2881 55.9569 45.295 55.9786C45.3108 56.026 45.3275 56.0744 45.3453 56.1217C45.3552 56.1464 45.365 56.1711 45.3749 56.1947C45.3927 56.2372 45.4134 56.2767 45.4351 56.3151C45.4489 56.3398 45.4617 56.3645 45.4765 56.3862C45.4992 56.4207 45.5239 56.4513 45.5496 56.4819C45.5673 56.5026 45.5841 56.5243 45.6028 56.5421C45.6305 56.5687 45.663 56.5885 45.6946 56.6102C45.7163 56.625 45.7361 56.6408 45.7597 56.6526C45.7962 56.6704 45.8377 56.6783 45.8782 56.6881C45.9028 56.694 45.9245 56.7039 45.9512 56.7069C46.0212 56.7138 46.0962 56.7108 46.1801 56.6941C46.7208 56.5796 47.3188 55.9412 47.4136 55.3353C47.6109 55.2672 47.7806 55.1804 47.9287 55.0738C47.9296 55.0718 47.9316 55.0738 47.9316 55.0738C48.049 55.0688 48.1694 55.0501 48.2859 55.0136C48.4655 55.2267 48.6964 55.3481 49.0052 55.2455C49.4453 55.1014 49.8134 54.7708 50.142 54.4561C50.3245 54.2814 50.5199 54.1354 50.7074 53.9814C50.958 54.1038 51.2422 54.1719 51.5146 54.1887C51.5649 54.1926 51.6152 54.1926 51.6606 54.1926C51.9961 54.2913 52.376 54.2745 52.6878 54.1472C52.9799 54.0278 53.2631 53.7268 53.3085 53.4091C53.3638 53.3509 53.4141 53.2867 53.4555 53.2236C53.5266 53.1999 53.5947 53.1555 53.648 53.1002C54.3042 52.8763 55.0788 52.147 54.614 51.4889C54.5252 51.3645 54.4186 51.2816 54.2913 51.2007C54.2381 51.1701 54.2331 51.1198 54.243 51.0685C54.4443 50.9718 54.5815 50.7616 54.686 50.5761C54.7916 50.3926 54.8587 50.7083 54.9406 50.7833C55.0817 50.9165 55.2021 50.9777 55.3975 50.9896C55.8682 51.0093 56.2718 50.5534 56.2955 50.1064C56.3083 50.1074 56.3201 50.1074 56.333 50.1103C56.4336 50.1281 56.5165 50.1676 56.6162 50.1676C56.7257 50.1666 56.8145 50.133 56.8934 50.0807C56.9329 50.0561 56.9665 50.0176 57.001 49.983C57.0286 49.9564 57.0612 49.9367 57.0869 49.9051C57.0849 49.9051 57.0829 49.9051 57.0809 49.9051C57.0947 49.8903 57.1096 49.8804 57.1224 49.8646C57.3839 49.5449 57.3227 49.1236 57.0888 48.8285C57.1549 48.7022 57.2181 48.5463 57.2309 48.4999C57.2812 48.3302 57.2359 48.1812 57.1757 48.0233C57.1757 48.0273 57.0809 47.8645 57.0276 47.7766C57.1155 47.7707 57.2082 47.7036 57.2497 47.6375C57.3493 47.4826 57.2852 47.5299 57.449 47.6355C57.5585 47.7036 57.6572 47.7766 57.7776 47.827C57.9937 47.9256 58.2315 47.8763 58.4348 47.7776C58.5867 47.7016 58.7584 47.5822 58.8946 47.4362C59.089 47.4747 59.3169 47.4194 59.4886 47.3296C59.8202 47.149 59.7403 46.9043 59.6327 46.6586C60.1794 46.6409 60.8247 46.3912 60.9944 45.9758C61.1454 45.6057 60.8731 45.3975 60.5563 45.2604C60.4991 45.2357 60.3175 45.0966 60.2633 45.1094C60.358 45.0897 60.5011 45.1508 60.5948 45.1676C60.7537 45.1972 60.9224 45.2012 61.0675 45.1252C61.4059 44.9436 61.6368 44.6318 61.3161 44.3121C61.0724 44.0733 61.1365 44.023 61.2175 43.7092C61.2214 43.6914 61.2175 43.6756 61.2204 43.6588C61.773 43.8779 62.2763 44.2568 62.9078 44.3397C63.3232 44.395 63.7712 44.2272 64.161 44.1019C64.6534 43.943 64.6741 44.2114 65.053 44.4187C65.4852 44.6535 65.877 44.3654 66.173 44.0042C66.7315 44.0161 67.1923 43.2651 67.4065 42.8813C67.7143 42.3307 67.8564 41.6537 67.7084 41.0459C68.5215 40.2505 68.4801 39.2401 68.0469 38.1527C67.8337 37.6169 67.6038 37.2133 67.07 36.9626C67.0295 36.9439 67.0128 36.9123 67.0029 36.8778C66.9989 36.864 66.997 36.8492 66.997 36.8344C66.995 36.5176 67.7617 35.8081 67.8633 35.5792C68.0686 35.1105 67.8939 34.5747 67.7143 34.1326C67.4775 33.5632 67.3157 33.0432 67.2032 32.4373C67.0305 31.495 66.4 31.2374 65.6332 31.4071C65.4773 30.6532 66.2411 29.9822 66.1799 29.1672C66.1256 28.4083 65.6678 27.7995 65.1211 27.2992C64.308 26.5512 63.3252 26.5976 62.7529 27.2499C62.7292 27.2193 62.7065 27.1897 62.6838 27.1591C62.7706 26.9834 62.7223 26.7743 62.5792 26.647C61.9822 26.0963 61.0191 25.6345 60.1981 25.9039C60.1172 25.9306 60.0343 25.9789 59.9505 26.0342C59.9347 26.044 59.9189 26.0539 59.9021 26.0648C59.8419 26.1062 59.7807 26.1496 59.7195 26.194C59.7186 26.195 59.7166 26.196 59.7156 26.197C59.6939 26.2138 59.6712 26.2276 59.6495 26.2434C59.6337 26.2542 59.6179 26.2611 59.6031 26.271C59.6584 25.9355 59.61 25.5931 59.4196 25.302C59.5883 25.1599 59.7284 24.9408 59.6002 24.7297C59.5962 24.7237 59.5913 24.7188 59.5873 24.7129C59.8251 24.256 59.8528 23.7034 59.5518 23.2702C59.4551 23.1311 59.313 23.0176 59.1709 22.9032C59.2153 22.6446 59.1502 22.3466 59.0229 22.0585C59.0515 21.8957 59.0407 21.725 59.012 21.5513C59.1087 21.4516 59.2025 21.35 59.2538 21.2355C59.5301 20.6247 58.8739 19.556 58.3371 19.2689C57.6582 18.9087 56.929 19.0587 56.258 19.3636C56.2303 19.3745 56.2047 19.3893 56.177 19.4031C56.1455 19.3804 56.103 19.3498 56.0498 19.3094C55.7518 19.0784 55.5278 18.7725 55.1982 18.5712C54.7897 18.3226 53.9381 18.1341 53.5236 18.5357C53.3677 18.4597 53.2049 18.3926 53.0312 18.3364C52.7243 18.2348 52.4096 18.1617 52.1037 18.0512C52.0691 18.0394 51.9843 17.9713 51.8925 17.8864C51.8747 17.7907 51.8461 17.7029 51.8047 17.623C51.9014 17.5154 51.9961 17.4069 52.0869 17.2954C52.9957 17.3082 53.8364 17.8223 54.613 16.8829C54.7206 16.7536 54.7936 16.6174 54.8518 16.4803C54.8627 16.4536 54.8755 16.427 54.8854 16.4004C54.9327 16.2671 54.9614 16.132 54.9702 15.9948C54.9722 15.9682 54.9702 15.9415 54.9712 15.9149C54.9732 15.7836 54.9643 15.6504 54.9377 15.5182C54.9357 15.5054 54.9347 15.4915 54.9327 15.4787C54.9031 15.3376 54.8558 15.1975 54.8015 15.0593C54.7887 15.0278 54.7768 14.9962 54.763 14.9646C54.7107 14.8432 54.6535 14.7229 54.5884 14.6054C54.5884 14.6064 54.5864 14.6074 54.5864 14.6084C54.319 14.1288 53.9608 13.6838 53.647 13.3364C53.2365 12.8815 52.7273 12.6329 52.1165 12.6566C51.8866 12.6645 51.6754 12.7266 51.4702 12.8026C51.4189 12.6862 51.3547 12.5766 51.2817 12.478C51.1386 12.2786 50.9136 12.1178 50.6896 11.953C51.0113 11.9569 51.332 11.9185 51.6675 11.728C52.379 11.3185 52.7105 10.3544 52.6336 9.57982C52.5783 9.02821 52.4115 8.17565 51.8126 7.95264C51.258 7.74443 50.8722 8.06907 50.6314 8.50523C50.3028 8.47365 49.9703 8.46082 49.6397 8.42332C49.3141 7.29939 48.6214 6.96093 47.3721 7.08329C46.636 7.15335 46.3133 6.84943 45.8624 6.30177C45.6255 6.01758 45.7213 5.94456 45.893 5.61794C46.0962 5.23014 46.1367 4.90648 46.0834 4.47724C45.9561 3.44804 44.4838 2.556 43.5267 2.64382C42.8932 2.70204 42.4087 3.26253 41.9636 3.6523C41.79 3.79538 41.6094 3.92958 41.4229 4.05589C41.3282 4.12397 41.2926 4.16345 41.2798 4.18318C41.2828 4.16641 41.2847 4.13483 41.2542 4.08549C41.1269 3.87136 41.0154 3.65427 40.893 3.44113C40.965 2.96255 40.7795 2.53824 40.0799 2.38332C39.626 2.28464 39.1504 2.31819 38.6895 2.35273C38.5889 2.35766 38.4853 2.36457 38.3836 2.37147C38.583 2.26786 38.7833 2.16425 38.9461 1.98269C39.3221 1.56331 38.878 1.12716 38.5267 0.918952C37.2064 0.142365 35.3908 0.0140851 34.3557 1.33734C33.9077 1.90769 33.5564 2.72079 33.6333 3.45988C33.6906 3.99866 33.5317 3.85261 33.0383 3.77861C32.7127 3.72729 32.3614 3.69868 32.0446 3.80426C31.3579 4.02924 30.7086 4.6065 30.3948 5.24889C29.9823 6.08271 30.5734 6.71128 30.4125 7.54609C30.1866 8.73514 28.6896 8.17071 27.8736 8.02763C27.0348 7.88159 26.1063 7.91218 25.5024 8.49733C25.1205 8.44306 24.7623 8.42826 24.4219 8.45391C24.3607 8.42727 24.3044 8.39668 24.2383 8.37399C23.5614 8.15492 22.9397 8.18847 22.3072 8.49733C21.7379 8.77363 21.2612 9.52357 21.1596 10.1442C21.0994 10.2054 21.0373 10.2597 20.978 10.3258C20.7096 10.6218 20.5537 10.9021 20.4768 11.1685C20.2133 11.4083 19.9597 11.6599 19.9074 12.0161C19.8669 12.2974 19.8442 12.5233 20.0446 12.7542C20.2814 13.0256 20.8616 13.4549 20.1728 13.4983C19.567 13.5377 18.968 13.3473 18.3572 13.4253C17.2204 13.5743 16.5938 14.9607 17.7099 15.5557C17.8273 15.6179 17.9674 15.6771 18.0898 15.7501C17.474 16.2129 17.2846 17.0714 17.9349 17.5973C17.6378 17.9516 17.2984 18.2131 16.8267 18.0266C16.1754 17.772 16.0807 17.0477 15.389 16.8503C14.7604 16.6717 14.2088 17.1355 13.8782 17.6032C13.6858 17.8756 13.599 18.217 13.4964 18.5298C13.4766 18.588 13.4697 18.666 13.4658 18.7499C13.4559 18.9393 13.4638 19.1673 13.4164 19.3478C13.4155 19.3538 13.4145 19.3617 13.4125 19.3686C13.3908 19.4455 13.3513 19.5057 13.299 19.5531C13.2734 19.5758 13.2467 19.5995 13.2102 19.6123C13.2072 19.6133 13.2033 19.6143 13.2003 19.6152C13.15 19.632 13.0888 19.6379 13.0148 19.631C12.9566 19.6251 12.9013 19.6162 12.8461 19.6083C12.6941 19.5856 12.5501 19.557 12.4109 19.5353C12.3853 19.5314 12.3576 19.5264 12.332 19.5235C12.2915 19.5176 12.2521 19.5146 12.2136 19.5116C12.184 19.5087 12.1544 19.5057 12.1257 19.5047C12.0892 19.5037 12.0517 19.5047 12.0152 19.5067C11.9856 19.5077 11.956 19.5077 11.9274 19.5107C11.8899 19.5156 11.8514 19.5255 11.8139 19.5333C11.7863 19.5393 11.7587 19.5432 11.732 19.5531C11.6886 19.5669 11.6462 19.5876 11.6028 19.6083C11.5801 19.6192 11.5584 19.6271 11.5347 19.6399C11.4695 19.6784 11.4024 19.7228 11.3344 19.782C10.9081 20.1481 10.7393 20.605 10.915 21.1566C11.0285 21.5108 11.1952 21.8473 11.283 22.2095C11.3955 22.6584 10.764 22.9219 10.6209 23.2831C10.395 23.8435 10.9091 24.2481 11.2742 24.5876C11.5268 24.7899 11.5268 25.0385 11.2771 25.3365C11.1301 25.3661 10.9643 25.3277 10.8193 25.3059C10.5272 25.2625 10.243 25.1974 9.944 25.1875C9.54831 25.1767 9.09242 25.3425 8.88126 25.6977C8.75692 25.9029 8.67206 26.0835 8.64344 26.3213C8.62568 26.4772 8.67107 26.6509 8.69476 26.8039C8.76284 27.2301 8.18854 27.2232 7.9606 27.2736C6.93634 27.5064 6.89785 28.5534 7.27085 29.3586C6.93337 29.4484 6.6334 29.626 6.41137 29.9329C6.25349 30.152 6.16271 30.4115 6.11436 30.6897C5.92687 30.6424 5.72853 30.6078 5.50651 30.6078C5.24995 30.6078 4.57105 31.1081 4.41119 30.9236C4.3589 30.8654 4.30166 30.8249 4.24147 30.7953C4.22075 30.7845 4.20003 30.7786 4.1793 30.7717C4.13687 30.7559 4.09346 30.744 4.04806 30.7401C4.02339 30.7371 3.99873 30.7351 3.97406 30.7351C3.92867 30.7351 3.88229 30.7401 3.83591 30.748C3.81223 30.7519 3.78953 30.7539 3.76486 30.7608C3.7027 30.7776 3.63856 30.7983 3.57639 30.8259C3.54777 30.8388 3.52014 30.8545 3.49251 30.8684C3.45008 30.8901 3.40864 30.9118 3.36818 30.9364C3.3366 30.9562 3.307 30.9769 3.27641 30.9976C3.24286 31.0213 3.21129 31.044 3.17971 31.0687C3.15307 31.0894 3.12741 31.1101 3.10274 31.1308C3.09287 31.1387 3.08202 31.1476 3.07215 31.1555C3.05044 31.1752 3.03465 31.194 3.01492 31.2127C2.99222 31.2354 2.96755 31.2571 2.94683 31.2798C2.94584 31.2818 2.94387 31.2838 2.9419 31.2848C2.93696 31.2887 2.934 31.2927 2.93203 31.2946C2.89355 31.3361 2.86098 31.3795 2.83335 31.415C2.38043 32.0466 2.00447 32.8172 2.03506 33.6057C2.03999 33.6629 2.04986 33.7152 2.05973 33.7645C2.0617 33.7773 2.06466 33.7892 2.06959 33.8C2.06959 33.801 2.07058 33.803 2.07157 33.804C2.07848 33.8306 2.08933 33.8563 2.0992 33.8819C2.1061 33.8987 2.11005 33.9175 2.11795 33.9333C2.11893 33.9342 2.11893 33.9342 2.12091 33.9362C2.12683 33.951 2.13867 33.9648 2.14755 33.9796C2.16235 34.0063 2.17715 34.0319 2.19491 34.0576C2.19985 34.0675 2.20675 34.0734 2.21169 34.0832C2.2186 34.0921 2.22945 34.099 2.23636 34.1079C2.30445 34.1898 2.38141 34.2658 2.46825 34.3329C2.38635 34.3507 2.30839 34.3743 2.22748 34.403C2.21366 34.4089 2.20083 34.4197 2.18702 34.4266H2.18603C2.18011 34.4296 2.17419 34.4335 2.16827 34.4375C1.85053 34.5904 1.57226 34.9338 1.23874 35.0059C1.01573 35.0503 0.768047 35.0582 0.57464 35.1894C0.0842166 35.5239 -0.0529443 35.9956 0.0171163 36.5669C0.08619 37.1699 0.747325 37.2449 1.13315 37.5517ZM38.3175 49.1473C38.2425 49.0259 38.1685 48.9055 38.0935 48.7841C38.3067 48.8019 38.5346 48.7861 38.7034 48.6864C38.8553 48.5947 39.0398 48.3598 39.1139 48.2069C39.1632 48.1023 39.2037 47.9937 39.2481 47.8852C39.33 47.6987 39.5283 47.5842 39.7138 47.6089C40.0158 48.7743 40.1144 49.8794 39.9911 50.9629C39.9575 51.255 39.9161 51.551 39.8776 51.8382C39.5086 51.0349 39.0053 50.2623 38.5593 49.537C38.5287 49.4877 38.4971 49.4374 38.4665 49.387C38.4162 49.3081 38.3679 49.2272 38.3175 49.1473Z" fill="#4D4D4D"/>
</svg>
