<svg width="49" height="58" viewBox="0 0 49 58" fill="none" xmlns="http://www.w3.org/2000/svg">
<path fill-rule="evenodd" clip-rule="evenodd" d="M45.0467 51.2066C45.0977 51.3168 45.1568 51.4618 45.2171 51.633C45.1653 51.49 45.1084 51.3479 45.0467 51.2066ZM45.2171 51.633C45.3867 52.1012 45.502 52.5776 45.5547 53.0589C45.4884 52.5174 45.3502 52.0113 45.2171 51.633ZM45.5547 53.0589C45.6064 53.4818 45.6143 53.9262 45.5416 54.3482C45.5989 53.9161 45.6014 53.4855 45.5547 53.0589Z" fill="#D9D9D9"/>
<path d="M35.0567 48.0898L39.9317 45.8249C39.0663 45.2832 38.1561 44.812 37.2425 44.4277L32.0812 46.3138L35.0567 48.0898Z" fill="#277B48"/>
<path d="M37.6543 49.6403L43.012 48.2837C42.1253 47.3678 41.0672 46.5357 39.9317 45.8249L35.0567 48.0898L37.6543 49.6403Z" fill="#0C9442"/>
<path d="M41.0076 51.6419L45.0467 51.2066C44.5962 50.1746 43.8877 49.1883 43.012 48.2837L37.6543 49.6403L41.0076 51.6419Z" fill="#3AB54A"/>
<path d="M41.0076 51.6419L45.5416 54.3482C45.5989 53.9161 45.6014 53.4855 45.5547 53.0589C45.4884 52.5174 45.3502 52.0113 45.2171 51.633C45.1653 51.49 45.1084 51.3479 45.0467 51.2066L41.0076 51.6419Z" fill="#D8DF20"/>
<path d="M45.5416 54.3482L41.0076 51.6419L42.6562 55.2115C43.7118 55.1449 44.6943 54.8728 45.5416 54.3482Z" fill="#8CC63E"/>
<path d="M42.6562 55.2115L41.0076 51.6419L37.6543 49.6403L39.1293 54.7885C40.3379 55.1224 41.5381 55.2822 42.6562 55.2115Z" fill="#379F45"/>
<path d="M39.1293 54.7885L37.6543 49.6403L35.0567 48.0898L35.4809 53.2814C36.6536 53.9254 37.8959 54.4477 39.1293 54.7885Z" fill="#088238"/>
<path d="M35.4809 53.2814L35.0567 48.0898L32.0812 46.3138L32.95 51.6191C33.7298 52.2265 34.5851 52.7895 35.4809 53.2814Z" fill="#23643C"/>
<path d="M29.1058 44.5377L32.0812 46.3138L37.2425 44.4277C33.8864 43.016 30.4858 42.7786 29.1058 44.5377Z" fill="#22663D"/>
<path d="M32.0812 46.3138L29.1058 44.5377C28.2926 46.6381 30.1265 49.4198 32.95 51.6191L32.0812 46.3138Z" fill="#073C1C"/>
<path fill-rule="evenodd" clip-rule="evenodd" d="M43.2732 28.0409C43.3944 28.0481 43.5502 28.0643 43.7295 28.092C43.5791 28.0702 43.4269 28.0532 43.2732 28.0409ZM43.7295 28.092C44.2223 28.1635 44.6967 28.2868 45.1459 28.4675C44.6373 28.2703 44.1258 28.1533 43.7295 28.092ZM45.1459 28.4675C45.5431 28.6215 45.9386 28.8244 46.2764 29.0877C45.9225 28.8332 45.5441 28.6278 45.1459 28.4675Z" fill="#D9D9D9"/>
<path d="M35.8097 35.3766L36.1143 30.0098C35.2283 30.517 34.3832 31.097 33.6132 31.7209L32.8395 37.1613L35.8097 35.3766Z" fill="#277B48"/>
<path d="M38.4028 33.8186L39.736 28.455C38.51 28.8043 37.277 29.3443 36.1143 30.0098L35.8097 35.3766L38.4028 33.8186Z" fill="#0C9442"/>
<path d="M41.7503 31.8072L43.2732 28.0409C42.1508 27.951 40.9468 28.11 39.736 28.455L38.4028 33.8186L41.7503 31.8072Z" fill="#3AB54A"/>
<path d="M41.7503 31.8072L46.2764 29.0877C45.9225 28.8332 45.5441 28.6278 45.1459 28.4675C44.6373 28.2703 44.1258 28.1533 43.7295 28.092C43.5791 28.0702 43.4269 28.0532 43.2732 28.0409L41.7503 31.8072Z" fill="#D8DF20"/>
<path d="M46.2764 29.0877L41.7503 31.8072L45.6754 32.0389C46.115 31.0768 46.3389 30.0823 46.2764 29.0877Z" fill="#8CC63E"/>
<path d="M45.6754 32.0389L41.7503 31.8072L38.4028 33.8186L43.6376 34.9484C44.5025 34.0405 45.2099 33.0579 45.6754 32.0389Z" fill="#379F45"/>
<path d="M43.6376 34.9484L38.4028 33.8186L35.8097 35.3766L40.5868 37.4533C41.7081 36.7235 42.7549 35.8749 43.6376 34.9484Z" fill="#088238"/>
<path d="M40.5868 37.4533L35.8097 35.3766L32.8395 37.1613L37.9267 38.8998C38.8302 38.4991 39.7303 38.0109 40.5868 37.4533Z" fill="#23643C"/>
<path d="M29.8692 38.946L32.8395 37.1613L33.6132 31.7209C30.7844 34.0133 28.9699 36.899 29.8692 38.946Z" fill="#22663D"/>
<path d="M32.8395 37.1613L29.8692 38.946C31.337 40.6544 34.655 40.3508 37.9267 38.8998L32.8395 37.1613Z" fill="#073C1C"/>
<path d="M23.5834 43.2672L30.1756 39.1819L29.897 38.9962L29.7113 38.532L23.5834 42.5244V43.2672Z" fill="#4D4D4D"/>
<path d="M23.7691 40.8531V40.1104L26.5545 42.153L29.4328 44.1957L29.0614 44.4742L28.9686 44.8456L23.7691 40.8531Z" fill="#4D4D4D"/>
<path d="M0.661687 21.7311C0.859327 21.8872 0.43178 22.2376 0.35572 22.4087C0.236445 22.6697 0.390293 22.9463 0.614438 23.0886C0.949792 23.3024 1.38137 23.2465 1.76282 23.2321C1.77953 23.2684 1.79855 23.3041 1.81929 23.3398C1.59342 23.4793 1.36121 23.6176 1.25634 23.8757C1.10652 24.2537 1.18258 24.6294 1.51793 24.8772C1.84234 25.118 2.28026 25.1503 2.67093 25.1445C2.70204 25.1434 2.73201 25.1399 2.76312 25.133C2.67093 25.2794 2.61734 25.4528 2.60639 25.6856C2.59084 25.9967 2.69686 26.4681 3.08119 26.5165C3.30879 26.5436 3.57558 26.4738 3.80491 26.3494C3.79627 26.4064 3.79281 26.46 3.79626 26.5021C3.81067 26.6726 3.8729 26.8 3.96855 26.9135C3.69831 26.9844 3.46667 27.129 3.44766 27.3929C3.43902 27.5323 3.46783 27.6574 3.55426 27.7692C3.68794 27.9438 3.7398 27.9599 3.65394 28.1719C3.53755 28.4531 3.76457 28.588 4.02329 28.6116C4.1322 28.6208 4.23707 28.5759 4.32638 28.5165C4.33272 28.5125 4.34078 28.505 4.34827 28.5004C4.36498 28.5119 4.38342 28.5217 4.40128 28.5321C4.39207 28.5453 4.38285 28.5574 4.37708 28.5643C4.2169 28.7314 4.10223 28.9308 4.29411 29.1227C4.50961 29.3388 4.97634 29.3255 5.32091 29.1941C5.32034 29.3751 5.33417 29.5479 5.58943 29.5739C5.71908 29.586 5.87465 29.56 5.98701 29.4874C6.11032 29.5416 6.24573 29.5727 6.36155 29.5785C6.51367 29.5865 6.67558 29.556 6.78449 29.4407C6.84441 29.3768 6.8882 29.3059 6.93718 29.2345C7.01151 29.1279 6.95793 29.1152 7.06049 29.1861C7.10486 29.216 7.17919 29.2322 7.23623 29.2126C7.22586 29.2811 7.2103 29.4073 7.20915 29.4033C7.21203 29.5203 7.22471 29.6234 7.30019 29.715C7.32094 29.7415 7.39988 29.8216 7.47421 29.8833C7.40737 30.1264 7.48112 30.4053 7.72774 30.5361C7.73926 30.5425 7.75137 30.5476 7.76347 30.5534C7.76289 30.5534 7.76289 30.5534 7.76231 30.5534C7.76807 30.5563 7.77441 30.5586 7.78075 30.5615C7.80034 30.5713 7.81993 30.5799 7.83953 30.5874C7.85163 30.592 7.8643 30.5955 7.8764 30.5989C7.89369 30.6041 7.91213 30.6099 7.92941 30.6133C7.94843 30.6168 7.9686 30.6162 7.98876 30.6168C8.00086 30.6168 8.01181 30.6191 8.02334 30.6179C8.05618 30.6151 8.08902 30.6076 8.1236 30.5937C8.1864 30.5678 8.22789 30.5211 8.28436 30.4837C8.29185 30.4791 8.29876 30.4762 8.30683 30.4722C8.43936 30.7418 8.81101 30.9228 9.09854 30.7868C9.21782 30.7303 9.27774 30.6606 9.32903 30.5407C9.36014 30.4739 9.31981 30.2595 9.43217 30.346C9.54568 30.4336 9.688 30.5292 9.83897 30.5373C9.85856 30.5678 9.86778 30.5984 9.84358 30.6312C9.78596 30.7159 9.73986 30.7937 9.71912 30.8951C9.60273 31.4246 10.278 31.6764 10.7459 31.6459C10.7949 31.6649 10.8485 31.6759 10.8986 31.673C10.9418 31.7024 10.9891 31.7277 11.0386 31.7508C11.1527 31.9352 11.4068 32.0492 11.6206 32.0469C11.6218 32.0469 11.6229 32.0469 11.6241 32.0469C11.7866 32.1432 12.0747 32.157 12.1951 32.1443C12.4354 32.1178 12.4861 31.9104 12.6007 31.7369C12.7091 31.847 12.7857 32.0037 12.924 32.0798C12.9534 32.0953 12.9845 32.108 13.0156 32.1167C13.0438 32.1818 13.0755 32.244 13.1136 32.3045C13.1147 32.3028 13.117 32.301 13.1176 32.2993C13.1297 32.3172 13.1366 32.3379 13.1493 32.3552C13.2006 32.4238 13.291 32.4889 13.3775 32.4964C13.4339 32.4998 13.4829 32.4952 13.5365 32.4872C13.6829 32.4647 13.7658 32.531 13.8477 32.6439C13.9727 32.8185 13.8482 32.9775 14.1214 33.0075C14.4181 33.0392 14.6244 32.7223 14.7356 32.4964C14.7921 32.3817 14.9281 32.4226 15.0444 32.4313C15.1752 32.4393 15.3055 32.4584 15.4345 32.4589C15.6408 32.4618 15.801 32.3777 15.9076 32.2002C15.9595 32.1149 15.9848 32.021 16.0033 31.9254C16.1225 31.9507 16.2395 31.9605 16.3426 31.9403C16.3991 31.9294 16.4464 31.9115 16.4878 31.8891C16.5046 31.8804 16.5167 31.8677 16.5311 31.8568C16.5524 31.8412 16.5749 31.8257 16.5916 31.8072C16.6048 31.7923 16.614 31.775 16.625 31.7583C16.6371 31.7392 16.6498 31.7202 16.6596 31.6989C16.6682 31.6799 16.6734 31.6592 16.6797 31.6384C16.6861 31.6165 16.6924 31.5946 16.697 31.5716C16.701 31.5491 16.7034 31.526 16.7057 31.5024C16.708 31.4782 16.7097 31.4546 16.7097 31.4304C16.7097 31.4056 16.7097 31.3803 16.7085 31.3543C16.7074 31.3301 16.7062 31.3071 16.7039 31.2829C16.701 31.2547 16.6987 31.227 16.6947 31.1988C16.6918 31.1786 16.6895 31.1584 16.6861 31.1388C16.6809 31.1037 16.6751 31.0697 16.6688 31.0351C16.6688 31.0345 16.6688 31.0334 16.6682 31.0322C16.6624 31.0005 16.6561 30.9689 16.6503 30.9383C16.8013 30.9493 16.9517 30.974 17.1073 30.9383C17.113 30.9372 17.1153 30.9331 17.1211 30.932C17.1597 30.9752 17.2029 31.0144 17.2634 31.0363C17.3729 31.0743 17.4864 31.0167 17.5999 31.0582C17.7054 31.0956 17.7469 31.1844 17.8137 31.2627C17.9215 31.3947 18.0747 31.3826 18.2147 31.3226C18.2931 31.4402 18.3721 31.5618 18.455 31.6736C18.731 32.0487 18.9316 32.3667 19.0877 32.675C19.4789 33.4431 19.7544 34.2308 19.9071 35.0173C20.0747 35.8782 20.1485 36.7079 20.1306 37.4789C20.122 37.7468 20.1041 38.0257 20.0863 38.2942C20.0529 38.7857 20.0183 39.2922 20.0517 39.7831C19.9612 40.0528 19.8898 46.9702 19.8241 47.3355C19.8183 47.3683 19.8114 47.4006 19.8057 47.4335L19.7976 47.4917L19.7734 47.536C19.6916 47.6997 19.6138 47.8552 19.5429 48.0085C19.3355 48.4562 19.1661 48.927 19.0024 49.3816C18.8808 49.7199 18.7558 50.0702 18.6123 50.4101C18.4239 50.8613 18.1733 51.2791 17.9295 51.6813C17.82 51.8651 17.7054 52.0552 17.5971 52.2471C17.5037 52.4136 17.4132 52.579 17.3435 52.7069C17.0554 52.7507 16.7811 52.8239 16.5051 52.9299C16.2349 53.0359 15.9785 53.0832 15.6714 53.0832C15.4824 53.0832 15.2911 53.0653 15.128 53.0469L15.0767 53.0411C14.909 53.0233 14.7488 53.0048 14.5921 53.0048C14.3472 53.0048 14.1461 53.0503 13.9594 53.1483C13.7681 53.1316 13.6005 53.1391 13.4345 53.1737C13.1988 53.2215 12.9891 53.3373 12.8266 53.5096C12.6739 53.6686 12.6123 53.8547 12.5506 54.0518C12.5356 54.0956 12.5212 54.1405 12.5051 54.1855C12.4959 54.2114 12.4999 54.2379 12.5149 54.2598C12.531 54.2823 12.5587 54.2961 12.5846 54.2961C12.6163 54.2961 12.6417 54.2788 12.6555 54.2489C12.8059 53.9077 13.0905 53.7343 13.5037 53.7343C13.718 53.7343 13.9721 53.7839 14.232 53.8766C14.2798 53.8939 14.3248 53.9112 14.3709 53.9273C14.5645 53.9976 14.765 54.0708 14.9684 54.1192C15.1533 54.2224 15.3781 54.269 15.5815 54.3088C15.7561 54.3589 15.9335 54.39 16.1145 54.3946C16.228 54.4067 16.3392 54.4171 16.4458 54.4206C15.9819 54.6551 15.6593 55.0112 15.4633 55.5085C15.4443 55.5396 15.4247 55.5695 15.4075 55.6047C15.3856 55.641 15.3902 55.6721 15.3977 55.6911L15.3942 55.7026C15.3815 55.7464 15.3902 55.7948 15.419 55.8346C15.4472 55.8709 15.4887 55.8945 15.5273 55.8945C15.555 55.8945 15.5941 55.8847 15.6264 55.838C15.748 55.6635 15.8903 55.5096 16.0465 55.3823C16.2487 55.2618 16.4452 55.1973 16.648 55.1817C16.6532 55.1817 16.659 55.1817 16.6636 55.1812C16.7736 55.1846 16.8791 55.1904 16.9678 55.1921C17.0053 55.1927 17.0439 55.1869 17.0819 55.1869C17.1637 55.191 17.2461 55.1927 17.3268 55.1985C17.4276 55.2065 17.5325 55.214 17.6362 55.218C17.7359 55.2227 17.8218 55.2094 17.9168 55.2082C18.0044 55.2446 18.1151 55.2411 18.2061 55.2013C18.228 55.2002 18.247 55.1979 18.2683 55.1962C18.277 55.1956 18.2868 55.1961 18.2954 55.1956C18.2879 55.2013 18.2827 55.2071 18.2752 55.2123C18.2447 55.2336 18.2655 55.2757 18.2966 55.2768C18.3023 55.2878 18.3104 55.2952 18.326 55.2976C18.5178 55.3304 18.6895 55.2388 18.7973 55.0982C18.8013 55.097 18.8065 55.0959 18.8105 55.0947C18.8198 55.1091 18.8353 55.1184 18.8555 55.1086C18.8762 55.0993 18.8918 55.0855 18.9097 55.0728C18.9477 55.0619 18.9892 55.0596 19.0266 55.0469C19.1816 55.093 19.3372 55.1143 19.4899 55.1189C19.4899 55.127 19.4876 55.1356 19.4968 55.1426C19.5533 55.1754 19.6201 55.1789 19.6852 55.1627C19.6904 55.1691 19.6973 55.1742 19.7054 55.1766C19.8253 55.2111 19.9353 55.1639 20.0206 55.0884C20.1041 55.0705 20.171 55.0423 20.2211 55.0066C20.3577 55.0008 20.4948 54.9484 20.6112 54.8643C20.6262 54.8764 20.6458 54.8821 20.6671 54.8746C20.7253 54.8527 20.7852 54.8308 20.8434 54.8026C20.8849 54.7899 20.9206 54.7709 20.9529 54.7461C21.0076 54.7156 21.0572 54.681 21.1056 54.6424C21.2076 54.6493 21.2767 54.6153 21.3286 54.5612C21.5988 54.4891 21.8702 54.3843 22.1364 54.246C22.1745 54.2258 22.2044 54.208 22.2401 54.1878C22.3018 54.1716 22.3629 54.1532 22.4251 54.1532C22.4908 54.1532 22.5513 54.1659 22.6124 54.1791C22.7391 54.2402 22.8694 54.2961 23.0128 54.3416C23.4317 54.4747 23.8679 54.4961 24.2909 54.5145C24.53 54.5254 24.7778 54.5347 25.0198 54.5687C25.3632 54.6142 25.6478 54.6608 25.9256 54.8251C26.0973 54.9276 26.3059 55.0452 26.5341 55.1368C26.5836 55.157 26.651 55.1264 26.6735 55.0757C26.685 55.0498 26.6741 55.0239 26.6597 55.0002C26.7288 55.0446 26.802 55.0844 26.8844 55.1086C26.9023 55.1132 26.9144 55.0884 26.8965 55.0786C26.8066 55.0279 26.7282 54.9697 26.6545 54.9057C26.8066 54.9622 26.9622 55.0095 27.1235 55.0354C27.1581 55.0429 27.165 54.9933 27.131 54.9835C26.9599 54.9409 26.8031 54.8775 26.6545 54.8026C26.6666 54.7732 26.662 54.7352 26.6383 54.7121C26.5058 54.5871 26.3157 54.4044 26.0984 54.2189C26.095 54.212 26.091 54.2056 26.0875 54.1982C26.0846 54.1918 26.0812 54.1861 26.0783 54.1803C26.0909 54.163 26.0961 54.1405 26.0812 54.1169C26.0679 54.0956 26.0472 54.0806 26.0322 54.061C26.099 54.0725 26.1659 54.0835 26.2333 54.0933C26.5018 54.1342 26.7778 54.1774 27.0457 54.2356C27.3044 54.2909 27.5522 54.3785 27.7913 54.4638C27.9452 54.5179 28.1031 54.5727 28.2633 54.6211C28.5128 54.6954 28.7836 54.764 29.07 54.764C29.1276 54.764 29.1858 54.7617 29.2422 54.7548C29.4203 54.7381 29.5989 54.7029 29.7695 54.6689C29.8461 54.6551 29.9239 54.6401 30.0005 54.6257C30.2114 54.6747 30.4096 54.768 30.6027 54.8585C30.7865 54.9426 30.9766 55.0331 31.1789 55.0849C31.2002 55.0896 31.2221 55.0786 31.2284 55.0579C31.2365 55.0377 31.2325 55.0158 31.2163 55.0031L31.2152 55.002C31.2152 54.9835 31.2077 54.9674 31.1898 54.957C31.0815 54.885 30.9882 54.7963 30.8983 54.7046C30.8182 54.6032 30.7363 54.5018 30.6465 54.4108C30.5387 54.2823 30.4229 54.1653 30.2863 54.0835C30.2062 54.0184 30.1181 53.9642 30.0126 53.9348C29.8663 53.8945 29.6548 53.8628 29.4848 53.8933C29.3661 53.8542 29.2371 53.8334 29.108 53.8236C29.0538 53.8109 29.0014 53.7908 28.9489 53.7741C28.8746 53.5355 28.5571 53.2935 28.4015 53.1829C28.3946 53.1777 28.3871 53.1731 28.3797 53.169C28.3595 53.1437 28.3393 53.1195 28.3186 53.0936C28.3215 53.0745 28.3186 53.0538 28.3001 53.0354C28.2921 53.0279 28.2823 53.0215 28.2748 53.0123C28.2051 52.9074 28.0967 52.8095 27.9792 52.7231C27.9636 52.7081 27.9475 52.6942 27.9325 52.6793C27.9314 52.6649 27.9285 52.6499 27.9164 52.6361C27.8075 52.5029 27.6611 52.3987 27.4986 52.3203C27.4059 52.2632 27.305 52.2108 27.1927 52.1745C27.1708 52.1676 27.1454 52.1624 27.1224 52.1566C27.0665 52.1077 27.0117 52.0593 26.953 52.0132C26.9097 51.9728 26.8636 51.9383 26.8158 51.9077C26.8072 51.9014 26.7985 51.8945 26.7905 51.8881C26.677 51.7101 26.5237 51.5557 26.3641 51.422C26.0097 51.0192 25.6692 50.6078 25.3983 50.1267C25.0797 49.5574 24.8567 48.9725 24.6815 48.3611C24.4614 47.0428 24.3963 39.9969 24.4021 39.0934C24.4038 38.5754 24.4217 38.0562 24.4303 37.5376C24.4361 37.1717 24.4632 36.7713 24.3946 36.4077C24.4511 35.7191 24.4309 35.0213 24.375 34.3305C24.3266 33.7606 24.2667 33.1919 24.1169 32.6381C24.0996 32.5776 24.0829 32.5148 24.0667 32.452C23.9555 31.7001 23.8858 30.9349 24.2471 30.3218C24.2868 30.3777 24.3197 30.4439 24.3514 30.4964C24.4165 30.6012 24.5069 30.6663 24.6366 30.6577C24.8711 30.6439 24.9656 30.467 25.1206 30.3264C25.1725 30.2791 25.2335 30.2618 25.2975 30.2555C25.1777 30.2814 25.0912 30.3644 25.0215 30.4618C24.9748 30.5263 24.9575 30.6105 24.938 30.6865C24.9161 30.7683 24.8083 30.8271 24.7513 30.8841C24.5548 31.0852 24.6262 31.3434 24.8723 31.4477C25.0342 31.5151 25.2272 31.5266 25.411 31.5197C25.3223 31.6275 25.2019 31.7237 25.2589 31.8879C25.3206 32.0642 25.5303 32.0982 25.7066 32.1063C25.7446 32.2532 25.8328 32.3961 26.0155 32.3656C26.1503 32.3414 26.2615 32.2728 26.3802 32.2123C26.3854 32.2382 26.3917 32.2659 26.3975 32.293L26.3969 32.2936C26.3998 32.3068 26.4038 32.3206 26.4067 32.3339C26.4079 32.3391 26.409 32.3448 26.4107 32.35C26.4188 32.3852 26.428 32.4192 26.4378 32.4532C26.4413 32.4658 26.4453 32.4785 26.4494 32.4912C26.4586 32.5189 26.4684 32.5471 26.4787 32.5747C26.4845 32.5892 26.4903 32.6036 26.496 32.6174C26.5064 32.6422 26.5185 32.6652 26.5312 32.6877C26.5392 32.7021 26.5467 32.7165 26.5554 32.7292C26.5686 32.7493 26.583 32.7672 26.598 32.7851C26.6084 32.7972 26.6182 32.8098 26.6291 32.8202C26.6453 32.8358 26.6643 32.8473 26.6827 32.86C26.6954 32.8686 26.7069 32.8778 26.7207 32.8848C26.7421 32.8951 26.7663 32.8997 26.7899 32.9055C26.8043 32.9089 26.817 32.9147 26.8325 32.9164C26.8734 32.9205 26.9172 32.9187 26.9662 32.909C27.282 32.8421 27.6312 32.4693 27.6865 32.1155C27.8017 32.0757 27.9008 32.025 27.9873 31.9628C27.9878 31.9617 27.989 31.9628 27.989 31.9628C28.0576 31.9599 28.1278 31.949 28.1958 31.9277C28.3007 32.0521 28.4355 32.123 28.6159 32.0631C28.8729 31.9789 29.0878 31.7859 29.2797 31.6021C29.3863 31.5001 29.5004 31.4148 29.6099 31.3249C29.7562 31.3964 29.9222 31.4362 30.0812 31.446C30.1106 31.4483 30.14 31.4483 30.1665 31.4483C30.3624 31.5059 30.5842 31.4961 30.7663 31.4218C30.9369 31.352 31.1022 31.1763 31.1287 30.9907C31.161 30.9568 31.1904 30.9193 31.2146 30.8824C31.2561 30.8686 31.2958 30.8427 31.327 30.8104C31.7101 30.6796 32.1625 30.2538 31.8911 29.8694C31.8392 29.7968 31.777 29.7484 31.7027 29.7012C31.6715 29.6833 31.6687 29.6539 31.6744 29.624C31.792 29.5675 31.8721 29.4448 31.9331 29.3365C31.9948 29.2293 32.034 29.4137 32.0818 29.4575C32.1642 29.5352 32.2345 29.571 32.3486 29.5779C32.6234 29.5894 32.8591 29.3232 32.8729 29.0622C32.8804 29.0628 32.8873 29.0628 32.8948 29.0645C32.9536 29.0749 33.002 29.0979 33.0602 29.0979C33.1242 29.0973 33.176 29.0777 33.2221 29.0472C33.2452 29.0328 33.2648 29.0103 33.2849 28.9902C33.3011 28.9746 33.3201 28.9631 33.3351 28.9446C33.3339 28.9446 33.3327 28.9446 33.3316 28.9446C33.3397 28.936 33.3483 28.9302 33.3558 28.921C33.5085 28.7343 33.4728 28.4883 33.3362 28.316C33.3748 28.2422 33.4117 28.1512 33.4192 28.1241C33.4486 28.025 33.4221 27.938 33.3869 27.8458C33.3869 27.8481 33.3316 27.753 33.3005 27.7017C33.3518 27.6983 33.4059 27.6591 33.4301 27.6205C33.4883 27.53 33.4509 27.5577 33.5465 27.6193C33.6105 27.6591 33.6681 27.7017 33.7384 27.7311C33.8646 27.7888 34.0035 27.7599 34.1222 27.7023C34.2109 27.658 34.3111 27.5882 34.3907 27.503C34.5042 27.5254 34.6373 27.4932 34.7375 27.4407C34.9311 27.3353 34.8845 27.1924 34.8217 27.0489C35.1409 27.0385 35.5177 26.8927 35.6168 26.6502C35.705 26.4341 35.546 26.3125 35.361 26.2324C35.3276 26.218 35.2216 26.1368 35.1899 26.1443C35.2452 26.1327 35.3287 26.1685 35.3835 26.1782C35.4762 26.1955 35.5748 26.1978 35.6595 26.1535C35.8571 26.0474 35.992 25.8654 35.8047 25.6787C35.6624 25.5392 35.6998 25.5098 35.7471 25.3266C35.7494 25.3162 35.7471 25.307 35.7488 25.2972C36.0715 25.4251 36.3653 25.6464 36.7341 25.6948C36.9767 25.7271 37.2383 25.6291 37.4659 25.5559C37.7534 25.4632 37.7655 25.6199 37.9868 25.7409C38.2392 25.878 38.4679 25.7098 38.6408 25.4989C38.9669 25.5058 39.236 25.0673 39.361 24.8432C39.5408 24.5216 39.6238 24.1264 39.5374 23.7714C40.0122 23.307 39.988 22.717 39.735 22.082C39.6105 21.7691 39.4763 21.5334 39.1646 21.3871C39.1409 21.3761 39.1311 21.3577 39.1254 21.3375C39.1231 21.3294 39.1219 21.3208 39.1219 21.3122C39.1208 21.1272 39.5685 20.7129 39.6278 20.5792C39.7477 20.3055 39.6457 19.9926 39.5408 19.7345C39.4025 19.402 39.308 19.0984 39.2424 18.7446C39.1415 18.1943 38.7733 18.0439 38.3256 18.143C38.2346 17.7028 38.6805 17.311 38.6448 16.835C38.6131 16.3919 38.3458 16.0364 38.0265 15.7443C37.5518 15.3075 36.9778 15.3346 36.6436 15.7154C36.6298 15.6976 36.6166 15.6803 36.6033 15.6624C36.654 15.5599 36.6258 15.4377 36.5422 15.3634C36.1936 15.0419 35.6312 14.7722 35.1518 14.9295C35.1046 14.945 35.0562 14.9733 35.0072 15.0056C34.998 15.0113 34.9888 15.0171 34.979 15.0234C34.9438 15.0476 34.9081 15.073 34.8724 15.0989C34.8718 15.0995 34.8706 15.1 34.8701 15.1006C34.8574 15.1104 34.8441 15.1185 34.8315 15.1277C34.8222 15.134 34.813 15.1381 34.8044 15.1438C34.8367 14.9479 34.8084 14.748 34.6972 14.578C34.7957 14.495 34.8776 14.3671 34.8027 14.2438C34.8004 14.2403 34.7975 14.2375 34.7952 14.234C34.934 13.9672 34.9502 13.6445 34.7744 13.3916C34.718 13.3103 34.635 13.2441 34.552 13.1772C34.5779 13.0263 34.5399 12.8523 34.4656 12.684C34.4823 12.5889 34.4759 12.4892 34.4592 12.3878C34.5157 12.3296 34.5704 12.2703 34.6004 12.2034C34.7617 11.8468 34.3786 11.2227 34.0651 11.0551C33.6687 10.8447 33.2429 10.9323 32.851 11.1104C32.8349 11.1167 32.8199 11.1254 32.8038 11.1334C32.7853 11.1202 32.7606 11.1023 32.7295 11.0787C32.5554 10.9439 32.4246 10.7652 32.2322 10.6477C31.9936 10.5025 31.4964 10.3924 31.2544 10.6269C31.1633 10.5826 31.0682 10.5434 30.9668 10.5105C30.7876 10.4512 30.6038 10.4086 30.4252 10.344C30.405 10.3371 30.3555 10.2973 30.3019 10.2478C30.2915 10.1919 30.2748 10.1406 30.2506 10.0939C30.3071 10.0311 30.3624 9.96775 30.4154 9.90264C30.9461 9.91013 31.437 10.2103 31.8905 9.66179C31.9533 9.5863 31.9959 9.50679 32.0299 9.42669C32.0363 9.41113 32.0438 9.39558 32.0495 9.38002C32.0772 9.30223 32.0939 9.22329 32.0991 9.1432C32.1002 9.12764 32.0991 9.11208 32.0997 9.09652C32.1008 9.01989 32.0956 8.9421 32.0801 8.86489C32.0789 8.8574 32.0783 8.84933 32.0772 8.84184C32.0599 8.75944 32.0322 8.67762 32.0005 8.59695C31.9931 8.57851 31.9861 8.56007 31.9781 8.54163C31.9475 8.47076 31.9141 8.40046 31.8761 8.33189C31.8761 8.33247 31.8749 8.33305 31.8749 8.33362C31.7188 8.05359 31.5096 7.79372 31.3264 7.59089C31.0867 7.32526 30.7894 7.18005 30.4327 7.19388C30.2984 7.19849 30.1751 7.23479 30.0553 7.27916C30.0253 7.21117 29.9879 7.14721 29.9452 7.08959C29.8617 6.97319 29.7303 6.87927 29.5995 6.78304C29.7873 6.78535 29.9746 6.76288 30.1705 6.65167C30.586 6.41254 30.7796 5.84959 30.7346 5.39726C30.7024 5.07516 30.605 4.57732 30.2552 4.44709C29.9314 4.32551 29.7061 4.51508 29.5655 4.76977C29.3736 4.75133 29.1794 4.74384 28.9864 4.72194C28.7962 4.06564 28.3918 3.868 27.6623 3.93945C27.2324 3.98036 27.044 3.80289 26.7807 3.48309C26.6424 3.31715 26.6983 3.27451 26.7985 3.08378C26.9172 2.85733 26.9409 2.66833 26.9097 2.41768C26.8354 1.8167 25.9757 1.2958 25.4168 1.34709C25.0469 1.38108 24.7639 1.70837 24.5041 1.93597C24.4027 2.01952 24.2972 2.09789 24.1883 2.17164C24.133 2.2114 24.1122 2.23445 24.1048 2.24597C24.1065 2.23618 24.1076 2.21774 24.0898 2.18893C24.0154 2.06389 23.9503 1.93712 23.8789 1.81266C23.9209 1.5332 23.8126 1.28543 23.4041 1.19497C23.139 1.13735 22.8613 1.15694 22.5922 1.1771C22.5334 1.17999 22.4729 1.18402 22.4136 1.18805C22.53 1.12755 22.6469 1.06705 22.742 0.961026C22.9616 0.716137 22.7023 0.461453 22.4971 0.339873C21.7262 -0.113604 20.6659 -0.188511 20.0615 0.584185C19.7999 0.917234 19.5948 1.39203 19.6397 1.82361C19.6731 2.13822 19.5804 2.05294 19.2923 2.00973C19.1021 1.97976 18.897 1.96305 18.712 2.02471C18.311 2.15608 17.9318 2.49317 17.7486 2.86828C17.5077 3.35518 17.8529 3.72222 17.759 4.20969C17.627 4.90403 16.7529 4.57443 16.2764 4.49088C15.7866 4.4056 15.2444 4.42347 14.8917 4.76516C14.6688 4.73347 14.4596 4.72482 14.2608 4.73981C14.2251 4.72425 14.1922 4.70639 14.1536 4.69313C13.7583 4.56521 13.3953 4.58481 13.026 4.76516C12.6935 4.9265 12.4152 5.36442 12.3559 5.72685C12.3207 5.76258 12.2844 5.79427 12.2498 5.83287C12.0931 6.00574 12.0021 6.16938 11.9571 6.32496C11.8033 6.46498 11.6552 6.61191 11.6246 6.81992C11.601 6.98414 11.5878 7.11609 11.7047 7.25093C11.843 7.40938 12.1818 7.66003 11.7796 7.68539C11.4259 7.70844 11.0761 7.59723 10.7194 7.64275C10.0556 7.72976 9.68973 8.53933 10.3414 8.88678C10.41 8.92309 10.4918 8.95766 10.5633 9.0003C10.2037 9.27054 10.0931 9.77184 10.4728 10.079C10.2994 10.2858 10.1011 10.4385 9.82572 10.3296C9.44542 10.181 9.3901 9.75801 8.98618 9.64277C8.61914 9.53848 8.29704 9.80929 8.104 10.0824C7.99164 10.2415 7.94094 10.4408 7.88101 10.6235C7.86949 10.6575 7.86545 10.703 7.86315 10.752C7.85739 10.8626 7.862 10.9957 7.83434 11.1012C7.83376 11.1046 7.83319 11.1092 7.83203 11.1133C7.81936 11.1582 7.79631 11.1933 7.76577 11.221C7.75079 11.2343 7.73523 11.2481 7.71391 11.2556C7.71218 11.2562 7.70988 11.2567 7.70815 11.2573C7.67876 11.2671 7.64304 11.2706 7.59982 11.2665C7.56583 11.2631 7.53356 11.2579 7.50129 11.2533C7.41255 11.24 7.32843 11.2233 7.24718 11.2106C7.2322 11.2083 7.21607 11.2055 7.20109 11.2037C7.17746 11.2003 7.15441 11.1985 7.13194 11.1968C7.11465 11.1951 7.09737 11.1933 7.08066 11.1928C7.05934 11.1922 7.03744 11.1928 7.01612 11.1939C6.99884 11.1945 6.98155 11.1945 6.96484 11.1962C6.94294 11.1991 6.92047 11.2049 6.89858 11.2095C6.88244 11.2129 6.86631 11.2152 6.85075 11.221C6.8254 11.2291 6.80062 11.2412 6.77527 11.2533C6.76201 11.2596 6.74934 11.2642 6.73551 11.2717C6.69748 11.2942 6.6583 11.3201 6.61854 11.3547C6.36962 11.5685 6.27108 11.8352 6.37365 12.1573C6.43991 12.3642 6.53729 12.5607 6.58858 12.7722C6.65426 13.0343 6.28549 13.1882 6.20194 13.3991C6.06999 13.7264 6.37019 13.9626 6.58339 14.1608C6.7309 14.2789 6.7309 14.4242 6.58512 14.5982C6.49926 14.6155 6.40246 14.593 6.31776 14.5803C6.1472 14.555 5.98125 14.5169 5.80666 14.5112C5.5756 14.5048 5.30939 14.6016 5.18608 14.8091C5.11348 14.9289 5.06393 15.0344 5.04722 15.1732C5.03684 15.2643 5.06335 15.3657 5.07718 15.455C5.11694 15.7039 4.78158 15.6999 4.64848 15.7293C4.05037 15.8653 4.0279 16.4766 4.24571 16.9468C4.04864 16.9992 3.87348 17.103 3.74383 17.2822C3.65164 17.4101 3.59863 17.5616 3.57039 17.7241C3.46091 17.6964 3.34509 17.6763 3.21545 17.6763C3.06563 17.6763 2.6692 17.9684 2.57585 17.8607C2.54532 17.8267 2.51189 17.803 2.47675 17.7858C2.46465 17.7794 2.45255 17.776 2.44045 17.7719C2.41567 17.7627 2.39031 17.7558 2.36381 17.7535C2.3494 17.7518 2.335 17.7506 2.32059 17.7506C2.29409 17.7506 2.26701 17.7535 2.23992 17.7581C2.2261 17.7604 2.21284 17.7616 2.19844 17.7656C2.16214 17.7754 2.12468 17.7875 2.08838 17.8036C2.07167 17.8111 2.05554 17.8203 2.0394 17.8284C2.01463 17.8411 1.99043 17.8538 1.9668 17.8682C1.94836 17.8797 1.93108 17.8918 1.91321 17.9039C1.89362 17.9177 1.87518 17.931 1.85675 17.9454C1.84119 17.9575 1.82621 17.9696 1.8118 17.9817C1.80604 17.9863 1.7997 17.9915 1.79394 17.9961C1.78126 18.0076 1.77204 18.0185 1.76052 18.0295C1.74727 18.0427 1.73286 18.0554 1.72076 18.0687C1.72018 18.0698 1.71903 18.071 1.71788 18.0716C1.715 18.0739 1.71327 18.0762 1.71212 18.0773C1.68964 18.1015 1.67063 18.1269 1.6545 18.1476C1.39002 18.5164 1.17048 18.9664 1.18834 19.4268C1.19122 19.4602 1.19699 19.4908 1.20275 19.5196C1.2039 19.5271 1.20563 19.534 1.20851 19.5403C1.20851 19.5409 1.20909 19.542 1.20966 19.5426C1.2137 19.5582 1.22003 19.5732 1.2258 19.5881C1.22983 19.5979 1.23213 19.6089 1.23674 19.6181C1.23732 19.6187 1.23732 19.6187 1.23847 19.6198C1.24193 19.6285 1.24884 19.6365 1.25403 19.6452C1.26267 19.6607 1.27132 19.6757 1.28169 19.6907C1.28457 19.6965 1.2886 19.6999 1.29148 19.7057C1.29552 19.7109 1.30186 19.7149 1.30589 19.7201C1.34565 19.7679 1.39059 19.8123 1.4413 19.8515C1.39347 19.8618 1.34795 19.8757 1.3007 19.8924C1.29264 19.8958 1.28515 19.9022 1.27708 19.9062H1.2765C1.27305 19.9079 1.26959 19.9102 1.26613 19.9125C1.08059 20.0019 0.9181 20.2024 0.723342 20.2444C0.593118 20.2704 0.44849 20.275 0.335553 20.3516C0.0491771 20.547 -0.030916 20.8224 0.0099948 21.156C0.0503294 21.5081 0.43639 21.5519 0.661687 21.7311ZM22.375 28.5021C22.3312 28.4312 22.288 28.3609 22.2442 28.2901C22.3686 28.3004 22.5017 28.2912 22.6003 28.233C22.689 28.1794 22.7968 28.0423 22.84 27.953C22.8688 27.8919 22.8924 27.8285 22.9183 27.7651C22.9662 27.6562 23.082 27.5894 23.1903 27.6038C23.3666 28.2843 23.4243 28.9296 23.3522 29.5623C23.3326 29.7329 23.3084 29.9057 23.286 30.0734C23.0705 29.6044 22.7766 29.1532 22.5161 28.7297C22.4983 28.7009 22.4798 28.6715 22.462 28.6421C22.4326 28.596 22.4044 28.5488 22.375 28.5021Z" fill="#4D4D4D"/>
</svg>
