<svg width="16" height="16" viewBox="0 0 16 16" fill="none" xmlns="http://www.w3.org/2000/svg">
<g id="maskin">
<g id="Group 2400">
<path id="Vector" d="M14.2574 9.37174C14.494 9.13146 14.6266 8.80779 14.6266 8.47059C14.6266 8.1334 14.494 7.80972 14.2574 7.56944L11.5496 4.86159C11.3093 4.62503 10.9856 4.49243 10.6484 4.49243C10.3112 4.49243 9.98755 4.62503 9.74726 4.86159L6.67896 7.9299L11.1891 12.4401L14.2574 9.37174Z" fill="black"/>
<path id="Vector_2" d="M9.07024 14.5587L10.6352 12.985L6.1338 8.47485L3.07429 11.5344C2.95526 11.6523 2.86077 11.7927 2.79629 11.9474C2.73181 12.102 2.69861 12.2679 2.69861 12.4355C2.69861 12.6031 2.73181 12.769 2.79629 12.9237C2.86077 13.0784 2.95526 13.2187 3.07429 13.3367L5.07001 15.3324H9.07024V14.5587Z" fill="#586582"/>
<path id="Vector_3" d="M7.92767 5.03736C7.8926 4.96654 7.88328 4.88573 7.9013 4.80878C7.92154 4.73633 7.95609 4.66867 8.0029 4.60978C8.04971 4.55089 8.10783 4.50197 8.17384 4.4659C8.41122 4.32524 8.69255 4.34282 8.78926 4.50986C8.82377 4.5777 8.83312 4.65558 8.81564 4.72965C8.79539 4.8021 8.76085 4.86977 8.71404 4.92865C8.66723 4.98754 8.60911 5.03646 8.54309 5.07253C8.31451 5.22199 8.02438 5.20441 7.92767 5.03736Z" fill="white"/>
<path id="Vector_4" d="M7.96273 7.25297C7.93927 7.17803 7.94237 7.09729 7.97152 7.02438C8.05944 6.85734 8.34957 6.82217 8.58694 6.94526C8.72232 7.01605 8.82595 7.13538 8.87707 7.27934C8.88942 7.31671 8.89423 7.35616 8.89121 7.3954C8.88819 7.43464 8.87741 7.47289 8.85949 7.50793C8.77157 7.68376 8.48144 7.71893 8.24407 7.58705C8.11291 7.51345 8.01294 7.39474 7.96273 7.25297Z" fill="white"/>
</g>
<path id="Vector_5" d="M5.24475 5.24724L8.72266 5.25496C8.82067 5.25518 8.90026 5.17595 8.90038 5.07804C8.90191 4.3926 8.34738 3.83557 7.66194 3.83403L5.24793 3.8287L5.24909 3.30918C5.40839 3.24047 5.55761 3.14133 5.68799 3.01154C6.24323 2.45878 6.24525 1.5606 5.69249 1.00535C5.13974 0.450104 4.24155 0.448083 3.68631 1.00084C3.13106 1.55359 3.12905 2.45178 3.6818 3.00703C3.72914 3.05457 3.77888 3.09784 3.83083 3.13724L3.82928 3.82541L3.14112 3.82386C3.10195 3.77173 3.0588 3.72169 3.01157 3.67425C2.45882 3.119 1.56063 3.11698 1.00539 3.66974C0.450142 4.22249 0.448126 5.12068 1.00088 5.67593C1.55364 6.23117 2.45183 6.23319 3.00707 5.68044C3.13745 5.55064 3.23726 5.40186 3.30668 5.24288L3.8262 5.24405L3.82068 7.65806C3.81914 8.34351 4.37367 8.90053 5.05912 8.90208C5.15703 8.9024 5.23662 8.82317 5.23684 8.72516L5.24475 5.24724ZM4.35203 2.3398C4.16813 2.15507 4.1688 1.85497 4.35353 1.67107C4.53827 1.48717 4.83836 1.48784 5.02226 1.67258C5.20617 1.85731 5.20549 2.1574 5.02076 2.3413C4.83603 2.52521 4.53594 2.52453 4.35203 2.3398ZM1.67111 5.0087C1.48721 4.82397 1.48788 4.52387 1.67261 4.33997C1.85735 4.15607 2.15744 4.15674 2.34134 4.34148C2.52525 4.52621 2.52457 4.8263 2.33984 5.0102C2.15511 5.19411 1.85502 5.19343 1.67111 5.0087Z" fill="#586582"/>
</g>
</svg>
