<svg width="13" height="15" viewBox="0 0 13 15" fill="none" xmlns="http://www.w3.org/2000/svg">
<path d="M2.51508 5.83147C2.63388 6.14116 2.78526 6.43734 2.96667 6.71503C3.36228 7.40794 3.67216 8.14639 3.8895 8.91411C3.97962 9.23091 3.99996 9.56349 3.94911 9.8889C3.89826 10.2143 3.77744 10.5248 3.59498 10.799C3.19858 11.3757 2.8316 11.9721 2.49544 12.5858C2.24563 13.0991 2.03558 13.6308 1.86713 14.1762H2.78996C2.8685 13.9013 2.94704 13.6264 3.04521 13.3712C3.41827 12.5465 4.10548 12.0557 4.93014 11.7415C5.87313 11.3704 6.90522 11.2884 7.89498 11.5059C8.5556 11.6584 9.14031 12.0413 9.54429 12.5858C9.93163 13.0797 10.2549 13.6207 10.5064 14.1958H11.7041C11.4675 13.3683 11.096 12.5855 10.6046 11.879C10.31 11.447 10.0155 11.015 9.76027 10.5831C9.63907 10.3925 9.56206 10.1772 9.53488 9.95292C9.5077 9.72869 9.53104 9.50121 9.60319 9.28717C9.89231 8.41391 10.24 7.56114 10.6438 6.73466C10.6734 6.67062 10.6996 6.60508 10.7224 6.53832C10.5849 6.55795 10.526 6.6954 10.4082 6.7543C9.95179 7.01109 9.45304 7.18399 8.93561 7.2648C8.39109 7.36008 7.83909 7.40608 7.2863 7.40224C6.69726 7.42188 6.08859 7.44151 5.49955 7.42188C4.88869 7.41943 4.28333 7.30634 3.71279 7.08809C3.51088 7.01303 3.33585 6.8796 3.20998 6.70478C3.08411 6.52996 3.01309 6.32165 3.00594 6.10636V5.92964C3.01871 5.84583 3.04857 5.76554 3.09368 5.69375C3.13878 5.62197 3.19816 5.56022 3.26813 5.51235C3.3381 5.46447 3.41716 5.4315 3.50041 5.41546C3.58366 5.39943 3.66932 5.40068 3.75206 5.41914C4.08585 5.47805 4.41964 5.57622 4.73379 5.65476C5.57809 5.87074 6.40274 5.81183 7.24703 5.67439C7.95388 5.55658 8.64109 5.39951 9.36758 5.32097C9.61589 5.30132 9.86538 5.30132 10.1137 5.32097C10.3278 5.349 10.5228 5.45855 10.6582 5.6268C10.7935 5.79505 10.8587 6.00903 10.8402 6.22416C11.2132 5.7333 11.2918 5.18353 11.2132 4.55522C11.0954 3.59312 10.9776 2.61138 10.9384 1.62965L10.153 1.41367C10.143 1.407 10.1316 1.4027 10.1198 1.4011C10.1079 1.39949 10.0958 1.40063 10.0844 1.40442C10.0731 1.40821 10.0627 1.41455 10.0542 1.42296C10.0456 1.43137 10.0391 1.44163 10.0352 1.45294C10.1579 1.86756 10.2239 2.29687 10.2315 2.72919C10.218 2.96631 10.1509 3.19728 10.0353 3.40474C9.91967 3.61219 9.75851 3.79073 9.56392 3.92691C8.80287 4.51864 7.89157 4.88588 6.93288 4.98718C6.81507 5.00681 6.69726 5.00681 6.55982 5.02645C5.41525 5.04533 4.30876 4.61542 3.47717 3.82873C3.33533 3.69791 3.22069 3.54039 3.13982 3.36519C3.05896 3.18998 3.01347 3.00055 3.00594 2.80773C2.95983 2.3629 2.97304 1.91392 3.04521 1.47257C2.61325 1.45294 2.22056 1.61001 1.80823 1.70819C2.10522 2.49246 2.25821 3.3239 2.25983 4.16252C2.24234 4.72975 2.32885 5.29539 2.51508 5.83147ZM10.1726 4.3196C10.1333 4.29997 10.1333 4.28033 10.1333 4.2607C10.1922 4.18216 10.2119 4.10362 10.31 4.10362C10.3493 4.10362 10.3493 4.12325 10.3493 4.16252C10.31 4.22143 10.2708 4.29997 10.1726 4.3196ZM10.4082 2.74883C10.3297 2.74883 10.3297 2.65065 10.3297 2.61138C10.3243 2.60121 10.3216 2.58981 10.3218 2.57828C10.3221 2.56676 10.3254 2.55551 10.3313 2.54562C10.3373 2.53574 10.3457 2.52755 10.3557 2.52188C10.3657 2.5162 10.3771 2.51321 10.3886 2.51321C10.4671 2.53284 10.4671 2.61138 10.4671 2.65065C10.4671 2.68992 10.4475 2.74883 10.4082 2.74883ZM10.4868 3.00408C10.4868 3.04335 10.4868 3.10225 10.4278 3.10225C10.3297 3.10225 10.3689 3.02371 10.3493 2.96481V2.94517C10.3493 2.9059 10.3689 2.86663 10.4082 2.86663C10.5064 2.9059 10.4868 2.96481 10.4868 3.00408ZM10.3297 3.37714C10.3493 3.31823 10.3297 3.25933 10.4082 3.23969H10.4278C10.4475 3.23969 10.4671 3.27896 10.4671 3.2986C10.4475 3.3575 10.4671 3.43604 10.3886 3.45567C10.31 3.47531 10.31 3.43604 10.3297 3.37714ZM10.5653 3.82873C10.526 3.88764 10.526 3.96618 10.4278 3.98581C10.3886 3.96618 10.3689 3.94654 10.3886 3.90727C10.4082 3.868 10.4278 3.75019 10.526 3.75019C10.5849 3.75019 10.5849 3.78946 10.5653 3.82873ZM10.6046 3.61275C10.5653 3.61275 10.5457 3.57348 10.5457 3.53421C10.5457 3.49494 10.5457 3.39677 10.6242 3.37714C10.7027 3.3575 10.7027 3.39677 10.7027 3.43604C10.7027 3.51458 10.7027 3.59312 10.6046 3.61275ZM10.742 3.14152C10.742 3.20042 10.742 3.25933 10.6635 3.23969C10.5849 3.22006 10.6046 3.14152 10.6046 3.10225C10.6046 3.06298 10.6046 2.98444 10.6635 3.00408C10.7224 3.02371 10.7224 3.10225 10.742 3.14152ZM10.6831 2.78809C10.6885 2.79827 10.6912 2.80967 10.6909 2.82119C10.6906 2.83272 10.6874 2.84397 10.6814 2.85386C10.6755 2.86374 10.6671 2.87192 10.6571 2.8776C10.6471 2.88328 10.6357 2.88627 10.6242 2.88627C10.5457 2.88627 10.5457 2.7881 10.526 2.74883C10.5064 2.70956 10.5064 2.65065 10.5653 2.65065C10.6831 2.65065 10.6635 2.74883 10.6831 2.78809ZM10.6046 2.41504C10.6046 2.45431 10.6046 2.51321 10.5457 2.49357C10.4868 2.47394 10.4868 2.3954 10.4671 2.3365V2.31686C10.4662 2.3089 10.467 2.30082 10.4697 2.29325C10.4723 2.28567 10.4766 2.27879 10.4823 2.27312C10.4879 2.26744 10.4948 2.26313 10.5024 2.26051C10.51 2.25788 10.5181 2.25701 10.526 2.25796C10.6046 2.27759 10.5849 2.35613 10.6046 2.41504ZM10.4671 1.8849C10.5457 1.92417 10.526 2.00271 10.526 2.04198C10.526 2.08125 10.526 2.14015 10.4671 2.12052C10.4082 2.10088 10.4082 2.02234 10.4082 1.96344C10.4082 1.90454 10.4082 1.8849 10.4671 1.8849ZM10.2708 2.14015C10.2968 2.14536 10.3197 2.1607 10.3344 2.18279C10.3492 2.20489 10.3545 2.23192 10.3493 2.25796C10.3493 2.29723 10.3886 2.35613 10.31 2.37577C10.2315 2.3954 10.2315 2.31686 10.2315 2.25796C10.2315 2.19906 10.2119 2.15979 10.2708 2.14015ZM10.31 3.59312C10.3297 3.59312 10.3493 3.61275 10.3493 3.65202C10.31 3.71093 10.31 3.78946 10.2119 3.8091C10.1922 3.8091 10.153 3.78946 10.153 3.76983C10.1922 3.71092 10.2119 3.61275 10.31 3.59312ZM9.93698 4.10362C9.94628 4.06557 9.96585 4.0308 9.99354 4.0031C10.0212 3.97541 10.056 3.95584 10.0941 3.94654C10.1333 3.94654 10.1333 3.96618 10.1333 4.00545C10.0941 4.06435 10.0548 4.14289 9.97625 4.16252C9.93698 4.16252 9.91735 4.14289 9.93698 4.10362ZM10.0352 4.41777C10.0092 4.47074 9.97052 4.51642 9.92253 4.5507C9.87455 4.58497 9.81878 4.60677 9.76027 4.61412C9.83881 4.45704 9.87808 4.43741 10.0352 4.41777ZM9.60319 4.41777C9.62488 4.37689 9.65561 4.3415 9.69303 4.31428C9.73046 4.28706 9.7736 4.26873 9.81917 4.2607L9.83881 4.29997C9.78254 4.37981 9.69853 4.43581 9.60319 4.45704C9.58356 4.41777 9.60319 4.41777 9.60319 4.41777ZM9.62283 4.71229C9.5828 4.76214 9.53194 4.8022 9.47409 4.82942C9.41625 4.85664 9.35296 4.87031 9.28904 4.86937C9.3304 4.82107 9.38154 4.7821 9.43908 4.75502C9.49662 4.72795 9.55925 4.71338 9.62283 4.71229ZM9.44612 4.53558C9.41831 4.58376 9.3782 4.62368 9.32991 4.65128C9.28161 4.67888 9.22685 4.69316 9.17123 4.69266C9.19715 4.64286 9.23685 4.60158 9.28559 4.57372C9.33433 4.54587 9.39006 4.53263 9.44612 4.53558ZM9.2105 4.92827C9.16699 4.97792 9.11214 5.01634 9.05061 5.04027C8.98909 5.0642 8.9227 5.07293 8.85708 5.06572C8.90059 5.01607 8.95543 4.97765 9.01696 4.95372C9.07849 4.9298 9.14488 4.92107 9.2105 4.92827ZM9.03379 4.7712C9.02324 4.78926 9.01655 4.80932 9.01415 4.8301C8.93561 4.86937 8.85708 4.94791 8.7589 4.90864C8.73927 4.90864 8.73927 4.86937 8.73927 4.86937C8.82539 4.80788 8.928 4.77368 9.03379 4.7712ZM8.71963 5.16389C8.66848 5.20747 8.60911 5.24034 8.54503 5.26058C8.48096 5.28081 8.41347 5.288 8.34657 5.2817C8.38957 5.22667 8.44823 5.18595 8.51483 5.16492C8.58142 5.14389 8.65283 5.14353 8.71963 5.16389ZM8.56256 4.98718C8.52182 5.03396 8.46967 5.06939 8.41117 5.09004C8.35268 5.11068 8.28984 5.11583 8.22877 5.10499C8.26848 5.05691 8.32052 5.02055 8.37932 4.99979C8.43812 4.97904 8.50146 4.97468 8.56256 4.98718ZM7.81644 5.43878C7.86377 5.38997 7.92354 5.35503 7.98929 5.33773C8.05504 5.32043 8.12427 5.32142 8.1895 5.3406C8.08147 5.41815 7.94864 5.4531 7.81644 5.43878ZM8.11096 5.16389C8.01053 5.24324 7.88549 5.28492 7.75753 5.2817C7.83607 5.16389 7.87534 5.16389 8.11096 5.16389ZM7.2274 5.53695C7.27696 5.4989 7.33512 5.47362 7.39675 5.46335C7.45838 5.45308 7.5216 5.45812 7.58082 5.47805C7.53126 5.5161 7.4731 5.54137 7.41147 5.55165C7.34983 5.56192 7.28662 5.55687 7.2274 5.53695ZM7.56119 5.2817C7.5129 5.32219 7.45558 5.35046 7.39407 5.36413C7.33255 5.3778 7.26865 5.37646 7.20776 5.36024C7.25767 5.3227 7.31502 5.29627 7.37598 5.28273C7.43693 5.26918 7.50008 5.26883 7.56119 5.2817ZM7.05069 5.55658C6.99006 5.59507 6.92194 5.62022 6.85085 5.63037C6.77977 5.64053 6.70733 5.63546 6.63836 5.61549C6.69923 5.57758 6.76733 5.55276 6.83832 5.54262C6.90931 5.53248 6.98163 5.53723 7.05069 5.55658ZM6.04932 5.59585C6.10047 5.56517 6.15969 5.55062 6.21924 5.55413C6.27879 5.55763 6.3359 5.57902 6.38311 5.61549C6.32945 5.63698 6.27172 5.64637 6.21402 5.64297C6.15632 5.63958 6.10008 5.62349 6.04932 5.59585ZM6.46165 5.39951C6.40156 5.44266 6.32945 5.46587 6.25548 5.46587C6.18151 5.46587 6.1094 5.44266 6.04932 5.39951C6.18606 5.37985 6.32491 5.37985 6.46165 5.39951ZM3.43791 4.73193C3.49756 4.72039 3.55938 4.72969 3.613 4.75829C3.66661 4.78688 3.70878 4.83303 3.73243 4.88901C3.57535 4.90864 3.51644 4.81047 3.43791 4.73193ZM5.85297 5.39951C5.79863 5.42209 5.73939 5.43034 5.68095 5.42347C5.6225 5.41659 5.5668 5.39482 5.51918 5.36024C5.57226 5.33223 5.63258 5.321 5.69218 5.32801C5.75178 5.33502 5.80784 5.35995 5.85297 5.39951ZM5.79407 5.57622C5.73405 5.60361 5.66779 5.61441 5.60218 5.6075C5.53657 5.6006 5.47401 5.57623 5.42101 5.53695C5.4818 5.51321 5.5474 5.50439 5.61231 5.51122C5.67722 5.51805 5.73955 5.54034 5.79407 5.57622ZM5.34247 5.30133C5.28306 5.31421 5.22137 5.31196 5.16306 5.29481C5.10474 5.27766 5.05166 5.24615 5.00868 5.20316C5.06812 5.19278 5.12915 5.19624 5.18704 5.21326C5.24493 5.23029 5.29811 5.26043 5.34247 5.30133ZM5.22466 5.45841C5.16706 5.4761 5.10579 5.47815 5.04713 5.46435C4.98847 5.45055 4.93454 5.42139 4.89087 5.37987C4.94883 5.36687 5.00897 5.36718 5.06679 5.38078C5.12461 5.39439 5.17859 5.42093 5.22466 5.45841ZM4.8516 5.16389C4.71015 5.15711 4.57371 5.10936 4.45891 5.02645C4.53049 5.00488 4.60706 5.00657 4.67762 5.03126C4.74818 5.05596 4.8091 5.10239 4.8516 5.16389ZM4.69452 5.32097C4.56911 5.32812 4.44485 5.29361 4.3411 5.2228C4.49818 5.16389 4.55708 5.18353 4.69452 5.32097ZM4.4 4.92827C4.3312 4.94489 4.25901 4.94069 4.1926 4.91622C4.12618 4.89175 4.06853 4.84811 4.02695 4.79083C4.16439 4.7712 4.26256 4.84974 4.4 4.92827ZM4.18402 5.10499C4.06622 5.14426 3.96804 5.06572 3.8306 4.96754C3.89632 4.95875 3.9632 4.96674 4.025 4.99078C4.0868 5.01481 4.14151 5.0541 4.18402 5.10499ZM3.65389 4.55522C3.704 4.5576 3.75294 4.57118 3.79711 4.59497C3.84128 4.61875 3.87956 4.65213 3.90914 4.69266L3.8895 4.73193C3.7717 4.73193 3.71279 4.65339 3.61462 4.59449C3.63425 4.55522 3.65389 4.55522 3.65389 4.55522ZM3.3201 4.2607C3.36062 4.26936 3.39821 4.28838 3.42918 4.31591C3.46016 4.34345 3.48346 4.37854 3.49681 4.41777C3.49681 4.45704 3.47717 4.45704 3.43791 4.45704C3.36599 4.42147 3.30496 4.36721 3.26119 4.29997C3.26119 4.2607 3.30046 4.2607 3.3201 4.2607ZM3.3201 4.59449C3.18265 4.61412 3.12375 4.55522 3.04521 4.43741C3.20229 4.39814 3.24156 4.53558 3.3201 4.59449ZM3.02558 3.94654C3.10412 3.96618 3.14339 4.04471 3.18265 4.10362C3.1836 4.11158 3.18273 4.11966 3.1801 4.12723C3.17748 4.13481 3.17317 4.1417 3.1675 4.14737C3.16183 4.15304 3.15494 4.15735 3.14737 4.15997C3.13979 4.1626 3.13171 4.16347 3.12375 4.16252C3.08622 4.14638 3.0527 4.12218 3.02555 4.09164C2.99841 4.0611 2.97831 4.02498 2.96667 3.98581C2.96667 3.96618 3.00594 3.94654 3.02558 3.94654ZM2.96667 4.2607C2.96667 4.29996 2.96667 4.3196 2.9274 4.3196C2.82923 4.29997 2.78996 4.22143 2.75069 4.16252C2.75069 4.14289 2.73106 4.14289 2.75069 4.12325C2.77033 4.10362 2.77033 4.08398 2.8096 4.10362C2.84887 4.12325 2.90777 4.20179 2.96667 4.2607ZM2.9274 3.75019C2.94704 3.8091 2.9274 3.82873 2.88813 3.84837C2.8096 3.82873 2.78996 3.75019 2.77033 3.69129C2.75069 3.63239 2.77033 3.61275 2.8096 3.61275C2.90777 3.61275 2.88813 3.71093 2.9274 3.75019ZM2.8096 3.3575C2.8096 3.39677 2.82923 3.45567 2.77033 3.47531C2.71142 3.49494 2.69179 3.39677 2.69179 3.3575C2.69179 3.31823 2.65252 3.25933 2.73106 3.23969C2.8096 3.22006 2.8096 3.31823 2.8096 3.3575ZM2.71142 3.10225C2.65252 3.08262 2.65252 3.02371 2.65252 2.96481C2.65252 2.9059 2.65252 2.86663 2.71142 2.86663C2.8096 2.86663 2.77033 2.96481 2.78996 3.00408C2.77033 3.06298 2.78996 3.12188 2.71142 3.10225ZM2.75069 2.65065C2.75069 2.70956 2.77033 2.76846 2.69179 2.74883C2.61325 2.72919 2.63288 2.67029 2.63288 2.63102C2.63288 2.59175 2.61325 2.51321 2.69179 2.53284C2.75069 2.51321 2.75069 2.59175 2.75069 2.65065ZM2.61325 2.25796C2.61325 2.21869 2.61325 2.15979 2.67215 2.15979C2.73106 2.15979 2.73106 2.23832 2.73106 2.29723C2.73106 2.35613 2.73106 2.3954 2.65252 2.3954C2.57398 2.3954 2.61325 2.29723 2.61325 2.25796ZM2.57398 3.75019C2.65252 3.76983 2.67215 3.868 2.69179 3.90727V3.94654C2.69179 3.96618 2.67215 3.98581 2.63288 3.98581C2.55435 3.96618 2.53471 3.88764 2.51508 3.82873C2.49544 3.76983 2.53471 3.75019 2.57398 3.75019ZM2.57398 3.51458C2.57398 3.55385 2.59361 3.61275 2.51508 3.61275C2.43654 3.61275 2.43654 3.51458 2.43654 3.47531C2.43654 3.43604 2.43654 3.37714 2.47581 3.37714C2.57398 3.37714 2.55435 3.45567 2.57398 3.51458ZM2.47581 3.23969C2.39727 3.23969 2.39727 3.18079 2.39727 3.12188C2.39727 3.06298 2.39727 3.00408 2.45617 3.00408C2.51508 3.00408 2.51508 3.08262 2.51508 3.12188C2.51508 3.18079 2.53471 3.23969 2.47581 3.23969ZM2.43654 2.86663C2.358 2.86663 2.358 2.7881 2.358 2.74883C2.358 2.70956 2.358 2.63102 2.4169 2.63102C2.47581 2.63102 2.49544 2.70956 2.49544 2.76846C2.49544 2.82736 2.49544 2.86663 2.43654 2.86663ZM2.358 2.00271C2.358 1.9438 2.358 1.90453 2.4169 1.8849C2.49544 1.90453 2.47581 1.96344 2.47581 2.02234C2.47581 2.08125 2.45617 2.14015 2.39727 2.12052C2.33836 2.10088 2.358 2.06161 2.358 2.00271ZM2.4169 2.25796C2.49544 2.25796 2.49544 2.31686 2.49544 2.37577C2.49544 2.43467 2.51508 2.47394 2.43654 2.49357C2.358 2.51321 2.358 2.43467 2.358 2.37577C2.358 2.31686 2.33836 2.25796 2.4169 2.25796Z" fill="#242F46"/>
<path d="M10.5063 14.1762C10.2546 13.6073 9.93133 13.0728 9.54425 12.5858C9.14026 12.0413 8.55556 11.6584 7.89493 11.5059C6.90517 11.2884 5.87309 11.3705 4.9301 11.7415C4.12508 12.0753 3.43786 12.5465 3.04517 13.3712C2.94699 13.6461 2.86846 13.9013 2.78992 14.1762H10.5063Z" fill="#586582"/>
<path d="M10.6046 11.8791C11.0997 12.5835 11.4715 13.367 11.7041 14.1959H13C12.8334 13.3892 12.4989 12.6266 12.0183 11.9576C11.6845 11.4864 11.3703 10.9955 11.0169 10.5439C10.5653 9.97449 10.5064 9.34618 10.6831 8.65896C10.9187 7.6576 11.4096 6.7544 11.9594 5.89048C11.9958 5.84379 12.0216 5.78979 12.0352 5.73218C12.0487 5.67456 12.0497 5.6147 12.0379 5.55669C11.9518 5.22066 11.8862 4.87969 11.8416 4.53568C11.7434 3.90737 11.5274 3.31833 11.5667 2.69002C11.5863 2.47404 11.5863 2.25806 11.606 2.04208C11.606 1.94391 11.5863 1.90464 11.5078 1.885C11.3114 1.84573 11.1151 1.80646 10.9187 1.74756C10.9777 2.72929 11.0758 3.69139 11.1936 4.67313C11.2722 5.2818 11.2133 5.83157 10.8206 6.34207L10.7224 6.49915L10.6831 6.53842C10.6655 6.60698 10.6391 6.67298 10.6046 6.73477C10.2057 7.56344 9.85812 8.41589 9.56396 9.28727C9.49659 9.50204 9.47576 9.7287 9.50285 9.95215C9.52993 10.1756 9.60431 10.3907 9.72103 10.5832L10.6046 11.8791Z" fill="url(#paint0_linear_151_17262)"/>
<path d="M6.52066 3.31826C6.50103 2.21872 6.50103 1.09954 6.50103 0H5.14623C5.08733 0.58904 4.71427 0.981734 4.1645 1.21735C3.79604 1.35445 3.41442 1.45315 3.02569 1.51187C2.9443 1.95229 2.93105 2.40259 2.98642 2.84703C3.00618 3.23534 3.17497 3.60106 3.45765 3.86803C4.29492 4.65825 5.40887 5.08832 6.55993 5.06575C6.55993 4.51598 6.55993 3.9662 6.5403 3.41643V3.31826H6.52066Z" fill="#C2C2C6"/>
<path d="M1.69053 3.35767C1.63163 4.18232 1.55309 5.00698 1.47455 5.812C1.51382 5.94944 1.41564 6.08688 1.57272 6.20469C2.02572 6.60593 2.39311 7.09444 2.65289 7.64099C2.91267 8.18754 3.0595 8.78089 3.08459 9.38551C3.10909 10.1241 2.85703 10.8453 2.37774 11.4079C1.69284 12.2434 1.149 13.1852 0.7677 14.196H1.86724C2.04248 13.653 2.25235 13.1218 2.49555 12.6056C2.83171 11.9919 3.19869 11.3955 3.59509 10.8188C3.77683 10.5443 3.89722 10.2338 3.94805 9.90852C3.99888 9.58323 3.97894 9.2508 3.88961 8.93391C3.67227 8.16619 3.36239 7.42774 2.96678 6.73483C2.78925 6.45491 2.63807 6.15912 2.51519 5.85127C2.33663 5.32633 2.24381 4.77606 2.2403 4.22159C2.24161 3.38087 2.08165 2.54771 1.76907 1.76726C1.6351 1.76411 1.50388 1.80555 1.39601 1.88506C1.53345 2.3563 1.74943 2.82753 1.69053 3.35767Z" fill="url(#paint1_linear_151_17262)"/>
<path d="M6.54016 5.08547V3.43616C7.81641 3.35762 8.81778 2.72931 9.68171 1.84575C9.79952 1.72794 9.89769 1.61014 9.99586 1.51196C10.1186 1.92658 10.1846 2.35589 10.1922 2.78822C10.1787 3.02534 10.1116 3.25631 9.99601 3.46376C9.88038 3.67122 9.71921 3.84975 9.52463 3.98593C8.76358 4.57766 7.85228 4.9449 6.89359 5.0462C6.77873 5.07859 6.65933 5.09186 6.54016 5.08547Z" fill="black"/>
<path d="M1.41553 1.86523C1.55298 2.3561 1.74932 2.82733 1.71005 3.33784C1.65115 4.16249 1.57261 4.98715 1.49407 5.79217C1.03726 5.233 0.629945 4.63516 0.276724 4.00541C0.16295 3.79494 0.0771416 3.57052 0.0214727 3.33784C-0.0183843 3.14791 -0.0025267 2.95051 0.0671385 2.76938C0.136804 2.58825 0.257311 2.4311 0.414166 2.31683C0.720187 2.11106 1.05873 1.95839 1.41553 1.86523Z" fill="#C2C2C6"/>
<path d="M10.8205 6.28298L10.7223 6.49896L10.683 6.53823C10.5456 6.55786 10.4867 6.69531 10.3689 6.75421C9.91245 7.011 9.4137 7.1839 8.89627 7.26471C8.35044 7.34947 7.79929 7.3954 7.24696 7.40215C6.65792 7.42179 6.04925 7.44142 5.46021 7.42179C4.84935 7.41934 4.24399 7.30625 3.67345 7.088C3.47153 7.01294 3.29651 6.87951 3.17064 6.70469C3.04477 6.52987 2.97375 6.32157 2.9666 6.10627C2.95361 5.93703 3.00836 5.76956 3.11882 5.64069C3.22928 5.51181 3.38641 5.43209 3.55564 5.41905H3.73235C4.06614 5.47796 4.39993 5.57613 4.71409 5.65467C5.55838 5.87065 6.38304 5.81175 7.22733 5.6743C7.93418 5.5565 8.62139 5.39942 9.34787 5.32088C9.59647 5.29775 9.84695 5.30434 10.094 5.34051C10.3087 5.38291 10.5008 5.50184 10.6344 5.6752C10.768 5.84855 10.8341 6.06453 10.8205 6.28298Z" fill="#586582"/>
<path d="M4.69449 5.32113C4.56908 5.32829 4.44482 5.29377 4.34106 5.22296C4.49814 5.16406 4.55705 5.18369 4.69449 5.32113Z" fill="#BCC9BE"/>
<path d="M10.6045 2.41503C10.6045 2.4543 10.6045 2.5132 10.5456 2.49357C10.4474 2.47393 10.4867 2.3954 10.4671 2.33649C10.4474 2.31686 10.4671 2.27759 10.5063 2.27759H10.526C10.6045 2.27759 10.5849 2.35613 10.6045 2.41503Z" fill="#BECED0"/>
<path d="M2.49562 2.76855C2.49562 2.82745 2.49562 2.88635 2.41708 2.86672C2.33854 2.84709 2.35817 2.78818 2.33854 2.74891C2.31891 2.70964 2.33854 2.6311 2.39744 2.6311C2.49562 2.6311 2.49562 2.70964 2.49562 2.76855Z" fill="#BCC9BE"/>
<path d="M7.05088 5.55651C6.99025 5.59499 6.92213 5.62014 6.85105 5.6303C6.77996 5.64045 6.70753 5.63538 6.63855 5.61541C6.69942 5.5775 6.76752 5.55269 6.83851 5.54254C6.9095 5.5324 6.98183 5.53716 7.05088 5.55651Z" fill="#BECCC7"/>
<path d="M2.77028 3.47526C2.69174 3.47526 2.69174 3.41636 2.69174 3.35746C2.69174 3.29855 2.67211 3.25928 2.73101 3.23965C2.78991 3.22001 2.80955 3.29855 2.80955 3.35746C2.80955 3.41636 2.82918 3.45563 2.77028 3.47526Z" fill="#BFD0D6"/>
<path d="M2.67227 2.14014C2.75081 2.15977 2.73118 2.21868 2.73118 2.27758C2.73118 2.33648 2.73118 2.37575 2.65264 2.37575C2.5741 2.37575 2.59373 2.29721 2.59373 2.25795C2.59291 2.23257 2.60003 2.20757 2.61412 2.18645C2.6282 2.16532 2.64853 2.14913 2.67227 2.14014Z" fill="#BCC9BE"/>
<path d="M2.75074 2.65069C2.75074 2.7096 2.75074 2.7685 2.69184 2.74887C2.63293 2.72923 2.63293 2.67033 2.63293 2.63106C2.63293 2.59179 2.63293 2.51325 2.69184 2.53288C2.75074 2.55252 2.75074 2.59179 2.75074 2.65069Z" fill="#BECCC7"/>
<path d="M7.22729 5.53704C7.27686 5.49898 7.33501 5.47371 7.39665 5.46343C7.45828 5.45316 7.5215 5.45821 7.58072 5.47813C7.53116 5.51618 7.473 5.54146 7.41136 5.55173C7.34973 5.56201 7.28652 5.55696 7.22729 5.53704Z" fill="#BECCC7"/>
<path d="M7.797 5.43877C7.84433 5.38997 7.9041 5.35503 7.96985 5.33772C8.0356 5.32042 8.10483 5.32141 8.17006 5.3406C8.11767 5.38121 8.05763 5.41083 7.99353 5.4277C7.92943 5.44457 7.86259 5.44834 7.797 5.43877Z" fill="#BECCC7"/>
<path d="M5.81373 5.57617C5.75371 5.60355 5.68745 5.61436 5.62184 5.60745C5.55623 5.60054 5.49367 5.57618 5.44067 5.5369C5.50168 5.51425 5.56709 5.50601 5.6318 5.51282C5.69652 5.51963 5.75878 5.54131 5.81373 5.57617Z" fill="#BECCC7"/>
<path d="M2.9666 4.26077C2.9666 4.30004 2.9666 4.31968 2.92733 4.31968C2.82915 4.30004 2.78988 4.22151 2.75061 4.1626C2.74613 4.15911 2.7425 4.15465 2.74 4.14954C2.7375 4.14444 2.73621 4.13883 2.73621 4.13315C2.73621 4.12747 2.7375 4.12186 2.74 4.11676C2.7425 4.11165 2.74613 4.10718 2.75061 4.1037C2.77025 4.1037 2.77025 4.08406 2.78988 4.1037C2.86842 4.12333 2.90769 4.20187 2.9666 4.26077Z" fill="#C0D3DE"/>
<path d="M9.28894 4.86952C9.32896 4.81968 9.37983 4.77962 9.43767 4.7524C9.49552 4.72518 9.55881 4.71151 9.62273 4.71245C9.58271 4.7623 9.53184 4.80236 9.474 4.82958C9.41615 4.8568 9.35286 4.87046 9.28894 4.86952Z" fill="#BFD0D6"/>
<path d="M10.3493 4.16252C10.2904 4.22142 10.2511 4.31959 10.1529 4.31959C10.1428 4.31871 10.1333 4.31429 10.1261 4.3071C10.119 4.29992 10.1145 4.29044 10.1136 4.28032V4.26069C10.1529 4.18215 10.1922 4.10361 10.2904 4.10361C10.3493 4.08398 10.3493 4.12325 10.3493 4.16252Z" fill="#BECCC7"/>
<path d="M3.43787 4.73188C3.49753 4.72033 3.55934 4.72964 3.61296 4.75824C3.66657 4.78683 3.70874 4.83298 3.73239 4.88895C3.57531 4.90859 3.5164 4.81042 3.43787 4.73188Z" fill="#BECCC7"/>
<path d="M3.83057 4.96759C3.89646 4.95406 3.96485 4.95983 4.02754 4.98421C4.09023 5.00859 4.14455 5.05055 4.18399 5.10504C4.06618 5.1443 3.96801 5.06577 3.83057 4.96759Z" fill="#BECCC7"/>
<path d="M8.71949 5.16394C8.66834 5.20751 8.60897 5.24039 8.5449 5.26062C8.48082 5.28086 8.41334 5.28804 8.34644 5.28174C8.38943 5.22671 8.44809 5.186 8.51469 5.16497C8.58129 5.14394 8.65269 5.14358 8.71949 5.16394Z" fill="#BECED0"/>
<path d="M5.53882 5.34064C5.59389 5.32207 5.6524 5.31597 5.71013 5.32276C5.76785 5.32955 5.82334 5.34907 5.87261 5.37991C5.81968 5.40846 5.75924 5.42001 5.69951 5.41299C5.63978 5.40596 5.58367 5.3807 5.53882 5.34064Z" fill="#BCC9BE"/>
<path d="M5.24419 5.45854C5.18659 5.47623 5.12531 5.47828 5.06666 5.46448C5.008 5.45068 4.95407 5.42152 4.9104 5.38C4.96841 5.36825 5.02828 5.36918 5.08589 5.38273C5.14351 5.39629 5.19751 5.42215 5.24419 5.45854Z" fill="#BECCC7"/>
<path d="M2.4169 1.88501C2.49544 1.90464 2.47581 1.96355 2.47581 2.02245C2.47581 2.08136 2.47581 2.14026 2.39727 2.12063C2.31873 2.10099 2.33836 2.06172 2.33836 2.00282C2.33507 1.97701 2.3412 1.95089 2.35563 1.92925C2.37006 1.9076 2.39182 1.89189 2.4169 1.88501Z" fill="#BECED0"/>
<path d="M10.4475 2.65063C10.4475 2.70953 10.4475 2.7488 10.3886 2.7488C10.3297 2.7488 10.3101 2.67026 10.3101 2.61136C10.3101 2.55245 10.3101 2.51318 10.369 2.51318C10.4279 2.51318 10.4279 2.61136 10.4475 2.65063Z" fill="#BECCC7"/>
<path d="M10.683 2.78819C10.7026 2.84709 10.683 2.88636 10.6241 2.88636C10.5652 2.88636 10.5455 2.80782 10.5259 2.74892C10.5063 2.69002 10.5063 2.65075 10.5652 2.65075C10.683 2.63111 10.6633 2.72929 10.683 2.78819Z" fill="#BFD0D6"/>
<path d="M10.4278 3.98586C10.3886 3.96623 10.3689 3.94659 10.3886 3.90732C10.4082 3.86805 10.4278 3.75024 10.526 3.75024C10.5653 3.75024 10.5849 3.78951 10.5653 3.82878C10.5456 3.86805 10.526 3.96623 10.4278 3.98586Z" fill="#BFD0D6"/>
<path d="M9.21048 4.94804C9.16423 4.99408 9.10896 5.03006 9.04814 5.05371C8.98732 5.07736 8.92226 5.08818 8.85706 5.08548C8.8987 5.03355 8.9533 4.9935 9.01534 4.96937C9.07738 4.94524 9.14469 4.93788 9.21048 4.94804Z" fill="#BFD0D6"/>
<path d="M8.56267 5.00691C8.46974 5.086 8.35087 5.12795 8.22888 5.12472C8.26354 5.07081 8.31516 5.02997 8.3756 5.00864C8.43603 4.98731 8.50185 4.9867 8.56267 5.00691Z" fill="#BFD0D6"/>
<path d="M4.85168 5.16389C4.71022 5.15712 4.57379 5.10936 4.45898 5.02645C4.53074 5.01028 4.6056 5.01459 4.67503 5.03889C4.74446 5.06319 4.80566 5.1065 4.85168 5.16389Z" fill="#BCC9BE"/>
<path d="M4.40004 4.94806C4.33125 4.96042 4.26041 4.9542 4.19483 4.93004C4.12925 4.90588 4.0713 4.86465 4.02698 4.81062C4.18405 4.77135 4.26259 4.84989 4.40004 4.94806Z" fill="#BECCC7"/>
<path d="M10.4671 1.90454C10.5456 1.92418 10.526 2.00271 10.526 2.06162C10.526 2.12052 10.526 2.15979 10.4671 2.14016C10.4082 2.12052 10.4082 2.04198 10.4082 1.98308C10.4082 1.92418 10.4278 1.90454 10.4671 1.90454Z" fill="#C0D3DE"/>
<path d="M10.2903 2.15991C10.3688 2.15991 10.3688 2.21882 10.3688 2.27772C10.3688 2.33662 10.3885 2.37589 10.3296 2.39553C10.2707 2.41516 10.251 2.33662 10.251 2.27772C10.251 2.21882 10.2118 2.17955 10.2903 2.15991Z" fill="#BECED0"/>
<path d="M10.3492 3.65204C10.3099 3.71095 10.3099 3.78949 10.2314 3.82876C10.2118 3.82876 10.1725 3.80912 10.1725 3.78949C10.1921 3.71095 10.2118 3.63241 10.3099 3.61277C10.3296 3.59314 10.3492 3.63241 10.3492 3.65204Z" fill="#BFD0D6"/>
<path d="M2.57392 3.75013C2.65246 3.76976 2.6721 3.8483 2.69173 3.9072C2.71137 3.92684 2.69173 3.94647 2.6721 3.96611H2.63283C2.55429 3.94647 2.53465 3.86793 2.51502 3.80903C2.51407 3.80107 2.51494 3.79299 2.51757 3.78541C2.52019 3.77784 2.52451 3.77095 2.53018 3.76528C2.53585 3.75961 2.54273 3.7553 2.55031 3.75268C2.55789 3.75005 2.56596 3.74918 2.57392 3.75013Z" fill="#C0D3DE"/>
<path d="M10.0351 4.4375C10.0061 4.48802 9.96649 4.53171 9.91906 4.56558C9.87163 4.59946 9.81747 4.62274 9.76025 4.63385C9.83879 4.45713 9.87806 4.4375 10.0351 4.4375Z" fill="#BECED0"/>
<path d="M7.20776 5.36034C7.25605 5.31985 7.31337 5.29158 7.37489 5.27791C7.4364 5.26424 7.5003 5.26557 7.56119 5.2818C7.51555 5.32668 7.45822 5.35784 7.39573 5.37173C7.33325 5.38562 7.26812 5.38167 7.20776 5.36034Z" fill="#BCC9BE"/>
<path d="M10.3885 3.47536C10.3296 3.47536 10.3296 3.43609 10.3296 3.37719C10.3296 3.31828 10.3296 3.23975 10.4081 3.23975C10.4278 3.23975 10.467 3.25938 10.467 3.27901V3.29865C10.4474 3.37719 10.467 3.45573 10.3885 3.47536Z" fill="#BECCC7"/>
<path d="M2.57409 3.51464C2.57409 3.55391 2.59372 3.63245 2.51518 3.61281C2.43665 3.59318 2.43665 3.53427 2.43665 3.47537C2.43665 3.41647 2.43665 3.3772 2.47592 3.3772C2.57409 3.3772 2.55445 3.45574 2.57409 3.51464Z" fill="#BFD0D6"/>
<path d="M3.43782 4.45709C3.3659 4.42151 3.30487 4.36726 3.26111 4.30001C3.26111 4.28038 3.30038 4.26074 3.32001 4.26074C3.36054 4.2694 3.39812 4.28843 3.4291 4.31596C3.46007 4.34349 3.48337 4.37859 3.49672 4.41782C3.51636 4.45709 3.47709 4.45709 3.43782 4.45709Z" fill="#BECCC7"/>
<path d="M9.03388 4.77124C9.01425 4.81051 9.01425 4.83014 8.99461 4.83014C8.91607 4.86941 8.83753 4.94795 8.73936 4.90868L8.71973 4.86941C8.81299 4.8075 8.92196 4.77345 9.03388 4.77124Z" fill="#BECED0"/>
<path d="M10.1334 4.00547C10.0941 4.06437 10.0548 4.14291 9.97629 4.16255C9.93702 4.16255 9.91739 4.14291 9.93702 4.12328C9.94632 4.08523 9.96589 4.05046 9.99359 4.02276C10.0213 3.99506 10.0561 3.9755 10.0941 3.9662C10.1137 3.94656 10.1334 3.9662 10.1334 4.00547Z" fill="#BFD0D6"/>
<path d="M3.18275 4.10373C3.1837 4.1117 3.18283 4.11977 3.1802 4.12735C3.17758 4.13493 3.17327 4.14181 3.1676 4.14748C3.16192 4.15315 3.15504 4.15746 3.14746 4.16009C3.13989 4.16271 3.13181 4.16358 3.12385 4.16264C3.08731 4.15037 3.05411 4.12981 3.02685 4.10255C2.9996 4.0753 2.97903 4.0421 2.96677 4.00556C2.94714 3.98592 2.9864 3.94665 3.02567 3.96629C3.10421 3.96629 3.14348 4.04483 3.18275 4.10373Z" fill="#BFD0D6"/>
<path d="M3.30028 4.59444C3.16283 4.61408 3.10393 4.53554 3.02539 4.43737C3.2021 4.3981 3.24137 4.53554 3.30028 4.59444Z" fill="#BFD0D6"/>
<path d="M3.59509 4.57491C3.63436 4.53564 3.63436 4.53564 3.654 4.53564C3.70411 4.53803 3.75305 4.55161 3.79722 4.5754C3.84139 4.59918 3.87967 4.63256 3.90925 4.67309L3.88961 4.71236C3.78049 4.69507 3.67843 4.64744 3.59509 4.57491Z" fill="#BECCC7"/>
<path d="M2.92723 3.75034C2.94687 3.80924 2.92723 3.84851 2.88796 3.82888C2.80942 3.80924 2.78979 3.7307 2.77015 3.6718C2.75052 3.6129 2.77015 3.59326 2.80942 3.59326C2.9076 3.6129 2.88796 3.71107 2.92723 3.75034Z" fill="#BFD0D6"/>
<path d="M2.7704 3.02367C2.7704 3.08258 2.7704 3.12185 2.71149 3.12185C2.65259 3.12185 2.65259 3.04331 2.65259 2.9844C2.65259 2.9255 2.65259 2.88623 2.71149 2.88623C2.7704 2.88623 2.75076 2.96477 2.7704 3.02367Z" fill="#BFD0D6"/>
<path d="M2.51523 3.14159C2.51523 3.18086 2.53487 3.23977 2.45633 3.23977C2.37779 3.23977 2.37779 3.18086 2.37779 3.12196C2.37779 3.06305 2.35816 3.00415 2.4367 3.00415C2.51523 3.00415 2.51523 3.08269 2.51523 3.14159Z" fill="#BECED0"/>
<path d="M5.34246 5.30137C5.28305 5.31424 5.22136 5.312 5.16304 5.29485C5.10473 5.27769 5.05165 5.24618 5.00867 5.2032C5.0681 5.19355 5.12895 5.19736 5.18672 5.21435C5.24449 5.23134 5.29771 5.26108 5.34246 5.30137Z" fill="#BECED0"/>
<path d="M8.11099 5.16386C8.00903 5.24033 7.88502 5.28167 7.75757 5.28167C7.83611 5.16386 7.87538 5.14423 8.11099 5.16386Z" fill="#BECED0"/>
<path d="M9.44627 4.53556C9.41846 4.58373 9.37836 4.62366 9.33006 4.65126C9.28177 4.67886 9.22701 4.69314 9.17139 4.69264C9.19731 4.64284 9.237 4.60156 9.28575 4.5737C9.33449 4.54585 9.39021 4.53261 9.44627 4.53556Z" fill="#BFD0D6"/>
<path d="M10.6243 3.39673C10.6832 3.39673 10.7029 3.41636 10.7029 3.45563C10.7029 3.53417 10.7029 3.61271 10.6047 3.63234C10.5654 3.63234 10.5458 3.59308 10.5458 3.55381C10.5458 3.51454 10.5654 3.41636 10.6243 3.39673Z" fill="#BFD0D6"/>
<path d="M10.7419 3.14159C10.7419 3.2005 10.7419 3.2594 10.6634 3.23977C10.5848 3.22013 10.6045 3.16123 10.6045 3.10232C10.6045 3.04342 10.6045 3.00415 10.6634 3.00415C10.7223 3.00415 10.7223 3.10232 10.7419 3.14159Z" fill="#C0D3DE"/>
<path d="M9.5835 4.47672V4.41782C9.60518 4.37694 9.63591 4.34154 9.67334 4.31433C9.71076 4.28711 9.7539 4.26878 9.79948 4.26074L9.81911 4.30001C9.76298 4.38402 9.67986 4.44636 9.5835 4.47672Z" fill="#BFD0D6"/>
<path d="M6.04932 5.59595C6.10047 5.56526 6.15969 5.55072 6.21924 5.55422C6.27879 5.55773 6.3359 5.57911 6.38311 5.61558C6.32945 5.63708 6.27172 5.64646 6.21402 5.64307C6.15632 5.63967 6.10008 5.62358 6.04932 5.59595Z" fill="#BECED0"/>
<path d="M6.02966 5.4191C6.1643 5.37983 6.30735 5.37983 6.44199 5.4191C6.3786 5.45313 6.30777 5.47094 6.23583 5.47094C6.16388 5.47094 6.09305 5.45313 6.02966 5.4191Z" fill="#BECED0"/>
<path d="M10.4278 2.88623C10.5064 2.90587 10.4867 2.96477 10.4867 3.02367C10.4867 3.08258 10.4867 3.12185 10.4278 3.12185C10.3296 3.12185 10.3689 3.04331 10.3493 2.9844C10.3451 2.97542 10.3428 2.96568 10.3426 2.95578C10.3423 2.94588 10.344 2.93604 10.3477 2.92684C10.3514 2.91765 10.3569 2.9093 10.3639 2.90232C10.371 2.89534 10.3793 2.88986 10.3885 2.88623H10.4278Z" fill="#BECED0"/>
<path d="M2.47598 2.37586C2.47598 2.41513 2.47598 2.47404 2.41708 2.49367C2.35817 2.51331 2.35817 2.43477 2.33854 2.37586C2.31891 2.31696 2.33854 2.25806 2.39744 2.25806C2.45635 2.25806 2.47598 2.3366 2.47598 2.37586Z" fill="#C0D3DE"/>
<path d="M10.7028 6.53829L10.742 6.49902L10.7028 6.53829Z" fill="#A78D08"/>
<defs>
<linearGradient id="paint0_linear_151_17262" x1="9.52076" y1="7.97175" x2="13.3593" y2="7.97175" gradientUnits="userSpaceOnUse">
<stop stop-color="#242F46"/>
<stop offset="1" stop-color="#586582"/>
</linearGradient>
<linearGradient id="paint1_linear_151_17262" x1="0.109939" y1="7.98163" x2="3.97601" y2="7.98163" gradientUnits="userSpaceOnUse">
<stop stop-color="#242F46"/>
<stop offset="1" stop-color="#586582"/>
</linearGradient>
</defs>
</svg>
