<svg width="14" height="15" viewBox="0 0 14 15" fill="none" xmlns="http://www.w3.org/2000/svg">
<g id="real-state">
<path id="Vector" d="M11.7811 7.48033H9.49348V6.33654C9.49348 6.02021 9.23791 5.76465 8.92158 5.76465H5.49021C5.17388 5.76465 4.91831 6.02021 4.91831 6.33654V7.48033H2.63073C2.3144 7.48033 2.05884 7.7359 2.05884 8.05223V14.629C2.05884 14.7863 2.18751 14.915 2.34479 14.915H12.067C12.2243 14.915 12.353 14.7863 12.353 14.629V8.05223C12.353 7.7359 12.0974 7.48033 11.7811 7.48033ZM4.91831 13.5567C4.91831 13.6747 4.82181 13.7712 4.70385 13.7712H3.98898C3.87103 13.7712 3.77452 13.6747 3.77452 13.5567V12.8419C3.77452 12.7239 3.87103 12.6274 3.98898 12.6274H4.70385C4.82181 12.6274 4.91831 12.7239 4.91831 12.8419V13.5567ZM4.91831 11.2691C4.91831 11.3871 4.82181 11.4836 4.70385 11.4836H3.98898C3.87103 11.4836 3.77452 11.3871 3.77452 11.2691V10.5543C3.77452 10.4363 3.87103 10.3398 3.98898 10.3398H4.70385C4.82181 10.3398 4.91831 10.4363 4.91831 10.5543V11.2691ZM7.77779 13.5567C7.77779 13.6747 7.68128 13.7712 7.56333 13.7712H6.84846C6.73051 13.7712 6.634 13.6747 6.634 13.5567V12.8419C6.634 12.7239 6.73051 12.6274 6.84846 12.6274H7.56333C7.68128 12.6274 7.77779 12.7239 7.77779 12.8419V13.5567ZM7.77779 11.2691C7.77779 11.3871 7.68128 11.4836 7.56333 11.4836H6.84846C6.73051 11.4836 6.634 11.3871 6.634 11.2691V10.5543C6.634 10.4363 6.73051 10.3398 6.84846 10.3398H7.56333C7.68128 10.3398 7.77779 10.4363 7.77779 10.5543V11.2691ZM8.06374 8.23095C8.06374 8.28992 8.01549 8.33818 7.95651 8.33818H7.49184V8.80284C7.49184 8.86182 7.44359 8.91007 7.38461 8.91007H7.02718C6.9682 8.91007 6.91995 8.86182 6.91995 8.80284V8.33818H6.45528C6.39631 8.33818 6.34805 8.28992 6.34805 8.23095V7.87351C6.34805 7.81454 6.39631 7.76628 6.45528 7.76628H6.91995V7.30162C6.91995 7.24264 6.9682 7.19439 7.02718 7.19439H7.38461C7.44359 7.19439 7.49184 7.24264 7.49184 7.30162V7.76628H7.95651C8.01549 7.76628 8.06374 7.81454 8.06374 7.87351V8.23095ZM10.6373 13.5567C10.6373 13.6747 10.5408 13.7712 10.4228 13.7712H9.70794C9.58999 13.7712 9.49348 13.6747 9.49348 13.5567V12.8419C9.49348 12.7239 9.58999 12.6274 9.70794 12.6274H10.4228C10.5408 12.6274 10.6373 12.7239 10.6373 12.8419V13.5567ZM10.6373 11.2691C10.6373 11.3871 10.5408 11.4836 10.4228 11.4836H9.70794C9.58999 11.4836 9.49348 11.3871 9.49348 11.2691V10.5543C9.49348 10.4363 9.58999 10.3398 9.70794 10.3398H10.4228C10.5408 10.3398 10.6373 10.4363 10.6373 10.5543V11.2691Z" fill="#242F46"/>
<path id="Star 1" d="M11.9411 3.29419L12.4034 4.7168L13.8992 4.7168L12.6891 5.59602L13.1513 7.01864L11.9411 6.13941L10.731 7.01864L11.1932 5.59602L9.98309 4.7168L11.4789 4.7168L11.9411 3.29419Z" fill="#586582"/>
<path id="Star 3" d="M7.20582 0L7.52939 0.995828H8.57647L7.72936 1.61128L8.05293 2.60711L7.20582 1.99166L6.35872 2.60711L6.68229 1.61128L5.83518 0.995828H6.88226L7.20582 0Z" fill="#586582"/>
<path id="Star 2" d="M2.05882 2.88232L2.52106 4.30494L4.01688 4.30494L2.80674 5.18416L3.26897 6.60677L2.05882 5.72755L0.848677 6.60677L1.31091 5.18416L0.100766 4.30494L1.59659 4.30494L2.05882 2.88232Z" fill="#586582"/>
</g>
</svg>
