<svg width="12" height="14" viewBox="0 0 12 14" fill="none" xmlns="http://www.w3.org/2000/svg">
<g id="retouching">
<path id="Vector" d="M0.466816 13.7557C0.341625 13.6588 0.23679 13.5383 0.158309 13.401C0.0798275 13.2636 0.0292419 13.1122 0.00944673 12.9553C-0.0103484 12.7984 0.0010354 12.6392 0.0429467 12.4867C0.084858 12.3342 0.156474 12.1914 0.253696 12.0666L7.985 2.15454L9.88785 3.64031L2.16036 13.5372C1.96295 13.7882 1.67424 13.9512 1.35706 13.9907C1.03988 14.0302 0.719923 13.943 0.466816 13.7481V13.7557Z" fill="#242F46"/>
<path id="Vector_2" d="M6.23438 4.35474L7.985 2.11279L9.9164 3.61186L8.16197 5.85381L6.23438 4.35474Z" fill="#586582"/>
<path id="Vector_3" d="M8.77084 1.39837C9.07339 1.28057 9.49012 1.26347 9.70514 1.01838C9.92016 0.773283 9.89543 0.387592 9.97725 0.0854981L10.0572 0C10.1732 0.303993 10.2475 0.645986 10.3749 0.93478C10.3749 0.999378 10.4111 1.03358 10.5158 1.06588C10.8278 1.15517 11.1741 1.21027 11.4919 1.29957C11.3574 1.40527 11.1959 1.4711 11.0257 1.48957C10.8255 1.49846 10.6369 1.58585 10.5008 1.73276C10.3647 1.87967 10.2921 2.07425 10.2988 2.27425C10.2925 2.42168 10.2514 2.56553 10.179 2.69414C10.099 2.42245 9.98867 2.11465 9.90304 1.84296C9.88626 1.79635 9.85819 1.75461 9.82134 1.72146C9.78449 1.68831 9.73999 1.66478 9.69182 1.65296C9.36669 1.61324 9.05036 1.52015 8.75562 1.37747L8.77084 1.39837Z" fill="#586582"/>
<path id="Vector_4" d="M7.64636 8.48706C8.08973 8.29707 8.69864 8.24007 9.02022 7.85818C9.34181 7.47629 9.24476 6.9234 9.35322 6.45601L9.44646 6.34961C9.63675 6.7885 9.78327 7.28249 9.97546 7.72708C9.97546 7.82968 10.0402 7.87528 10.1943 7.91708C10.6624 8.02917 11.1819 8.08617 11.65 8.19827C11.4708 8.35774 11.2508 8.46431 11.0144 8.50606C10.7194 8.5331 10.447 8.67549 10.2567 8.9022C10.0663 9.12891 9.97345 9.42155 9.99829 9.71634C9.99594 9.93312 9.94524 10.1467 9.84987 10.3414C9.71286 9.94433 9.52068 9.49974 9.38177 9.10835C9.35287 9.03828 9.30755 8.97616 9.2496 8.92722C9.19165 8.87829 9.12277 8.84397 9.04877 8.82716C8.56609 8.7894 8.09261 8.67458 7.64636 8.48706Z" fill="#586582"/>
<path id="Vector_5" d="M0.415527 3.50932C0.940715 3.24333 1.67522 3.12933 2.03866 2.64484C2.35263 2.22495 2.24417 1.49157 2.34883 0.912081L2.45158 0.771484C2.71798 1.29587 2.91778 1.88866 3.1937 2.41115C3.1937 2.53275 3.28313 2.58404 3.47532 2.62204C4.04618 2.72084 4.68173 2.75314 5.2621 2.85574C5.05233 3.06469 4.78899 3.21193 4.50096 3.28133C3.6637 3.52832 3.29835 4.01851 3.35924 4.8222C3.37286 5.08866 3.32671 5.3548 3.22414 5.60118C3.03386 5.13379 2.75604 4.6075 2.56956 4.13441C2.52927 4.0525 2.46987 3.98145 2.39636 3.92723C2.32285 3.87301 2.23738 3.8372 2.14713 3.82282C1.55569 3.83395 0.967689 3.73072 0.415527 3.51882V3.50932Z" fill="#586582"/>
</g>
</svg>
