<svg width="40" height="41" viewBox="0 0 40 41" fill="none" xmlns="http://www.w3.org/2000/svg">
<path fill-rule="evenodd" clip-rule="evenodd" d="M23.624 7.22412L23.668 16.6961L17.464 16.7241L17.452 13.8521L10.288 13.8881L10.256 7.28812L23.624 7.22412Z" fill="#F15959"/>
<path d="M27.42 31.524L27.384 24.18L22.824 24.2L22.848 29.392C22.88 36.06 17.568 39.876 11.692 39.9C5.81597 39.924 1.27197 35.016 1.27197 28.96C1.27197 22.292 6.31597 17.596 12.188 17.568L33.16 17.468L33.272 31.5L27.42 31.524ZM17.1 29.568L17.06 24.232L12.14 24.256C9.41197 24.268 6.94397 26.668 6.95997 29.616C6.97597 32.564 9.19597 34.408 11.924 34.392C14.648 34.38 17.116 32.516 17.1 29.568Z" fill="#F15959"/>
<path fill-rule="evenodd" clip-rule="evenodd" d="M33.16 16.6521L24.74 16.6921L24.696 7.21212L33.116 7.17212L33.16 16.6521Z" fill="black"/>
<path fill-rule="evenodd" clip-rule="evenodd" d="M23.624 7.22388L23.668 16.6959L17.464 16.7239L17.452 13.8519L10.288 13.8879L10.256 7.28788L23.624 7.22388Z" fill="#F15959"/>
<path d="M27.42 31.524L27.384 24.18L22.824 24.2L22.848 29.392C22.88 36.06 17.568 39.876 11.692 39.9C5.81597 39.924 1.27197 35.016 1.27197 28.96C1.27197 22.292 6.31597 17.596 12.188 17.568L33.16 17.468L33.272 31.5L27.42 31.524ZM17.1 29.568L17.06 24.232L12.14 24.256C9.41197 24.268 6.94397 26.668 6.95997 29.616C6.97597 32.564 9.19597 34.408 11.924 34.392C14.648 34.38 17.116 32.516 17.1 29.568Z" fill="#F15959"/>
<path fill-rule="evenodd" clip-rule="evenodd" d="M33.16 16.6519L24.74 16.6919L24.696 7.21188L33.116 7.17188L33.16 16.6519Z" fill="black"/>
<path fill-rule="evenodd" clip-rule="evenodd" d="M38.148 1.75195L38.172 7.14395L33.108 7.16795L33.084 1.77595L38.148 1.75195Z" fill="black"/>
</svg>
