<svg width="54" height="27" viewBox="0 0 54 27" fill="none" xmlns="http://www.w3.org/2000/svg">
<rect width="54" height="27" rx="2" fill="#DFEAFF"/>
<path d="M35.2223 19.9671C35.2223 20.254 35.0283 20.4607 34.7498 20.4607C34.4629 20.4607 34.2773 20.2414 34.2773 19.9671C34.2773 19.6929 34.4629 19.4736 34.7498 19.4736C35.0283 19.4736 35.2223 19.6929 35.2223 19.9671ZM22.1104 19.4736C21.8109 19.4736 21.6379 19.6929 21.6379 19.9671C21.6379 20.2414 21.8109 20.4607 22.1104 20.4607C22.3847 20.4607 22.5703 20.254 22.5703 19.9671C22.5661 19.6929 22.3847 19.4736 22.1104 19.4736ZM27.0675 19.4609C26.8397 19.4609 26.7004 19.6086 26.6667 19.8279H27.4725C27.4345 19.5875 27.2868 19.4609 27.0675 19.4609ZM31.6153 19.4736C31.3284 19.4736 31.1554 19.6929 31.1554 19.9671C31.1554 20.2414 31.3284 20.4607 31.6153 20.4607C31.9022 20.4607 32.0878 20.254 32.0878 19.9671C32.0878 19.6929 31.9022 19.4736 31.6153 19.4736ZM36.0829 20.5746C36.0829 20.5873 36.0956 20.5957 36.0956 20.6211C36.0956 20.6337 36.0829 20.6421 36.0829 20.6675C36.0703 20.6801 36.0703 20.6886 36.0618 20.7012C36.0492 20.7139 36.0408 20.7223 36.0154 20.7223C36.0028 20.735 35.9943 20.735 35.969 20.735C35.9564 20.735 35.9479 20.735 35.9226 20.7223C35.91 20.7223 35.9015 20.7097 35.8889 20.7012C35.8762 20.6886 35.8678 20.6801 35.8678 20.6675C35.8551 20.6464 35.8551 20.6337 35.8551 20.6211C35.8551 20.6 35.8551 20.5873 35.8678 20.5746C35.8678 20.5536 35.8804 20.5409 35.8889 20.5282C35.9015 20.5156 35.91 20.5156 35.9226 20.5071C35.9437 20.4945 35.9564 20.4945 35.969 20.4945C35.9901 20.4945 36.0028 20.4945 36.0154 20.5071C36.0365 20.5198 36.0492 20.5198 36.0618 20.5282C36.0745 20.5367 36.0703 20.5536 36.0829 20.5746ZM35.9901 20.6337C36.0112 20.6337 36.0112 20.6211 36.0239 20.6211C36.0365 20.6084 36.0365 20.6 36.0365 20.5873C36.0365 20.5746 36.0365 20.5662 36.0239 20.5536C36.0112 20.5536 36.0028 20.5409 35.9775 20.5409H35.91V20.6886H35.9437V20.6295H35.9564L36.0028 20.6886H36.0365L35.9901 20.6337ZM39.15 6.0748V20.9248C39.15 22.0428 38.2429 22.9498 37.125 22.9498H16.875C15.757 22.9498 14.85 22.0428 14.85 20.9248V6.0748C14.85 4.95684 15.757 4.0498 16.875 4.0498H37.125C38.2429 4.0498 39.15 4.95684 39.15 6.0748ZM17.55 11.9642C17.55 15.1915 20.1698 17.8071 23.3929 17.8071C24.5404 17.8071 25.6668 17.4612 26.6203 16.8326C23.5448 14.3309 23.5659 9.61012 26.6203 7.1084C25.6668 6.47559 24.5404 6.13387 23.3929 6.13387C20.1698 6.12965 17.55 8.74949 17.55 11.9642ZM27 16.5542C29.9742 14.2339 29.9615 9.71137 27 7.3784C24.0384 9.71137 24.0258 14.2381 27 16.5542ZM20.9967 19.7731C20.9967 19.4061 20.7562 19.1656 20.3765 19.1529C20.1825 19.1529 19.9758 19.212 19.8365 19.4271C19.7353 19.2542 19.5623 19.1529 19.3219 19.1529C19.1615 19.1529 19.0012 19.212 18.8747 19.3807V19.1951H18.5287V20.7434H18.8747C18.8747 19.9461 18.7692 19.4693 19.2544 19.4693C19.6847 19.4693 19.6003 19.8996 19.6003 20.7434H19.9336C19.9336 19.9714 19.8281 19.4693 20.3133 19.4693C20.7436 19.4693 20.6592 19.8912 20.6592 20.7434H21.0051V19.7731H20.9967ZM22.8909 19.1951H22.5576V19.3807C22.4437 19.2415 22.2834 19.1529 22.064 19.1529C21.6295 19.1529 21.2962 19.4989 21.2962 19.9671C21.2962 20.4396 21.6295 20.7814 22.064 20.7814C22.2834 20.7814 22.4437 20.7012 22.5576 20.5536V20.7476H22.8909V19.1951ZM24.5995 20.2751C24.5995 19.6423 23.6334 19.9292 23.6334 19.6339C23.6334 19.3934 24.1354 19.4314 24.4139 19.5875L24.5531 19.3132C24.1565 19.0559 23.279 19.0601 23.279 19.6592C23.279 20.2625 24.2451 20.0093 24.2451 20.292C24.2451 20.5578 23.6756 20.5367 23.3719 20.3257L23.2242 20.5915C23.6967 20.9121 24.5995 20.8446 24.5995 20.2751ZM26.0929 20.6675L26.0001 20.3806C25.8398 20.4692 25.4854 20.5662 25.4854 20.2076V19.5073H26.0381V19.1951H25.4854V18.7226H25.1395V19.1951H24.8189V19.5031H25.1395V20.2076C25.1395 20.9501 25.8693 20.8151 26.0929 20.6675ZM26.654 20.1021H27.8142C27.8142 19.4187 27.502 19.1487 27.0801 19.1487C26.6329 19.1487 26.3123 19.482 26.3123 19.9629C26.3123 20.8278 27.2658 20.9712 27.7383 20.562L27.5779 20.3089C27.2489 20.5789 26.7511 20.5536 26.654 20.1021ZM29.1473 19.1951C28.9533 19.1107 28.6579 19.1192 28.5061 19.3807V19.1951H28.1601V20.7434H28.5061V19.8701C28.5061 19.3807 28.9068 19.444 29.0461 19.5157L29.1473 19.1951ZM29.5945 19.9671C29.5945 19.4862 30.0839 19.3301 30.4678 19.6128L30.6281 19.3386C30.1387 18.9546 29.2486 19.1656 29.2486 19.9714C29.2486 20.8067 30.1936 20.9754 30.6281 20.6042L30.4678 20.33C30.0797 20.6042 29.5945 20.4396 29.5945 19.9671ZM32.4084 19.1951H32.0625V19.3807C31.7123 18.9167 30.8011 19.1782 30.8011 19.9671C30.8011 20.7771 31.7461 21.0092 32.0625 20.5536V20.7476H32.4084V19.1951ZM33.8301 19.1951C33.7289 19.1445 33.3661 19.0728 33.1889 19.3807V19.1951H32.8556V20.7434H33.1889V19.8701C33.1889 19.4061 33.5686 19.4356 33.7289 19.5157L33.8301 19.1951ZM35.5303 18.5665H35.197V19.3807C34.8511 18.9209 33.9356 19.1656 33.9356 19.9671C33.9356 20.7856 34.8848 21.005 35.197 20.5536V20.7476H35.5303V18.5665ZM35.8509 15.3982V15.5923H35.8847V15.3982H35.9648V15.3645H35.7708V15.3982H35.8509ZM36.1293 20.6211C36.1293 20.6 36.1294 20.5746 36.1167 20.5536C36.104 20.5409 36.0956 20.5198 36.0829 20.5071C36.0703 20.4945 36.0492 20.4861 36.0365 20.4734C36.0154 20.4734 35.9901 20.4607 35.969 20.4607C35.9564 20.4607 35.9353 20.4734 35.91 20.4734C35.8889 20.4861 35.8762 20.4945 35.8636 20.5071C35.8425 20.5198 35.8298 20.5409 35.8298 20.5536C35.8172 20.5746 35.8172 20.6 35.8172 20.6211C35.8172 20.6337 35.8172 20.6548 35.8298 20.6801C35.8298 20.6928 35.8425 20.7139 35.8636 20.7265C35.8762 20.7392 35.8847 20.7476 35.91 20.7603C35.9311 20.7729 35.9564 20.7729 35.969 20.7729C35.9901 20.7729 36.0154 20.7729 36.0365 20.7603C36.0492 20.7476 36.0703 20.7392 36.0829 20.7265C36.0956 20.7139 36.104 20.6928 36.1167 20.6801C36.1294 20.6548 36.1293 20.6337 36.1293 20.6211ZM36.2643 15.3603H36.2053L36.1378 15.5079L36.0703 15.3603H36.0112V15.5881H36.045V15.4151L36.1125 15.5628H36.1589L36.2179 15.4151V15.5881H36.2643V15.3603ZM36.45 11.9642C36.45 8.74949 33.8301 6.12965 30.607 6.12965C29.4595 6.12965 28.3331 6.47559 27.3797 7.10418C30.4214 9.6059 30.4678 14.3393 27.3797 16.8284C28.3331 17.4612 29.4679 17.8029 30.607 17.8029C33.8301 17.8071 36.45 15.1915 36.45 11.9642Z" fill="url(#paint0_diamond_151_15887)"/>
<defs>
<radialGradient id="paint0_diamond_151_15887" cx="0" cy="0" r="1" gradientUnits="userSpaceOnUse" gradientTransform="translate(14.9999 5) rotate(36.8699) scale(30 38.5714)">
<stop stop-color="#CC080D"/>
<stop offset="1" stop-color="#EDAA1D"/>
</radialGradient>
</defs>
</svg>
