<svg width="54" height="27" viewBox="0 0 54 27" fill="none" xmlns="http://www.w3.org/2000/svg">
<rect width="54" height="27" rx="2" fill="#DFEAFF"/>
<path d="M23.9647 15.3686C23.8564 16.0087 23.4263 18.9927 23.2994 19.8363C23.2901 19.8963 23.2684 19.9196 23.2065 19.9196H20.8981C20.6629 19.9196 20.4927 19.6996 20.5237 19.4562L22.337 7.05678C22.3834 6.73671 22.6495 6.49332 22.9559 6.49332C27.6688 6.49332 28.0648 6.36996 29.2686 6.87341C31.1284 7.65025 31.2986 9.52399 30.6301 11.5511C29.9648 13.6382 28.3867 14.5351 26.2948 14.5618C24.9518 14.5851 24.1442 14.3284 23.9647 15.3686ZM31.5678 10.5709C31.5121 10.5275 31.4904 10.5109 31.4749 10.6142C31.413 10.9943 31.3171 11.3644 31.2026 11.7345C29.9679 15.5286 26.5455 15.1986 24.8745 15.1986C24.6857 15.1986 24.5619 15.3086 24.5372 15.512C23.8378 20.193 23.6986 21.1699 23.6986 21.1699C23.6676 21.4066 23.8069 21.6 24.0266 21.6H25.9916C26.2577 21.6 26.4774 21.3899 26.53 21.1032C26.5517 20.9232 26.496 21.3066 26.9756 18.0592C27.1179 17.3257 27.4181 17.4024 27.8823 17.4024C30.0793 17.4024 31.7937 16.4422 32.3043 13.6582C32.5054 12.498 32.4466 11.2777 31.5678 10.5709Z" fill="#4170B0"/>
</svg>
