<svg width="54" height="28" viewBox="0 0 54 28" fill="none" xmlns="http://www.w3.org/2000/svg">
<rect y="0.25" width="54" height="27" rx="2" fill="#DFEAFF"/>
<path d="M34.6822 12.7083C34.6822 12.7083 35.0028 14.2776 35.0745 14.6067H33.6655C33.8047 14.2312 34.3405 12.7715 34.3405 12.7715C34.332 12.7842 34.4797 12.3876 34.5641 12.1429L34.6822 12.7083ZM39.1499 6.32529V21.1753C39.1499 22.2933 38.2428 23.2003 37.1249 23.2003H16.8749C15.7569 23.2003 14.8499 22.2933 14.8499 21.1753V6.32529C14.8499 5.20732 15.7569 4.30029 16.8749 4.30029H37.1249C38.2428 4.30029 39.1499 5.20732 39.1499 6.32529ZM21.2834 16.9228L23.9497 10.3753H22.1567L20.4988 14.8472L20.3174 13.9401L19.7267 10.9279C19.6297 10.5103 19.3302 10.3922 18.9589 10.3753H16.2294L16.1999 10.5061C16.8664 10.6748 17.4613 10.9195 17.9802 11.2275L19.4905 16.9228H21.2834ZM25.2659 16.9312L26.3291 10.3753H24.6331L23.5742 16.9312H25.2659ZM31.168 14.7881C31.1764 14.0414 30.7208 13.4719 29.7463 13.0036C29.1514 12.704 28.7886 12.5015 28.7886 12.1936C28.797 11.9151 29.0966 11.6283 29.7631 11.6283C30.3158 11.6156 30.7208 11.7464 31.0245 11.8772L31.1764 11.9489L31.4084 10.5314C31.0752 10.4006 30.5436 10.2529 29.8897 10.2529C28.2149 10.2529 27.0378 11.1473 27.0294 12.4214C27.0167 13.3622 27.8731 13.8853 28.5144 14.2017C29.1683 14.5223 29.3919 14.7333 29.3919 15.0159C29.3834 15.4547 28.8603 15.6572 28.3752 15.6572C27.7002 15.6572 27.3374 15.5517 26.7847 15.307L26.5611 15.2015L26.3249 16.6739C26.7214 16.8553 27.4555 17.0156 28.2149 17.024C29.9952 17.0283 31.1553 16.1465 31.168 14.7881ZM37.1249 16.9312L35.758 10.3753H34.4459C34.0409 10.3753 33.733 10.4934 33.56 10.9195L31.0414 16.9312H32.8217C32.8217 16.9312 33.1128 16.1212 33.1761 15.9483H35.353C35.4036 16.1803 35.5555 16.9312 35.5555 16.9312H37.1249Z" fill="#191E6D"/>
</svg>
